<svg width="22" height="22" viewBox="0 0 22 22" fill="none" xmlns="http://www.w3.org/2000/svg">
<path opacity="0.4" d="M11.0216 0.166992C4.72746 0.166992 0.166626 5.30199 0.166626 11.0003C0.166626 12.8203 0.697459 14.6945 1.62913 16.4062C1.80246 16.6878 1.82413 17.0453 1.70496 17.3812L0.979126 19.8078C0.816626 20.3928 1.31496 20.8262 1.86746 20.6528L4.05579 20.0028C4.65163 19.8078 5.11746 20.057 5.67104 20.3928C7.25271 21.3245 9.22329 21.8012 11 21.8012C16.3733 21.8012 21.8333 17.652 21.8333 10.9678C21.8333 5.20449 17.175 0.166992 11.0216 0.166992Z" fill="#469DDD"/>
<path fill-rule="evenodd" clip-rule="evenodd" d="M5.98444 12.3974C5.22611 12.3974 4.59778 11.769 4.59778 11.0107C4.59778 10.2415 5.21528 9.62402 5.98444 9.62402C6.75361 9.62402 7.37111 10.2415 7.37111 11.0107C7.37111 11.769 6.75361 12.3865 5.98444 12.3974ZM10.979 12.3975C10.2099 12.3867 9.59238 11.7692 9.59238 11C9.59238 10.2417 10.2207 9.61333 10.979 9.62416C11.7482 9.62416 12.3657 10.2417 12.3657 11.0108C12.3657 11.7692 11.7482 12.3975 10.979 12.3975ZM14.5863 11.0107C14.5863 11.769 15.2038 12.3974 15.973 12.3974C16.7422 12.3974 17.3597 11.769 17.3597 11.0107C17.3597 10.2415 16.7422 9.62402 15.973 9.62402C15.2038 9.62402 14.5863 10.2415 14.5863 11.0107Z" fill="#469DDD"/>
</svg>
