<svg width="22" height="22" viewBox="0 0 22 22" fill="none" xmlns="http://www.w3.org/2000/svg">
<path d="M7.90575 20.5143V17.1918C7.90573 16.3499 8.59035 15.6659 9.43834 15.6606H12.552C13.4038 15.6606 14.0943 16.3462 14.0943 17.1918V20.5047C14.0943 21.2349 14.6877 21.8283 15.4232 21.8336H17.5475C18.5396 21.8362 19.492 21.4467 20.1945 20.7511C20.8969 20.0555 21.2917 19.111 21.2917 18.126V8.68833C21.2917 7.89266 20.9364 7.13793 20.3217 6.62745L13.1049 0.89745C11.8434 -0.104792 10.0417 -0.0724156 8.81755 0.974492L1.75597 6.62745C1.11218 7.12288 0.727389 7.87985 0.708374 8.68833V18.1163C0.708374 20.1693 2.3847 21.8336 4.45256 21.8336H6.52835C6.88248 21.8362 7.22298 21.6983 7.4743 21.4506C7.72562 21.2029 7.86696 20.8659 7.86695 20.5143H7.90575Z" fill="#469DDD"/>
</svg>
