<svg width="22" height="22" viewBox="0 0 22 22" fill="none" xmlns="http://www.w3.org/2000/svg">
<path d="M21.213 0.793482C20.6713 0.239899 19.8697 0.035149 19.1222 0.251816L1.69133 5.28823C0.902665 5.50707 0.343664 6.13215 0.193081 6.92515C0.0392478 7.73332 0.576581 8.76032 1.27858 9.18932L6.72883 12.5173C7.28783 12.8596 8.00933 12.7741 8.47191 12.3104L14.713 6.06932C15.0272 5.74323 15.5472 5.74323 15.8613 6.06932C16.1755 6.3824 16.1755 6.89265 15.8613 7.21765L9.60942 13.4587C9.14575 13.9224 9.05908 14.6417 9.40033 15.2018L12.7305 20.6726C13.1205 21.3216 13.7922 21.691 14.5288 21.691C14.6155 21.691 14.713 21.691 14.7997 21.6791C15.6447 21.5718 16.3163 20.9966 16.5655 20.1841L21.733 2.88432C21.9605 2.14765 21.7547 1.34598 21.213 0.793482Z" fill="#469DDD"/>
<path opacity="0.4" fill-rule="evenodd" clip-rule="evenodd" d="M1.26133 16.2092C1.05333 16.2092 0.845326 16.1301 0.687159 15.9709C0.369743 15.6535 0.369743 15.14 0.687159 14.8226L2.16591 13.3427C2.48333 13.0264 2.99791 13.0264 3.31533 13.3427C3.63166 13.6601 3.63166 14.1747 3.31533 14.4921L1.83549 15.9709C1.67733 16.1301 1.46933 16.2092 1.26133 16.2092ZM5.33596 17.501C5.12796 17.501 4.91996 17.4219 4.76179 17.2627C4.44438 16.9452 4.44438 16.4317 4.76179 16.1143L6.24054 14.6345C6.55796 14.3182 7.07254 14.3182 7.38996 14.6345C7.70629 14.9519 7.70629 15.4665 7.38996 15.7839L5.91013 17.2627C5.75196 17.4219 5.54396 17.501 5.33596 17.501ZM5.6108 21.3663C5.76897 21.5256 5.97697 21.6047 6.18497 21.6047C6.39297 21.6047 6.60097 21.5256 6.75913 21.3663L8.23897 19.8876C8.5553 19.5702 8.5553 19.0556 8.23897 18.7382C7.92155 18.4218 7.40697 18.4218 7.08955 18.7382L5.6108 20.218C5.29338 20.5354 5.29338 21.0489 5.6108 21.3663Z" fill="#469DDD"/>
</svg>
