<svg width="22" height="22" viewBox="0 0 22 22" fill="none" xmlns="http://www.w3.org/2000/svg">
<path opacity="0.4" d="M0.166626 10.002C0.220793 12.5348 0.372459 16.867 0.394126 17.3448C0.471043 18.3664 0.862126 19.3988 1.47096 20.1268C2.31813 21.1484 3.36138 21.6045 4.81629 21.6045C6.82696 21.6153 9.04346 21.6153 11.196 21.6153C13.3573 21.6153 15.4546 21.6153 17.2259 21.6045C18.6602 21.6045 19.736 21.1365 20.5723 20.1268C21.1811 19.3988 21.5722 18.3555 21.6275 17.3448C21.6491 16.9429 21.7575 12.2401 21.8225 10.002H0.166626Z" fill="#469DDD"/>
<path d="M10.1823 14.666V16.0678C10.1823 16.5163 10.5463 16.8803 10.9948 16.8803C11.4433 16.8803 11.8073 16.5163 11.8073 16.0678V14.666C11.8073 14.2175 11.4433 13.8535 10.9948 13.8535C10.5463 13.8535 10.1823 14.2175 10.1823 14.666Z" fill="#469DDD"/>
<path fill-rule="evenodd" clip-rule="evenodd" d="M9.06188 13.7693C8.95354 14.1626 8.57546 14.4139 8.16596 14.3597C5.40238 13.9741 2.76121 12.9937 0.531709 11.5214C0.303126 11.3719 0.166626 11.1162 0.166626 10.8432V7.08841C0.166626 4.81341 2.02129 2.96308 4.30171 2.96308H6.43263C6.63629 1.39008 7.96879 0.166992 9.59596 0.166992H12.3931C14.0192 0.166992 15.3528 1.39008 15.5565 2.96308H17.6982C19.9721 2.96308 21.8225 4.81341 21.8225 7.08841V10.8432C21.8225 11.1162 21.6849 11.3708 21.4585 11.5214C19.2246 13.0002 16.5726 13.9849 13.7906 14.3695C13.7527 14.3749 13.7159 14.3771 13.679 14.3771C13.3118 14.3771 12.9835 14.129 12.8915 13.765C12.6726 12.9027 11.8894 12.2992 10.9891 12.2992C10.077 12.2992 9.30238 12.8897 9.06188 13.7693ZM12.3929 1.79199H9.59572C8.86664 1.79199 8.25781 2.29033 8.07581 2.96308H13.9117C13.7297 2.29033 13.1209 1.79199 12.3929 1.79199Z" fill="#469DDD"/>
</svg>
