<svg width="19" height="24" viewBox="0 0 19 24" fill="none" xmlns="http://www.w3.org/2000/svg">
<path d="M19 16.816C18.6454 17.9694 18.0861 19.1227 17.3223 20.2761C16.1493 22.0845 14.9809 22.9888 13.8169 22.9888C13.3714 22.9888 12.7349 22.8412 11.9074 22.5459C11.1254 22.2506 10.4389 22.103 9.84781 22.103C9.29313 22.103 8.64752 22.2552 7.91098 22.5597C7.17444 22.8734 6.5743 23.0303 6.11055 23.0303C4.7284 23.0303 3.35989 21.8354 2.00503 19.4457C0.668342 17.0374 0 14.7169 0 12.484C0 10.3802 0.513759 8.65482 1.54128 7.30769C2.5688 5.97902 3.86001 5.31469 5.41493 5.31469C6.06963 5.31469 6.87437 5.45309 7.82915 5.7299C8.77483 6.0067 9.40225 6.14511 9.71141 6.14511C10.1206 6.14511 10.7708 5.98825 11.6619 5.67453C12.5894 5.36082 13.3759 5.20396 14.0215 5.20396C15.1036 5.20396 16.072 5.50384 16.9268 6.10358C17.3996 6.43575 17.8725 6.8971 18.3453 7.48762C17.6269 8.10582 17.1086 8.6502 16.7904 9.12078C16.1993 9.9881 15.9038 10.9431 15.9038 11.9857C15.9038 13.1299 16.2175 14.1587 16.8449 15.0721C17.4724 15.9856 18.1907 16.5669 19 16.816ZM13.8715 0.581294C13.8715 1.14413 13.7397 1.77156 13.476 2.46358C13.2032 3.15559 12.7803 3.79225 12.2075 4.37354C11.7164 4.8718 11.2254 5.20396 10.7344 5.37005C10.3979 5.47154 9.9251 5.54997 9.31587 5.60533C9.34314 4.23053 9.69777 3.04487 10.3798 2.04837C11.0526 1.06109 12.1893 0.378302 13.7897 0C13.7988 0.0276807 13.8101 0.0784285 13.8238 0.152244C13.8374 0.226059 13.8488 0.276807 13.8579 0.304487C13.8579 0.341395 13.8601 0.387529 13.8647 0.44289C13.8692 0.498252 13.8715 0.544386 13.8715 0.581294Z" fill="white"/>
</svg>
