<svg width="24" height="24" viewBox="0 0 24 24" fill="none" xmlns="http://www.w3.org/2000/svg">
<path d="M21.44 11.0489L12.25 20.2389C11.1242 21.3648 9.59723 21.9973 8.00505 21.9973C6.41286 21.9973 4.88589 21.3648 3.76005 20.2389C2.6342 19.1131 2.00171 17.5861 2.00171 15.9939C2.00171 14.4018 2.6342 12.8748 3.76005 11.7489L12.95 2.55894C13.7006 1.80838 14.7186 1.38672 15.78 1.38672C16.8415 1.38672 17.8595 1.80838 18.61 2.55894C19.3606 3.30951 19.7823 4.32749 19.7823 5.38894C19.7823 6.4504 19.3606 7.46838 18.61 8.21894L9.41005 17.4089C9.03476 17.7842 8.52577 17.9951 7.99505 17.9951C7.46432 17.9951 6.95533 17.7842 6.58005 17.4089C6.20476 17.0337 5.99393 16.5247 5.99393 15.9939C5.99393 15.4632 6.20476 14.9542 6.58005 14.5789L15.07 6.09894" stroke="#469DDD" stroke-width="2" stroke-linecap="round" stroke-linejoin="round"/>
</svg>
