<svg width="42" height="22" viewBox="0 0 42 22" fill="none" xmlns="http://www.w3.org/2000/svg">
<path fill-rule="evenodd" clip-rule="evenodd" d="M20.1849 15.5834C18.3711 15.5834 16.899 17.0207 16.899 18.7917C16.899 20.5626 18.3711 22 20.1849 22C21.9986 22 23.4707 20.5626 23.4707 18.7917C23.4707 17.0207 21.9986 15.5834 20.1849 15.5834ZM9.85782 15.5834C8.04407 15.5834 6.57194 17.0207 6.57194 18.7917C6.57194 20.5626 8.04407 22 9.85782 22C11.6716 22 13.1437 20.5626 13.1437 18.7917C13.1437 17.0207 11.6716 15.5834 9.85782 15.5834ZM20.1849 17.4167C20.9621 17.4167 21.5931 18.0328 21.5931 18.7917C21.5931 19.5506 20.9621 20.1667 20.1849 20.1667C19.4076 20.1667 18.7766 19.5506 18.7766 18.7917C18.7766 18.0328 19.4076 17.4167 20.1849 17.4167ZM9.85782 17.4167C10.6351 17.4167 11.2661 18.0328 11.2661 18.7917C11.2661 19.5506 10.6351 20.1667 9.85782 20.1667C9.08058 20.1667 8.44959 19.5506 8.44959 18.7917C8.44959 18.0328 9.08058 17.4167 9.85782 17.4167ZM23.1832 0.000109899H2.81666C1.99978 0.000109899 1.2234 0.345702 0.689237 0.947886C0.154232 1.55026 -0.0871953 2.34949 0.0283065 3.13887L0.389795 5.61019C0.463141 6.11067 0.939032 6.45996 1.45265 6.38752C1.96523 6.3159 2.32189 5.85124 2.24877 5.35074L1.88728 2.87942C1.84872 2.61629 1.9294 2.35048 2.10795 2.14976C2.28523 1.94883 2.54445 1.83343 2.81668 1.83343H3.88039L5.41249 12.3054C5.61052 13.6601 6.79915 14.6666 8.20089 14.6666H21.8417C23.2434 14.6666 24.432 13.6601 24.6301 12.3054C24.9671 10.0017 25.5962 5.70646 25.9717 3.13876C26.0872 2.34938 25.8458 1.55015 25.3108 0.947776C24.7766 0.345608 24.0002 0 23.1834 0L23.1832 0.000109899ZM23.7295 5.50008L22.771 12.0461C22.7054 12.4979 22.3091 12.8334 21.8416 12.8334H8.20083C7.7333 12.8334 7.337 12.4979 7.27145 12.0461L6.31294 5.50008H23.7295ZM23.9971 3.66676H6.04525L5.7766 1.83343H23.1834C23.4556 1.83343 23.7138 1.94883 23.8924 2.14977C24.0707 2.35049 24.1514 2.61628 24.1128 2.87943L23.9971 3.66676Z" fill="white"/>
<path d="M36 2L30.2265 12L41.7735 12L36 2ZM37 18L37 11L35 11L35 18L37 18Z" fill="white"/>
</svg>
