<svg width="19" height="19" viewBox="0 0 19 19" fill="none" xmlns="http://www.w3.org/2000/svg">
<path opacity="0.4" d="M2.44836 7.44658H16.559" stroke="#242424" stroke-width="1.5" stroke-linecap="round" stroke-linejoin="round"/>
<path opacity="0.4" fill-rule="evenodd" clip-rule="evenodd" d="M5.23328 10.5371C5.23328 10.1229 5.56906 9.78711 5.98328 9.78711H5.99061C6.40482 9.78711 6.74061 10.1229 6.74061 10.5371C6.74061 10.9513 6.40482 11.2871 5.99061 11.2871H5.98328C5.56906 11.2871 5.23328 10.9513 5.23328 10.5371ZM9.5036 9.78711C9.08939 9.78711 8.7536 10.1229 8.7536 10.5371C8.7536 10.9513 9.08939 11.2871 9.5036 11.2871H9.51093C9.92515 11.2871 10.2609 10.9513 10.2609 10.5371C10.2609 10.1229 9.92515 9.78711 9.51093 9.78711H9.5036ZM13.0166 9.78711C12.6024 9.78711 12.2666 10.1229 12.2666 10.5371C12.2666 10.9513 12.6024 11.2871 13.0166 11.2871H13.0239C13.4381 11.2871 13.7739 10.9513 13.7739 10.5371C13.7739 10.1229 13.4381 9.78711 13.0239 9.78711H13.0166ZM13.0166 12.8639C12.6024 12.8639 12.2666 13.1997 12.2666 13.6139C12.2666 14.0281 12.6024 14.3639 13.0166 14.3639H13.0239C13.4381 14.3639 13.7739 14.0281 13.7739 13.6139C13.7739 13.1997 13.4381 12.8639 13.0239 12.8639H13.0166ZM8.7536 13.6139C8.7536 13.1997 9.08939 12.8639 9.5036 12.8639H9.51093C9.92515 12.8639 10.2609 13.1997 10.2609 13.6139C10.2609 14.0281 9.92515 14.3639 9.51093 14.3639H9.5036C9.08939 14.3639 8.7536 14.0281 8.7536 13.6139ZM5.98328 12.8639C5.56906 12.8639 5.23328 13.1997 5.23328 13.6139C5.23328 14.0281 5.56906 14.3639 5.98328 14.3639H5.99061C6.40482 14.3639 6.74061 14.0281 6.74061 13.6139C6.74061 13.1997 6.40482 12.8639 5.99061 12.8639H5.98328Z" fill="#242424"/>
<path d="M12.7013 1.58398V4.18919" stroke="#242424" stroke-width="1.5" stroke-linecap="round" stroke-linejoin="round"/>
<path d="M6.30603 1.58398V4.18919" stroke="#242424" stroke-width="1.5" stroke-linecap="round" stroke-linejoin="round"/>
<path fill-rule="evenodd" clip-rule="evenodd" d="M12.8553 2.83398H6.15201C3.82713 2.83398 2.375 4.1291 2.375 6.50971V13.674C2.375 16.0921 3.82713 17.4171 6.15201 17.4171H12.848C15.1802 17.4171 16.625 16.1145 16.625 13.7339V6.50971C16.6323 4.1291 15.1875 2.83398 12.8553 2.83398Z" stroke="#242424" stroke-width="1.5" stroke-linecap="round" stroke-linejoin="round"/>
</svg>
