<svg width="46" height="35" viewBox="0 0 46 35" fill="none" xmlns="http://www.w3.org/2000/svg">
<path d="M25.526 12.0416C24.1533 12.0416 22.8372 12.587 21.8665 13.5575C20.8959 14.5281 20.3506 15.8444 20.3506 17.217C20.3506 18.5894 20.8959 19.9059 21.8665 20.8765C22.8371 21.8471 24.1534 22.3921 25.526 22.3921C26.8984 22.3921 28.2148 21.8471 29.1855 20.8765C30.1561 19.9059 30.7011 18.5894 30.7011 17.217C30.7 15.8446 30.1543 14.5292 29.184 13.559C28.2138 12.5887 26.8979 12.043 25.526 12.0416Z" fill="#978284"/>
<path d="M35.6805 5.21026H34.4975V4.82258V4.82293C34.4975 3.54368 33.9893 2.31703 33.0847 1.41239C32.1802 0.508105 30.9535 2.90848e-06 29.6745 2.90848e-06H21.378C20.098 -0.00140174 18.87 0.506028 17.9643 1.41059C17.059 2.31514 16.5502 3.54287 16.5502 4.82284V5.21052L15.3622 5.21017C12.825 5.21017 10.3922 6.21801 8.59845 8.01174C6.80472 9.80583 5.79688 12.2387 5.79688 14.7755V20.3333C6.97112 20.3326 8.09979 20.7877 8.94509 21.6028C9.79034 22.4182 10.2862 23.5296 10.328 24.7028C11.5012 24.7446 12.6127 25.2404 13.428 26.0857C14.2431 26.9309 14.6982 28.0596 14.6975 29.2339H41.3342C42.3729 29.2353 43.3696 28.8227 44.1035 28.0877C44.8374 27.3531 45.2486 26.3557 45.2458 25.3171V14.7451V14.7454C45.2377 12.2139 44.2264 9.78875 42.4337 8.00131C40.6407 6.21387 38.2124 5.21025 35.6809 5.21025L35.6805 5.21026ZM25.5266 25.413C23.3567 25.4102 21.2768 24.5463 19.7436 23.0106C18.2108 21.475 17.3501 19.3937 17.3508 17.2238C17.3519 15.054 18.214 12.9734 19.7486 11.4391C21.2828 9.90454 23.3634 9.04242 25.5333 9.04134C27.7032 9.04064 29.7845 9.90099 31.3201 11.4342C32.8557 12.9674 33.7196 15.0472 33.7224 17.2171C33.721 19.3905 32.8572 21.4742 31.3205 23.0109C29.7838 24.5476 27.7 25.4115 25.5266 25.4129L25.5266 25.413Z" fill="#978284"/>
<path d="M10.347 27.7341C10.2901 27.7292 10.2329 27.7292 10.1757 27.7341H7.32635V24.8644V24.6934C7.28421 24.3233 7.10652 23.9816 6.82769 23.7344C6.54922 23.4872 6.18857 23.352 5.81598 23.3541C5.4434 23.352 5.08311 23.4872 4.80427 23.7344C4.5258 23.9816 4.34811 24.3233 4.30597 24.6934V24.8644V27.7137H1.44641H1.28031C0.800973 27.7878 0.386248 28.0874 0.165396 28.5189C-0.0551321 28.9509 -0.0551321 29.4621 0.165396 29.8941C0.386275 30.3257 0.801 30.6252 1.28031 30.6993H1.44641H4.30102V33.5539V33.72L4.30067 33.7197C4.37477 34.199 4.67431 34.6137 5.10589 34.8346C5.53782 35.0551 6.0491 35.0551 6.48106 34.8346C6.91264 34.6137 7.21218 34.199 7.28627 33.7197V33.5536V30.7345H10.3067C10.786 30.6607 11.2007 30.3612 11.4212 29.9293C11.6421 29.4977 11.6421 28.9861 11.4212 28.5545C11.2007 28.1225 10.786 27.823 10.3067 27.7492L10.347 27.7341Z" fill="#978284"/>
</svg>
