<svg width="28" height="22" viewBox="0 0 28 22" fill="none" xmlns="http://www.w3.org/2000/svg">
<path d="M15.3698 7.25076C14.5432 7.25076 13.7507 7.57915 13.1662 8.16358C12.5818 8.74802 12.2534 9.54057 12.2534 10.3671C12.2534 11.1935 12.5818 11.9862 13.1662 12.5706C13.7507 13.1551 14.5432 13.4832 15.3698 13.4832C16.1961 13.4832 16.9888 13.1551 17.5733 12.5706C18.1577 11.9862 18.4859 11.1935 18.4859 10.3671C18.4853 9.54074 18.1567 8.74869 17.5724 8.16445C16.9882 7.58021 16.1959 7.25163 15.3698 7.25076Z" fill="white"/>
<path d="M21.484 3.13733H20.7716V2.90388V2.9041C20.7716 2.13381 20.4657 1.39518 19.9209 0.85046C19.3763 0.305952 18.6377 1.75133e-06 17.8675 1.75133e-06H12.8718C12.1011 -0.000844051 11.3616 0.304702 10.8163 0.849377C10.2712 1.39405 9.96478 2.13332 9.96478 2.90404V3.13748L9.24943 3.13727C7.72168 3.13727 6.25678 3.74414 5.1767 4.82422C4.09661 5.90452 3.48975 7.36948 3.48975 8.89696V12.2436C4.19681 12.2432 4.87643 12.5172 5.38543 13.008C5.89439 13.499 6.19296 14.1682 6.21813 14.8746C6.9246 14.8998 7.59382 15.1984 8.0848 15.7073C8.57557 16.2163 8.84962 16.8959 8.84918 17.603H24.8883C25.5138 17.6039 26.1139 17.3554 26.5558 16.9128C26.9978 16.4705 27.2454 15.8699 27.2437 15.2445V8.87866V8.87887C27.2388 7.35453 26.6298 5.89423 25.5504 4.81794C24.4707 3.74164 23.0085 3.13732 21.4842 3.13732L21.484 3.13733ZM15.3699 15.3023C14.0633 15.3006 12.8109 14.7804 11.8877 13.8557C10.9647 12.931 10.4464 11.6778 10.4469 10.3712C10.4475 9.06466 10.9666 7.81184 11.8907 6.88798C12.8145 5.96396 14.0673 5.44484 15.3739 5.44419C16.6805 5.44377 17.9337 5.96182 18.8584 6.885C19.7831 7.80821 20.3032 9.0606 20.305 10.3672C20.3041 11.6758 19.7839 12.9306 18.8586 13.8559C17.9333 14.7812 16.6786 15.3013 15.3699 15.3022L15.3699 15.3023Z" fill="white"/>
<path d="M6.23039 16.6999C6.19614 16.697 6.16167 16.697 6.12721 16.6999H4.41151V14.972V14.869C4.38614 14.6461 4.27915 14.4404 4.11125 14.2915C3.94357 14.1427 3.72641 14.0612 3.50206 14.0625C3.27771 14.0612 3.06076 14.1427 2.89286 14.2915C2.72518 14.4404 2.61819 14.6461 2.59281 14.869V14.972V16.6877H0.870948H0.77093C0.482301 16.7323 0.232577 16.9126 0.0995922 17.1725C-0.0331974 17.4326 -0.0331974 17.7405 0.0995922 18.0006C0.232593 18.2604 0.482317 18.4408 0.77093 18.4854H0.870948H2.58984V20.2043V20.3043L2.58962 20.3041C2.63424 20.5927 2.8146 20.8425 3.07448 20.9754C3.33456 21.1082 3.64243 21.1082 3.90253 20.9754C4.1624 20.8424 4.34277 20.5927 4.38738 20.3041V20.2041V18.5066H6.20609C6.49472 18.4622 6.74444 18.2818 6.87721 18.0217C7.01021 17.7619 7.01021 17.4538 6.87721 17.1939C6.74442 16.9338 6.49469 16.7534 6.20609 16.709L6.23039 16.6999Z" fill="white"/>
</svg>
