<svg width="21" height="21" viewBox="0 0 21 21" fill="none" xmlns="http://www.w3.org/2000/svg">
<path fill-rule="evenodd" clip-rule="evenodd" d="M10.5016 0.392578C13.1749 0.392578 15.6872 1.43194 17.5742 3.31991C21.4749 7.22053 21.4749 13.5665 17.5742 17.4671C15.6621 19.3802 13.0874 20.3926 10.4792 20.3926C9.05746 20.3926 7.62636 20.092 6.28738 19.4723C5.89285 19.3141 5.52345 19.1653 5.25826 19.1653C4.95306 19.1671 4.54271 19.3086 4.14632 19.4453C3.33307 19.7245 2.32069 20.0725 1.57165 19.3262C0.825393 18.579 1.16967 17.5695 1.44696 16.7571C1.58374 16.357 1.72425 15.9439 1.72425 15.6312C1.72425 15.3744 1.60049 15.0469 1.41067 14.5751C-0.33214 10.8113 0.473667 6.27515 3.42984 3.32084C5.31688 1.43287 7.82828 0.392578 10.5016 0.392578ZM10.5025 1.78832C8.2014 1.78832 6.03987 2.68345 4.41616 4.30809C1.8722 6.85019 1.17991 10.7536 2.69196 14.0224C2.9097 14.5612 3.11999 15.086 3.11999 15.6312C3.11999 16.1756 2.93296 16.7236 2.76826 17.2075C2.63241 17.6058 2.42677 18.2069 2.5589 18.339C2.68824 18.473 3.29306 18.2618 3.69224 18.125C4.17144 17.9612 4.71485 17.7732 5.2536 17.7695C5.79329 17.7695 6.30227 17.9742 6.84102 18.191C10.1415 19.717 14.0449 19.0229 16.5879 16.4808C19.9433 13.1236 19.9433 7.66251 16.5879 4.30716C14.9633 2.68252 12.8027 1.78832 10.5025 1.78832ZM14.1751 9.84889C14.6887 9.84889 15.1056 10.2648 15.1056 10.7794C15.1056 11.2939 14.6887 11.7099 14.1751 11.7099C13.6614 11.7099 13.2409 11.2939 13.2409 10.7794C13.2409 10.2648 13.6531 9.84889 14.1667 9.84889H14.1751ZM10.4449 9.84889C10.9585 9.84889 11.3754 10.2648 11.3754 10.7794C11.3754 11.2939 10.9585 11.7099 10.4449 11.7099C9.93128 11.7099 9.5107 11.2939 9.5107 10.7794C9.5107 10.2648 9.92198 9.84889 10.4365 9.84889H10.4449ZM6.71438 9.84889C7.22802 9.84889 7.64488 10.2648 7.64488 10.7794C7.64488 11.2939 7.22802 11.7099 6.71438 11.7099C6.20075 11.7099 5.78017 11.2939 5.78017 10.7794C5.78017 10.2648 6.19238 9.84889 6.70601 9.84889H6.71438Z" fill="black"/>
</svg>
