<svg width="40" height="40" viewBox="0 0 40 40" fill="none" xmlns="http://www.w3.org/2000/svg">
<rect x="0.5" y="0.5" width="39" height="39" rx="19.5" fill="#F9F9F9"/>
<path d="M25.8984 10H20L18.2422 10.5859L16.4844 10H10.5859C10.2578 10 10 10.2578 10 10.5859V14.1016C10 14.4297 10.2578 14.6875 10.5859 14.6875H12.3438V24.6484C12.3438 24.9766 12.6015 25.2344 12.9297 25.2344H18.8281C19.1563 25.2344 19.4141 24.9766 19.4141 24.6484V20.5469H23.5547C23.8829 20.5469 24.1406 20.2891 24.1406 19.9609V14.6875H25.8984C26.2266 14.6875 26.4844 14.4297 26.4844 14.1016V10.5859C26.4844 10.2578 26.2266 10 25.8984 10Z" fill="url(#paint0_linear_914_13784)"/>
<path d="M20 11.1719V10H16.4844V11.1719C16.4844 12.1446 17.2695 12.9297 18.2422 12.9297C19.2149 12.9297 20 12.1446 20 11.1719ZM29.4141 19.375H18.8281C18.5043 19.375 18.2422 19.6371 18.2422 19.9609V29.4141C18.2422 29.7379 18.5043 30 18.8281 30H22.9688C23.2926 30 23.5547 29.7379 23.5547 29.4141V25.8203C23.5547 25.497 23.8179 25.2344 24.1406 25.2344C24.4634 25.2344 24.7266 25.497 24.7266 25.8203V29.4141C24.7266 29.7379 24.9886 30 25.3125 30H29.4141C29.7379 30 30 29.7379 30 29.4141V19.9609C30 19.6371 29.7379 19.375 29.4141 19.375Z" fill="url(#paint1_linear_914_13784)"/>
<rect x="0.5" y="0.5" width="39" height="39" rx="19.5" stroke="white"/>
<defs>
<linearGradient id="paint0_linear_914_13784" x1="18.2422" y1="25.2344" x2="18.2422" y2="10" gradientUnits="userSpaceOnUse">
<stop stop-color="#FD3A84"/>
<stop offset="1" stop-color="#FFA68D"/>
</linearGradient>
<linearGradient id="paint1_linear_914_13784" x1="23.2422" y1="30" x2="23.2422" y2="10" gradientUnits="userSpaceOnUse">
<stop stop-color="#FFC2CC"/>
<stop offset="1" stop-color="#FFF2F4"/>
</linearGradient>
</defs>
</svg>
