<svg width="24" height="24" viewBox="0 0 24 24" fill="none" xmlns="http://www.w3.org/2000/svg">
<g clip-path="url(#clip0_716_23885)">
<path fill-rule="evenodd" clip-rule="evenodd" d="M10.0958 0V4.8H10.9963V1.66968L12.9314 4.8H13.9042V0H13.0037V3.2052L11.039 0H10.0958ZM11.4326 6.40512L5.24785 23.1929C5.05033 23.73 5.64577 24.2124 6.13033 23.9076L12 20.2068L17.8692 23.9076C18.354 24.2131 18.9502 23.7305 18.7524 23.1929L12.5628 6.39288C12.4495 6.12984 12.2549 6.0012 11.9906 6.00048C11.7266 5.99976 11.5066 6.20592 11.4329 6.40512H11.4326ZM11.4 9.96432V19.1664L6.98401 21.9511L11.4 9.96432Z" fill="#34C27E"/>
</g>
<defs>
<clipPath id="clip0_716_23885">
<rect width="24" height="24" fill="white"/>
</clipPath>
</defs>
</svg>
