<svg width="25" height="21" viewBox="0 0 25 21" fill="none" xmlns="http://www.w3.org/2000/svg">
<path d="M20.6392 0H4.36066C3.20458 0.00155729 2.09633 0.461541 1.27897 1.27892C0.461601 2.0963 0.00178897 3.20453 0.000244141 4.36042V5.81396H25.0001L24.9999 4.36042C24.9984 3.20453 24.5386 2.09629 23.7212 1.27892C22.9038 0.461556 21.7956 0.00154483 20.6395 0H20.6392Z" fill="#978284"/>
<path d="M0 15.9884C0.000194649 17.1447 0.459792 18.2537 1.27738 19.0713C2.09514 19.889 3.20393 20.3484 4.36042 20.3488H20.639C21.7955 20.3485 22.9042 19.889 23.722 19.0713C24.5396 18.2537 24.9992 17.1447 24.9994 15.9884V7.55812H0V15.9884ZM4.36042 10.4649H10.1745H10.1743C10.4859 10.4649 10.7738 10.6311 10.9296 10.9009C11.0853 11.1707 11.0853 11.5032 10.9296 11.773C10.7738 12.0428 10.4859 12.2091 10.1743 12.2091H4.36072C4.04907 12.2091 3.76118 12.0428 3.60545 11.773C3.44972 11.5032 3.44972 11.1707 3.60545 10.9009C3.76118 10.6311 4.04908 10.4649 4.36072 10.4649H4.36042ZM4.36042 13.9532H7.84875C8.16021 13.9532 8.4481 14.1195 8.60383 14.3893C8.75975 14.6591 8.75975 14.9916 8.60383 15.2614C8.4481 15.5312 8.16019 15.6974 7.84875 15.6974H4.36042C4.04876 15.6974 3.76087 15.5312 3.60514 15.2614C3.44941 14.9916 3.44941 14.6591 3.60514 14.3893C3.76087 14.1195 4.04877 13.9532 4.36042 13.9532Z" fill="#978284"/>
</svg>
