<svg width="32" height="35" viewBox="0 0 32 35" fill="none" xmlns="http://www.w3.org/2000/svg">
<path d="M10.347 27.3801C10.2901 27.3752 10.2329 27.3752 10.1757 27.3801H7.32635V24.5104V24.3394C7.28421 23.9692 7.10652 23.6276 6.82769 23.3803C6.54922 23.1331 6.18857 22.9979 5.81598 23C5.4434 22.9979 5.08311 23.1331 4.80427 23.3803C4.5258 23.6276 4.34811 23.9692 4.30597 24.3394V24.5104V27.3597H1.44641H1.28031C0.800973 27.4338 0.386248 27.7333 0.165396 28.1649C-0.0551321 28.5968 -0.0551321 29.1081 0.165396 29.5401C0.386275 29.9716 0.801 30.2712 1.28031 30.3453H1.44641H4.30102V33.1999V33.366L4.30067 33.3656C4.37477 33.845 4.67431 34.2597 5.10589 34.4806C5.53782 34.7011 6.0491 34.7011 6.48106 34.4806C6.91264 34.2597 7.21218 33.845 7.28627 33.3656V33.1995V30.3804H10.3067C10.786 30.3067 11.2007 30.0072 11.4212 29.5752C11.6421 29.1436 11.6421 28.632 11.4212 28.2004C11.2007 27.7685 10.786 27.469 10.3067 27.3952L10.347 27.3801Z" fill="#978284"/>
<path d="M24.6722 34.9998H14.9182C14.0981 34.9998 13.3406 34.5624 12.9307 33.8524C12.5205 33.1424 12.5205 32.2675 12.9307 31.5575C13.3406 30.8475 14.0982 30.4101 14.9182 30.4101H24.6722C25.281 30.4101 25.8645 30.168 26.2952 29.7377C26.7254 29.3075 26.9672 28.7235 26.9672 28.1148V6.88525C26.9672 6.2765 26.7254 5.69293 26.2952 5.2623C25.8645 4.83205 25.281 4.59031 24.6722 4.59031H6.88533C6.27698 4.59031 5.69301 4.83205 5.26279 5.2623C4.83214 5.69294 4.5904 6.27648 4.5904 6.88525V17.7869C4.5904 18.607 4.15295 19.3645 3.44296 19.7748C2.73295 20.1846 1.85803 20.1846 1.14768 19.7748C0.437668 19.3646 0.000238419 18.607 0.000238419 17.7869V6.88525C0.000238419 5.05902 0.725853 3.30799 2.01704 2.0168C3.30823 0.725307 5.05956 0 6.88548 0H24.6724C26.4986 0 28.2496 0.725215 29.5408 2.0168C30.8323 3.30799 31.5576 5.05891 31.5576 6.88525V28.1148C31.5576 29.941 30.8324 31.692 29.5408 32.9836C28.2496 34.2748 26.4987 35 24.6724 35L24.6722 34.9998Z" fill="#978284"/>
<path d="M20.0828 14.9179H11.4762C10.6561 14.9179 9.89853 14.4805 9.4887 13.7705C9.07886 13.0605 9.07886 12.1855 9.4887 11.4756C9.89853 10.7656 10.6562 10.3282 11.4762 10.3282H20.0828C20.9028 10.3282 21.6604 10.7656 22.0703 11.4756C22.4805 12.1856 22.4805 13.0605 22.0703 13.7705C21.6604 14.4805 20.9027 14.9179 20.0828 14.9179Z" fill="#978284"/>
<path d="M20.0828 24.0982H11.4762C10.6561 24.0982 9.89853 23.6608 9.4887 22.9508C9.07886 22.2408 9.07886 21.3658 9.4887 20.6555C9.89853 19.9455 10.6562 19.5081 11.4762 19.5081H20.0828C20.9028 19.5081 21.6604 19.9455 22.0703 20.6555C22.4805 21.3659 22.4805 22.2408 22.0703 22.9508C21.6604 23.6608 20.9027 24.0982 20.0828 24.0982Z" fill="#978284"/>
</svg>
