<svg width="40" height="40" viewBox="0 0 40 40" fill="none" xmlns="http://www.w3.org/2000/svg">
<rect x="0.5" y="0.5" width="39" height="39" rx="19.5" fill="#F9F9F9"/>
<g clip-path="url(#clip0_914_13800)">
<path d="M27.0312 10H19.4141L17.0703 11.1719L14.7266 10H14.1406C13.1679 10 12.3828 10.7851 12.3828 11.7578V27.6562L27.6172 25.8984V10.5859C27.6172 10.2578 27.3594 10 27.0312 10Z" fill="url(#paint0_linear_914_13800)"/>
<path d="M15.0312 14.6172C15.2304 14.7226 15.4531 14.7109 15.6407 14.5937L17.0703 13.6328L18.5 14.5937C18.6988 14.704 18.8963 14.7235 19.1094 14.6172C19.2969 14.5117 19.4141 14.3125 19.4141 14.1016V10H14.7266V14.1016C14.7266 14.3125 14.8437 14.5117 15.0312 14.6172ZM15.3125 21.7188H24.6875C25.0114 21.7188 25.2734 21.4567 25.2734 21.1328V16.4453C25.2734 16.1214 25.0114 15.8594 24.6875 15.8594H15.3125C14.9886 15.8594 14.7266 16.1214 14.7266 16.4453V21.1328C14.7266 21.4567 14.9886 21.7188 15.3125 21.7188ZM17.6562 18.2031H21.1719C21.4957 18.2031 21.7578 18.4652 21.7578 18.7891C21.7578 19.1129 21.4957 19.375 21.1719 19.375H17.6562C17.3324 19.375 17.0703 19.1129 17.0703 18.7891C17.0703 18.4652 17.3324 18.2031 17.6562 18.2031ZM27.0312 28.8281C26.708 28.8281 26.4453 28.5655 26.4453 28.2422V27.0703C26.4453 26.747 26.708 26.4844 27.0312 26.4844C27.3551 26.4844 27.6172 26.2223 27.6172 25.8984C27.6172 25.5746 27.3551 25.3125 27.0312 25.3125H14.7266C13.4339 25.3125 12.3828 26.3636 12.3828 27.6562C12.3828 28.9489 13.4339 30 14.7266 30H27.0312C27.3551 30 27.6172 29.7379 27.6172 29.4141C27.6172 29.0902 27.3551 28.8281 27.0312 28.8281Z" fill="url(#paint1_linear_914_13800)"/>
</g>
<rect x="0.5" y="0.5" width="39" height="39" rx="19.5" stroke="white"/>
<defs>
<linearGradient id="paint0_linear_914_13800" x1="20" y1="27.6562" x2="20" y2="10" gradientUnits="userSpaceOnUse">
<stop stop-color="#5558FF"/>
<stop offset="1" stop-color="#00C0FF"/>
</linearGradient>
<linearGradient id="paint1_linear_914_13800" x1="20" y1="30" x2="20" y2="10" gradientUnits="userSpaceOnUse">
<stop stop-color="#ADDCFF"/>
<stop offset="0.5028" stop-color="#EAF6FF"/>
<stop offset="1" stop-color="#EAF6FF"/>
</linearGradient>
<clipPath id="clip0_914_13800">
<rect width="20" height="20" fill="white" transform="translate(10 10)"/>
</clipPath>
</defs>
</svg>
