<svg width="23" height="23" viewBox="0 0 23 23" fill="none" xmlns="http://www.w3.org/2000/svg">
<path d="M22.2943 3.75952L19.2184 0.683539C18.7834 0.248571 18.193 0 17.5716 0C16.9503 0 16.3599 0.248587 15.9249 0.683539L2.53379 14.0747C2.25421 14.3543 2.06783 14.696 1.9434 15.069L0.048135 21.5627C-0.0760506 21.9354 0.0481354 22.3394 0.327715 22.6502C0.54531 22.8678 0.824884 22.961 1.10446 22.961C1.19766 22.961 1.32206 22.961 1.41525 22.93L7.90887 21.0347C8.28165 20.9106 8.62343 20.724 8.90322 20.4444L22.2944 7.05321C22.7293 6.61825 22.9779 6.02791 22.9779 5.40651C22.9779 4.78472 22.7293 4.19433 22.2944 3.75935L22.2943 3.75952ZM3.68343 16.871L6.10689 19.2945L2.68908 20.2888L3.68343 16.871ZM20.7408 5.53051L18.6282 7.64315L15.3348 4.34979L17.4475 2.23715C17.4785 2.20616 17.5407 2.20616 17.5717 2.20616C17.6027 2.20616 17.6339 2.20616 17.6959 2.23715L20.7718 5.31313C20.8028 5.34412 20.8028 5.40632 20.8028 5.43731C20.803 5.46831 20.772 5.49952 20.7408 5.53051Z" fill="white"/>
</svg>
