<svg width="40" height="40" viewBox="0 0 40 40" fill="none" xmlns="http://www.w3.org/2000/svg">
<rect x="0.5" y="0.5" width="39" height="39" rx="19.5" fill="#F9F9F9"/>
<path d="M27.0703 25.8984H25.8984C25.2416 25.8984 24.7266 26.4134 24.7266 27.0703C24.7266 27.7272 25.2416 28.2422 25.8984 28.2422H27.0703C27.7272 28.2422 28.2422 27.7272 28.2422 27.0703C28.2422 26.4134 27.7272 25.8984 27.0703 25.8984ZM28.2422 10H11.7578C10.7851 10 10 10.7851 10 11.7578V22.3828C10 23.3555 10.7851 24.1406 11.7578 24.1406H18.8672L20.0391 25.3125L21.2109 24.1406H23.5547C23.8829 24.1406 24.1406 23.8829 24.1406 23.5547V20.0391C24.1406 19.7109 24.3984 19.4531 24.7266 19.4531H28.2422C28.5704 19.4531 28.8281 19.7109 28.8281 20.0391C28.8281 20.3672 29.0859 20.625 29.4141 20.625C29.7422 20.625 30 20.3672 30 20.0391V11.7578C30 10.7851 29.2149 10 28.2422 10ZM23.5547 27.6562H21.2109L20.0391 26.4844L18.8672 27.6562H16.5234C16.1953 27.6562 15.9375 27.914 15.9375 28.2422C15.9375 28.5704 16.1953 28.8281 16.5234 28.8281H23.5547C23.8829 28.8281 24.1406 28.5704 24.1406 28.2422C24.1406 27.914 23.8829 27.6562 23.5547 27.6562Z" fill="url(#paint0_linear_914_13768)"/>
<path d="M18.8672 27.6562H21.2109V24.1406H18.8672V27.6562ZM28.2422 18.2812H24.7266C23.7538 18.2812 22.9688 19.0664 22.9688 20.0391V28.2422C22.9688 29.2149 23.7538 30 24.7266 30H28.2422C29.2149 30 30 29.2149 30 28.2422V20.0391C30 19.0664 29.2149 18.2812 28.2422 18.2812ZM27.0703 27.6562H25.8984C25.5703 27.6562 25.3125 27.3985 25.3125 27.0703C25.3125 26.7421 25.5703 26.4844 25.8984 26.4844H27.0703C27.3985 26.4844 27.6562 26.7421 27.6562 27.0703C27.6562 27.3985 27.3985 27.6562 27.0703 27.6562Z" fill="url(#paint1_linear_914_13768)"/>
<rect x="0.5" y="0.5" width="39" height="39" rx="19.5" stroke="white"/>
<defs>
<linearGradient id="paint0_linear_914_13768" x1="20" y1="28.8281" x2="20" y2="10" gradientUnits="userSpaceOnUse">
<stop stop-color="#00B59C"/>
<stop offset="1" stop-color="#9CFFAC"/>
</linearGradient>
<linearGradient id="paint1_linear_914_13768" x1="24.4336" y1="30" x2="24.4336" y2="18.2812" gradientUnits="userSpaceOnUse">
<stop stop-color="#C3FFE8"/>
<stop offset="0.9973" stop-color="#F0FFF4"/>
</linearGradient>
</defs>
</svg>
