<svg width="40" height="40" viewBox="0 0 40 40" fill="none" xmlns="http://www.w3.org/2000/svg">
<rect width="40" height="40" rx="8" fill="#E8F3FA"/>
<path d="M29 24.0019V16.0019C28.9996 15.6511 28.9071 15.3067 28.7315 15.003C28.556 14.6994 28.3037 14.4472 28 14.2719L21 10.2719C20.696 10.0963 20.3511 10.0039 20 10.0039C19.6489 10.0039 19.304 10.0963 19 10.2719L12 14.2719C11.6963 14.4472 11.444 14.6994 11.2685 15.003C11.0929 15.3067 11.0004 15.6511 11 16.0019V24.0019C11.0004 24.3526 11.0929 24.697 11.2685 25.0007C11.444 25.3043 11.6963 25.5565 12 25.7319L19 29.7319C19.304 29.9074 19.6489 29.9998 20 29.9998C20.3511 29.9998 20.696 29.9074 21 29.7319L28 25.7319C28.3037 25.5565 28.556 25.3043 28.7315 25.0007C28.9071 24.697 28.9996 24.3526 29 24.0019Z" stroke="#469DDD" stroke-width="2" stroke-linecap="round" stroke-linejoin="round"/>
<path d="M11.27 14.9609L20 20.0109L28.73 14.9609" stroke="#469DDD" stroke-width="2" stroke-linecap="round" stroke-linejoin="round"/>
<path d="M20 30.08V20" stroke="#469DDD" stroke-width="2" stroke-linecap="round" stroke-linejoin="round"/>
</svg>
