<svg width="19" height="18" viewBox="0 0 19 18" fill="none" xmlns="http://www.w3.org/2000/svg">
<path d="M0.750032 3.49995H2.10655C2.32504 4.27302 2.87074 4.91163 3.6004 5.24786C4.32992 5.58394 5.17003 5.58394 5.89954 5.24786C6.62905 4.91163 7.1749 4.27302 7.39324 3.49995H17.7496C18.0176 3.49995 18.2653 3.35695 18.3992 3.12496C18.5332 2.89296 18.5332 2.60695 18.3992 2.37497C18.2653 2.14283 18.0176 1.99997 17.7496 1.99997H7.39324C7.1749 1.2269 6.62905 0.588294 5.89954 0.252062C5.17003 -0.0840208 4.32992 -0.0840208 3.6004 0.252062C2.87074 0.588291 2.32505 1.2269 2.10655 1.99997H0.750032C0.482039 1.99997 0.234367 2.14283 0.100499 2.37497C-0.0334996 2.60696 -0.0334996 2.89297 0.100499 3.12496C0.234352 3.35695 0.482035 3.49995 0.750032 3.49995ZM4.74973 1.50003C5.08131 1.50003 5.39926 1.6317 5.6337 1.86616C5.86802 2.10048 5.99969 2.4184 5.99969 2.74998C5.99969 3.08142 5.86802 3.39937 5.6337 3.6338C5.39924 3.86826 5.08132 3.99994 4.74973 3.99994C4.41829 3.99994 4.10035 3.86826 3.86591 3.6338C3.63145 3.39949 3.49978 3.08157 3.49978 2.74998C3.50021 2.41855 3.63203 2.1009 3.86634 1.86646C4.10066 1.63214 4.41832 1.50032 4.74976 1.50003L4.74973 1.50003Z" fill="#978284"/>
<path d="M17.7499 8.25001H15.8934C15.6749 7.47694 15.1292 6.83833 14.3996 6.5021C13.67 6.16602 12.8299 6.16602 12.1004 6.5021C11.3709 6.83833 10.8251 7.47694 10.6066 8.25001H0.750032C0.482039 8.25001 0.234367 8.39301 0.100499 8.625C-0.0334996 8.857 -0.0334996 9.14301 0.100499 9.37499C0.234352 9.60699 0.482035 9.74999 0.750032 9.74999H10.6066C10.8251 10.5231 11.3709 11.1617 12.1004 11.4979C12.8299 11.834 13.67 11.834 14.3996 11.4979C15.1292 11.1617 15.6749 10.5231 15.8934 9.74999H17.7499C18.0179 9.74999 18.2656 9.60699 18.3994 9.37499C18.5334 9.143 18.5334 8.85699 18.3994 8.625C18.2656 8.39301 18.0179 8.25001 17.7499 8.25001ZM13.25 10.2499H13.2501C12.9185 10.2499 12.6006 10.1183 12.3661 9.8838C12.1318 9.64948 12 9.33156 12 8.99998C12 8.66839 12.1318 8.35044 12.3661 8.11616C12.6006 7.8817 12.9185 7.75002 13.2501 7.75002C13.5815 7.75002 13.8995 7.8817 14.1339 8.11616C14.3684 8.35047 14.5001 8.66839 14.5001 8.99998C14.4996 9.33141 14.3678 9.64906 14.1335 9.88339C13.8992 10.1178 13.5814 10.2497 13.2501 10.25L13.25 10.2499Z" fill="#978284"/>
<path d="M17.7499 14.5001H7.39349C7.17514 13.727 6.6293 13.0884 5.89979 12.7521C5.17028 12.4161 4.33016 12.4161 3.60065 12.7521C2.87099 13.0884 2.32529 13.727 2.1068 14.5001H0.750276C0.482283 14.5001 0.234611 14.6431 0.100743 14.875C-0.0332555 15.107 -0.0332555 15.3931 0.100743 15.625C0.234597 15.8572 0.482279 16 0.750276 16H2.1068C2.32529 16.7731 2.87099 17.4117 3.60065 17.7479C4.33016 18.084 5.17028 18.084 5.89979 17.7479C6.6293 17.4117 7.17514 16.7731 7.39349 16H17.7499C18.0179 16 18.2656 15.8572 18.3994 15.625C18.5334 15.393 18.5334 15.107 18.3994 14.875C18.2656 14.6431 18.0179 14.5001 17.7499 14.5001ZM4.74994 16.5C4.4185 16.5 4.10055 16.3683 3.86612 16.1338C3.63166 15.8995 3.49998 15.5816 3.49998 15.25C3.49998 14.9186 3.63166 14.6006 3.86612 14.3662C4.10058 14.1317 4.4185 14.0001 4.74994 14.0001C5.08152 14.0001 5.39947 14.1317 5.63391 14.3662C5.86822 14.6007 5.9999 14.9186 5.9999 15.25C5.99961 15.5815 5.86779 15.8991 5.63347 16.1335C5.39901 16.3679 5.08139 16.4997 4.74995 16.5L4.74994 16.5Z" fill="#978284"/>
</svg>
