<svg width="15" height="15" viewBox="0 0 15 15" fill="none" xmlns="http://www.w3.org/2000/svg">
<path d="M6.70835 11.8529H1.16669" stroke="#242424" stroke-width="1.5" stroke-linecap="round" stroke-linejoin="round"/>
<path fill-rule="evenodd" clip-rule="evenodd" d="M13.8333 11.8542C13.8333 12.9472 12.9472 13.8333 11.8542 13.8333C10.7611 13.8333 9.875 12.9472 9.875 11.8542C9.875 10.7603 10.7611 9.875 11.8542 9.875C12.9472 9.875 13.8333 10.7603 13.8333 11.8542Z" stroke="#242424" stroke-width="1.5" stroke-linecap="round" stroke-linejoin="round"/>
<path d="M8.29169 3.14583H13.8334" stroke="#242424" stroke-width="1.5" stroke-linecap="round" stroke-linejoin="round"/>
<path fill-rule="evenodd" clip-rule="evenodd" d="M1.16669 3.14518C1.16669 4.23906 2.05278 5.12435 3.14585 5.12435C4.23892 5.12435 5.12502 4.23906 5.12502 3.14518C5.12502 2.05211 4.23892 1.16602 3.14585 1.16602C2.05278 1.16602 1.16669 2.05211 1.16669 3.14518Z" stroke="#242424" stroke-width="1.5" stroke-linecap="round" stroke-linejoin="round"/>
</svg>
