<svg width="30" height="30" viewBox="0 0 30 30" fill="none" xmlns="http://www.w3.org/2000/svg">
<path d="M13.75 2.5L22.8725 5.35C23.1269 5.42943 23.3493 5.5881 23.5072 5.80286C23.665 6.01762 23.7501 6.27721 23.75 6.54375V8.75H26.25C26.5815 8.75 26.8995 8.8817 27.1339 9.11612C27.3683 9.35054 27.5 9.66848 27.5 10V20C27.5 20.3315 27.3683 20.6495 27.1339 20.8839C26.8995 21.1183 26.5815 21.25 26.25 21.25L22.225 21.2512C21.7413 21.8888 21.1537 22.4513 20.475 22.9137L13.75 27.5L7.025 22.915C6.01565 22.2268 5.18969 21.3025 4.61892 20.2224C4.04816 19.1423 3.74987 17.9391 3.75 16.7175V6.54375C3.75015 6.27743 3.83536 6.01811 3.9932 5.80361C4.15105 5.5891 4.37328 5.43061 4.6275 5.35125L13.75 2.5ZM13.75 5.1175L6.25 7.4625V16.7175C6.24982 17.4828 6.42531 18.2379 6.76296 18.9247C7.1006 19.6114 7.59138 20.2115 8.1975 20.6787L8.43375 20.8488L13.75 24.475L18.4775 21.25H12.5C12.1685 21.25 11.8505 21.1183 11.6161 20.8839C11.3817 20.6495 11.25 20.3315 11.25 20V10C11.25 9.66848 11.3817 9.35054 11.6161 9.11612C11.8505 8.8817 12.1685 8.75 12.5 8.75H21.25V7.4625L13.75 5.1175ZM13.75 15V18.75H25V15H13.75ZM13.75 12.5H25V11.25H13.75V12.5Z" fill="#469DDD"/>
</svg>
