<svg width="40" height="40" viewBox="0 0 40 40" fill="none" xmlns="http://www.w3.org/2000/svg">
<rect x="0.5" y="0.5" width="39" height="39" rx="19.5" fill="#F9F9F9"/>
<path d="M25.9385 16.55C25.3801 15.7695 24.508 15.3124 23.5547 15.3124C22.6015 15.3124 21.7294 15.7695 21.171 16.55C19.5047 16.8459 18.2813 18.2815 18.2813 19.9999C18.2813 20.7558 18.5239 21.4842 18.9817 22.1056C19.0915 22.2549 19.2667 22.3436 19.4532 22.3436H27.6563C27.8428 22.3436 28.018 22.2549 28.1278 22.1056C28.5856 21.4842 28.8282 20.7558 28.8282 19.9999C28.8282 18.2815 27.6048 16.8459 25.9385 16.55ZM13.5845 14.9988C13.3556 14.7699 12.9848 14.7699 12.756 14.9988C11.6115 16.1408 11.6097 17.9977 12.756 19.1416C13.8979 20.2847 15.7502 20.2889 16.8987 19.1416C17.1276 18.9127 17.1276 18.5419 16.8987 18.313L13.5845 14.9988Z" fill="url(#paint0_linear_914_13816)"/>
<path d="M29.4141 21.1719H24.9692L26.3127 19.8283C26.5416 19.5995 26.5416 19.2286 26.3127 18.9998C26.0839 18.7709 25.713 18.7709 25.4842 18.9998L24.1406 20.3433V18.2422C24.1406 17.9183 23.8786 17.6562 23.5547 17.6562C23.2308 17.6562 22.9688 17.9183 22.9688 18.2422V20.3433L21.6252 18.9998C21.3963 18.7709 21.0255 18.7709 20.7966 18.9998C20.5678 19.2286 20.5678 19.5995 20.7966 19.8283L22.1402 21.1719H10.5859C10.2621 21.1719 10 21.4339 10 21.7578C10 24.652 11.9443 27.1875 14.6875 27.9605V28.7891C14.6875 29.1129 14.9496 29.375 15.2734 29.375H24.7266C25.0504 29.375 25.3125 29.1129 25.3125 28.7891V27.9605C28.0557 27.1875 30 24.652 30 21.7578C30 21.4339 29.7379 21.1719 29.4141 21.1719ZM16.4844 15.3125H17.0703V15.8984C17.0703 16.2223 17.3324 16.4844 17.6562 16.4844C17.9801 16.4844 18.2422 16.2223 18.2422 15.8984V15.3125H18.8281C19.7974 15.3125 20.5859 14.524 20.5859 13.5547C20.5859 12.7628 20.0595 12.0916 19.3385 11.8724C19.1188 11.1514 18.4482 10.625 17.6562 10.625C16.8643 10.625 16.1937 11.1514 15.974 11.8724C15.253 12.0916 14.7266 12.7628 14.7266 13.5547C14.7266 14.524 15.5151 15.3125 16.4844 15.3125Z" fill="url(#paint1_linear_914_13816)"/>
<rect x="0.5" y="0.5" width="39" height="39" rx="19.5" stroke="white"/>
<defs>
<linearGradient id="paint0_linear_914_13816" x1="20.3626" y1="22.3436" x2="20.3626" y2="14.8271" gradientUnits="userSpaceOnUse">
<stop stop-color="#FFC2CC"/>
<stop offset="1" stop-color="#FFF2F4"/>
</linearGradient>
<linearGradient id="paint1_linear_914_13816" x1="20" y1="29.375" x2="20" y2="10.625" gradientUnits="userSpaceOnUse">
<stop stop-color="#FD3A84"/>
<stop offset="1" stop-color="#FFA68D"/>
</linearGradient>
</defs>
</svg>
