<svg width="24" height="24" viewBox="0 0 24 24" fill="none" xmlns="http://www.w3.org/2000/svg">
<path fill-rule="evenodd" clip-rule="evenodd" d="M11.7 0C5.2377 0 0 5.373 0 12C0 18.627 5.2377 24 11.7 24C18.1613 24 23.4 18.627 23.4 12C23.4 5.373 18.1613 0 11.7 0ZM11.8365 19.018C8.0652 19.018 5.0115 15.878 5.0115 12C5.0115 8.122 8.0652 4.982 11.8365 4.982C13.6792 4.982 15.2197 5.679 16.4014 6.811L14.4768 8.789V8.785C13.7602 8.083 12.8515 7.723 11.8365 7.723C9.58425 7.723 7.75417 9.679 7.75417 11.996C7.75417 14.311 9.58425 16.273 11.8365 16.273C13.8801 16.273 15.2704 15.071 15.5571 13.421H11.8365V10.684H18.2569C18.3427 11.154 18.3885 11.644 18.3885 12.158C18.3885 16.168 15.7784 19.018 11.8365 19.018Z" fill="white"/>
</svg>
