<svg width="21" height="20" viewBox="0 0 21 20" fill="none" xmlns="http://www.w3.org/2000/svg">
<path d="M3 15V10C3 8.01088 3.79018 6.10322 5.1967 4.6967C6.60322 3.29018 8.51088 2.5 10.5 2.5C12.4891 2.5 14.3968 3.29018 15.8033 4.6967C17.2098 6.10322 18 8.01088 18 10V15" stroke="#469DDD" stroke-width="2" stroke-linecap="round" stroke-linejoin="round"/>
<path d="M18 15.8337C18 16.2757 17.8244 16.6996 17.5118 17.0122C17.1993 17.3247 16.7754 17.5003 16.3333 17.5003H15.5C15.058 17.5003 14.634 17.3247 14.3215 17.0122C14.0089 16.6996 13.8333 16.2757 13.8333 15.8337V13.3337C13.8333 12.8916 14.0089 12.4677 14.3215 12.1551C14.634 11.8426 15.058 11.667 15.5 11.667H18V15.8337ZM3 15.8337C3 16.2757 3.17559 16.6996 3.48816 17.0122C3.80072 17.3247 4.22464 17.5003 4.66667 17.5003H5.5C5.94203 17.5003 6.36595 17.3247 6.67851 17.0122C6.99107 16.6996 7.16667 16.2757 7.16667 15.8337V13.3337C7.16667 12.8916 6.99107 12.4677 6.67851 12.1551C6.36595 11.8426 5.94203 11.667 5.5 11.667H3V15.8337Z" stroke="#469DDD" stroke-width="2" stroke-linecap="round" stroke-linejoin="round"/>
</svg>
