<svg width="144" height="155" viewBox="0 0 144 155" fill="none" xmlns="http://www.w3.org/2000/svg">
<path d="M162.769 151.782C162.654 152.412 162.374 153 161.957 153.487C161.541 153.973 161.002 154.341 160.397 154.551C159.792 154.761 159.142 154.808 158.514 154.685C157.885 154.562 157.3 154.275 156.819 153.852C149.049 147.032 134.109 133.162 129.539 123.652C122.719 109.452 124.219 102.652 125.539 99.1519C127.531 94.1826 131.354 90.1668 136.219 87.9319C145.659 83.8719 156.469 88.6119 161.949 95.0919C165.599 99.4019 166.739 104.292 167.479 111.312C168.359 119.582 164.729 141.122 162.769 151.782Z" fill="#C0969A"/>
<path d="M77.789 149.732C77.2958 150.141 76.7028 150.412 76.0707 150.517C75.4385 150.622 74.7898 150.557 74.1908 150.33C73.5918 150.102 73.0641 149.719 72.6614 149.22C72.2588 148.722 71.9957 148.125 71.899 147.492C70.339 137.272 67.799 117.052 70.419 106.822C74.329 91.552 79.859 87.302 83.129 85.502C87.8387 82.9703 93.3407 82.3438 98.499 83.752C108.349 86.702 113.579 97.282 113.619 105.752C113.619 111.402 111.369 115.882 107.419 121.752C102.769 128.662 86.139 142.822 77.789 149.732Z" fill="#C0969A"/>
<path d="M14.0089 93.5419C13.3683 93.5357 12.7408 93.3601 12.19 93.0329C11.6392 92.7057 11.1848 92.2385 10.873 91.6789C10.5612 91.1193 10.4031 90.4871 10.4147 89.8466C10.4262 89.206 10.6071 88.58 10.9389 88.032C16.3089 79.202 27.3689 62.032 35.9389 55.932C48.7389 46.742 55.7189 47.0319 59.3789 47.7619C64.6138 48.8582 69.2299 51.9177 72.2789 56.312C77.9289 64.892 75.1289 76.362 69.7089 82.882C66.0989 87.232 61.4689 89.202 54.7089 91.152C46.6889 93.452 24.8589 93.6119 14.0089 93.5419Z" fill="#C0969A"/>
<path d="M1.27904 9.49194C0.790244 9.07755 0.420206 8.54082 0.206741 7.9366C-0.0067246 7.33238 -0.0559574 6.68234 0.0640405 6.05286C0.184038 5.42338 0.468974 4.83704 0.889755 4.35373C1.31054 3.87042 1.85206 3.50746 2.45903 3.30194C12.249 -0.00805807 31.729 -6.01805 42.259 -5.21805C57.969 -4.01805 63.119 0.681951 65.459 3.59195C66.129 4.43195 70.7991 10.4119 69.8591 18.4319C68.6591 28.6419 59.1491 35.6319 50.7991 37.1419C45.2391 38.1419 40.4291 36.6819 33.979 33.812C26.369 30.4319 9.53904 16.5219 1.27904 9.49194Z" fill="#C0969A"/>
<path d="M181.499 107.012C181.634 107.624 181.604 108.26 181.413 108.856C181.221 109.453 180.875 109.988 180.409 110.407C179.944 110.826 179.375 111.113 178.762 111.241C178.149 111.368 177.513 111.331 176.919 111.132C167.349 107.922 148.639 101.072 140.919 94.2319C129.409 84.0019 128.179 77.3019 128.079 73.6519C127.998 68.4278 129.915 63.37 133.439 59.5119C140.439 52.2819 151.939 52.4619 159.329 56.2319C164.249 58.7319 167.119 62.7119 170.449 68.7619C174.369 75.9319 179.229 96.6719 181.499 107.012Z" fill="#CDABAE"/>
<path d="M120.919 127.482C120.629 128.038 120.197 128.507 119.667 128.841C119.136 129.175 118.527 129.363 117.9 129.384C117.274 129.405 116.653 129.26 116.101 128.963C115.549 128.665 115.086 128.227 114.759 127.692C109.489 119.072 99.5588 101.802 98.0488 91.602C95.7988 76.372 99.1788 70.442 101.439 67.602C104.734 63.5435 109.457 60.8994 114.639 60.2119C124.639 59.1519 133.339 66.7119 136.579 74.3419C138.739 79.4219 138.379 84.3419 137.039 91.0819C135.459 99.0519 125.829 118.092 120.919 127.482Z" fill="#CDABAE"/>
<path d="M61.3592 104.212C60.78 104.451 60.1478 104.532 59.5271 104.446C58.9065 104.361 58.3196 104.112 57.8265 103.726C57.3333 103.339 56.9515 102.829 56.7201 102.247C56.4887 101.665 56.4159 101.031 56.5092 100.412C57.9992 90.412 61.5092 70.812 66.8992 62.0319C74.9692 48.912 81.3592 46.5419 84.8992 45.8119C90.0309 44.8204 95.3476 45.8293 99.7592 48.632C108.089 54.242 109.899 65.6319 107.479 73.5619C105.869 78.8419 102.479 82.3619 97.0692 86.6819C90.7692 91.7819 71.1492 100.182 61.3592 104.212Z" fill="#CDABAE"/>
<path d="M30.679 48.102C30.0878 47.9096 29.5578 47.565 29.1421 47.1027C28.7264 46.6405 28.4398 46.0769 28.3111 45.4687C28.1824 44.8606 28.2161 44.2292 28.4088 43.6382C28.6015 43.0472 28.9465 42.5173 29.409 42.102C36.979 35.422 52.259 22.642 62.049 19.382C76.659 14.522 83.049 16.8119 86.289 18.5519C90.8568 21.0906 94.2807 25.2801 95.859 30.2619C98.629 39.9119 92.709 49.802 85.749 54.322C81.129 57.322 76.239 57.8319 69.349 57.6819C61.209 57.4819 40.779 51.312 30.679 48.102Z" fill="#CDABAE"/>
<path d="M43.2487 -14.5981C42.9145 -15.1269 42.7264 -15.7348 42.7035 -16.36C42.6807 -16.9851 42.8239 -17.6052 43.1186 -18.157C43.4133 -18.7088 43.849 -19.1726 44.3812 -19.5013C44.9135 -19.83 45.5233 -20.0117 46.1487 -20.0281C56.2487 -20.2881 76.1487 -20.2581 85.7587 -16.4581C100.079 -10.7881 103.519 -4.90807 104.859 -1.51807C106.735 3.36424 106.663 8.78091 104.659 13.6119C100.589 22.7819 89.6587 26.5519 81.4587 25.5419C75.9787 24.8719 71.9187 22.1119 66.7287 17.5419C60.6287 12.2119 48.9287 -5.64808 43.2487 -14.5981Z" fill="#CDABAE"/>
<path d="M93.1795 -54.548C93.2647 -55.1681 93.5125 -55.7547 93.8975 -56.2482C94.2825 -56.7417 94.7912 -57.1246 95.372 -57.3581C95.9527 -57.5916 96.5849 -57.6674 97.2044 -57.5778C97.8239 -57.4883 98.4086 -57.2365 98.8995 -56.848C106.799 -50.558 122.039 -37.7281 126.899 -28.6481C134.229 -15.1081 133.089 -8.38806 131.899 -4.91806C130.194 0.0201874 126.662 4.11764 122.029 6.53196C113.029 10.942 102.239 6.82195 96.5795 0.761951C92.8095 -3.23805 91.4795 -7.99805 90.4195 -14.8181C89.2495 -22.8581 91.7795 -44.068 93.1795 -54.548Z" fill="#CDABAE"/>
<path d="M157.109 -53.0681C157.573 -53.4882 158.139 -53.7783 158.751 -53.9091C159.363 -54.0399 159.998 -54.0067 160.593 -53.8128C161.188 -53.6189 161.721 -53.2713 162.138 -52.8051C162.555 -52.3389 162.842 -51.7707 162.969 -51.1581C164.969 -41.2581 168.399 -21.6281 166.329 -11.5281C163.239 3.55193 158.039 7.97194 154.929 9.88194C150.447 12.5723 145.103 13.442 139.999 12.312C130.259 9.89195 124.649 -0.188053 124.219 -8.46805C123.929 -13.9781 125.939 -18.468 129.509 -24.358C133.729 -31.308 149.289 -45.9181 157.109 -53.0681Z" fill="#CDABAE"/>
<path d="M143.899 95.7519C143.75 96.3208 143.454 96.8402 143.039 97.2574C142.625 97.6745 142.108 97.9745 141.54 98.1269C140.972 98.2793 140.374 98.2786 139.806 98.1249C139.239 97.9712 138.722 97.67 138.309 97.2519C131.659 90.4919 118.899 76.7919 115.309 67.7819C110.009 54.3219 111.839 48.1819 113.309 45.0819C115.459 40.6674 119.221 37.2457 123.819 35.5219C132.729 32.4219 142.309 37.5219 146.899 43.7819C149.949 47.9719 150.669 52.5319 150.899 59.0019C151.159 66.6419 146.399 86.1119 143.899 95.7519Z" fill="#D9C0C2"/>
<path d="M99.3588 94.6819C98.8789 95.0233 98.317 95.2314 97.7305 95.2848C97.144 95.3383 96.5538 95.2352 96.0201 94.9862C95.4864 94.7371 95.0284 94.351 94.6926 93.8671C94.3568 93.3833 94.1554 92.819 94.1088 92.2319C93.3588 82.7819 92.3888 64.0919 95.4588 54.9019C100.049 41.1819 105.399 37.6519 108.519 36.2219C113.002 34.2243 118.08 34.0203 122.709 35.6519C131.529 39.0019 135.609 49.0419 135.079 56.8119C134.729 61.9819 132.349 65.9419 128.349 71.0319C123.629 77.0519 107.459 88.9319 99.3588 94.6819Z" fill="#D9C0C2"/>
<path d="M65.9192 65.2319C65.3321 65.1854 64.7679 64.9839 64.284 64.6481C63.8002 64.3124 63.414 63.8543 63.165 63.3206C62.9159 62.7869 62.8128 62.1967 62.8663 61.6102C62.9197 61.0237 63.1278 60.4618 63.4692 59.9819C68.9792 52.2519 80.2392 37.312 88.4692 32.252C100.799 24.692 107.169 25.4319 110.469 26.3319C115.193 27.6826 119.219 30.7926 121.719 35.0219C126.309 43.2519 122.989 53.5719 117.589 59.1819C113.989 62.922 109.589 64.4119 103.289 65.7419C95.8492 67.3219 75.8392 66.0119 65.9192 65.2319Z" fill="#D9C0C2"/>
<path d="M59.2387 21.172C58.8206 20.7586 58.5195 20.2419 58.3658 19.6744C58.2121 19.1069 58.2114 18.5088 58.3638 17.9409C58.5161 17.3731 58.8162 16.8557 59.2333 16.4413C59.6505 16.027 60.1699 15.7305 60.7387 15.582C69.9187 13.202 88.1587 8.99196 97.7387 10.432C112.039 12.572 116.449 17.2219 118.399 20.0419C121.138 24.1144 122.211 29.0819 121.399 33.922C119.619 43.182 110.449 48.922 102.709 49.782C97.5487 50.332 93.2487 48.672 87.5287 45.612C80.8187 42.012 66.3287 28.152 59.2387 21.172Z" fill="#D9C0C2"/>
<path d="M82.439 -16.868C82.381 -17.4542 82.4801 -18.0453 82.726 -18.5806C82.9718 -19.1159 83.3557 -19.5761 83.8382 -19.914C84.3207 -20.252 84.8844 -20.4554 85.4715 -20.5036C86.0585 -20.5518 86.6479 -20.4428 87.179 -20.188C95.749 -16.118 112.419 -7.60803 118.839 -0.358028C128.419 10.482 128.839 16.8719 128.489 20.292C127.972 25.1731 125.612 29.6728 121.889 32.872C114.569 38.822 103.839 37.342 97.369 33.002C93.069 30.112 90.839 26.072 88.429 20.062C85.629 12.932 83.389 -6.96804 82.439 -16.868Z" fill="#D9C0C2"/>
<path d="M124.629 -31.0681C124.962 -31.5532 125.417 -31.9414 125.949 -32.1928C126.48 -32.4443 127.069 -32.55 127.655 -32.4991C128.241 -32.4482 128.803 -32.2426 129.283 -31.9033C129.764 -31.5641 130.145 -31.1032 130.389 -30.5681C134.329 -21.9381 141.639 -4.70805 141.889 4.98195C142.269 19.442 138.449 24.5819 136.009 26.9819C132.481 30.3957 127.778 32.3282 122.869 32.382C113.439 32.242 106.169 24.212 104.009 16.722C102.569 11.722 103.459 7.21194 105.469 1.05194C107.889 -6.22806 119.019 -22.8981 124.629 -31.0681Z" fill="#D9C0C2"/>
<path d="M166.159 -14.8581C166.726 -15.0162 167.325 -15.0208 167.894 -14.8714C168.463 -14.722 168.982 -14.4239 169.399 -14.0078C169.815 -13.5916 170.113 -13.0723 170.262 -12.503C170.412 -11.9337 170.407 -11.335 170.249 -10.7681C167.719 -1.61807 162.249 16.2319 156.249 23.8519C147.249 35.1719 141.019 36.6619 137.599 36.9419C132.699 37.2848 127.855 35.7391 124.059 32.6219C116.929 26.4519 116.519 15.6219 119.679 8.51193C121.779 3.77193 125.369 0.871935 130.869 -2.54807C137.319 -6.58807 156.569 -12.2081 166.159 -14.8581Z" fill="#D9C0C2"/>
<path d="M187.509 24.252C188.044 24.4973 188.504 24.8801 188.843 25.3613C189.182 25.8425 189.387 26.405 189.438 26.9914C189.489 27.5778 189.384 28.1672 189.132 28.6996C188.881 29.2319 188.494 29.6882 188.009 30.0219C180.199 35.4019 164.499 45.582 155.009 47.5219C140.839 50.402 135.109 47.5219 132.309 45.5219C128.338 42.6395 125.621 38.3452 124.719 33.5219C123.219 24.2119 129.859 15.6619 136.859 12.2319C141.519 9.95194 146.129 10.0419 152.539 10.9519C160.099 12.0519 178.449 20.122 187.509 24.252Z" fill="#D9C0C2"/>
<path d="M178.709 67.9319C178.963 68.4622 179.072 69.0505 179.024 69.6366C178.976 70.2228 178.774 70.7857 178.437 71.2678C178.1 71.75 177.642 72.1341 177.108 72.3808C176.574 72.6275 175.984 72.7279 175.399 72.6719C165.949 71.7719 147.399 69.4819 138.859 64.8519C126.149 57.9519 123.599 52.0719 122.739 48.7619C121.547 44.0028 122.223 38.9679 124.629 34.6919C129.469 26.5919 140.059 24.3119 147.629 26.1819C152.629 27.4219 156.149 30.4619 160.469 35.2819C165.559 40.9319 174.439 58.9319 178.709 67.9319Z" fill="#D9C0C2"/>
<path d="M147.779 61.5819C147.834 61.8385 147.82 62.105 147.738 62.3543C147.657 62.6037 147.51 62.8267 147.314 63.0007C147.117 63.1747 146.878 63.2934 146.621 63.3446C146.363 63.3957 146.097 63.3776 145.849 63.2919C141.849 61.9219 134.089 59.012 130.849 56.132C126.069 51.842 125.579 49.0419 125.549 47.5219C125.53 45.3396 126.345 43.2323 127.829 41.632C130.749 38.632 135.559 38.752 138.629 40.342C140.629 41.402 141.859 43.072 143.229 45.602C144.889 48.582 146.859 57.2619 147.779 61.5819Z" fill="#E6D5D7"/>
<path d="M124.289 71.0019C124.166 71.2321 123.984 71.4256 123.762 71.5629C123.54 71.7001 123.285 71.7761 123.024 71.7832C122.763 71.7903 122.505 71.7283 122.276 71.6034C122.047 71.4784 121.855 71.2951 121.719 71.072C119.539 67.462 115.449 60.2319 114.849 55.9719C113.949 49.6119 115.379 47.1519 116.329 45.9719C117.723 44.3039 119.701 43.2308 121.859 42.9719C126.019 42.5519 129.639 45.7319 130.969 48.9219C131.849 51.0419 131.689 53.0919 131.109 55.9219C130.429 59.1819 126.359 67.1019 124.289 71.0019Z" fill="#E6D5D7"/>
<path d="M100.239 63.1119C99.9974 63.206 99.7352 63.2348 99.4788 63.1956C99.2223 63.1563 98.9807 63.0504 98.7781 62.8883C98.5755 62.7262 98.4191 62.5138 98.3245 62.2722C98.2299 62.0306 98.2005 61.7684 98.2392 61.5119C98.8892 57.3519 100.399 49.1819 102.679 45.5119C106.079 40.0619 108.759 39.0919 110.249 38.8019C112.393 38.3973 114.61 38.8343 116.439 40.0219C119.899 42.3819 120.619 47.1319 119.589 50.4319C118.899 52.6319 117.469 54.0919 115.209 55.8819C112.539 58.0119 104.339 61.4519 100.239 63.1119Z" fill="#E6D5D7"/>
<path d="M86.8893 41.612C86.6414 41.5301 86.4195 41.3842 86.2461 41.1889C86.0728 40.9936 85.9542 40.756 85.9025 40.5001C85.8507 40.2442 85.8675 39.9791 85.9512 39.7318C86.035 39.4845 86.1827 39.2638 86.3793 39.092C89.5493 36.322 95.9593 31.042 100.049 29.712C106.159 27.712 108.829 28.712 110.169 29.432C112.065 30.5037 113.479 32.2606 114.119 34.342C115.259 38.342 112.749 42.482 109.839 44.342C107.899 45.582 105.839 45.772 102.989 45.692C99.6293 45.612 91.0893 42.932 86.8893 41.612Z" fill="#E6D5D7"/>
<path d="M90.4792 16.562C90.3414 16.3398 90.2649 16.0851 90.2574 15.8238C90.25 15.5625 90.3119 15.3038 90.4369 15.0742C90.5619 14.8446 90.7454 14.6522 90.9689 14.5165C91.1924 14.3809 91.4478 14.3068 91.7092 14.302C95.9192 14.222 104.229 14.302 108.219 15.902C114.219 18.302 115.589 20.772 116.139 22.192C116.907 24.23 116.864 26.4847 116.019 28.492C114.289 32.312 109.739 33.852 106.309 33.412C104.019 33.112 102.309 31.9519 100.189 30.0419C97.6292 27.7919 92.8292 20.302 90.4792 16.562Z" fill="#E6D5D7"/>
<path d="M109.339 -0.318038C109.375 -0.576734 109.479 -0.8212 109.641 -1.02661C109.802 -1.23202 110.015 -1.39105 110.258 -1.48755C110.5 -1.58404 110.764 -1.61457 111.023 -1.57602C111.281 -1.53746 111.525 -1.4312 111.729 -1.26803C115.009 1.38197 121.329 6.73196 123.349 10.572C126.349 16.242 125.869 19.0419 125.349 20.4819C124.625 22.5384 123.139 24.2387 121.199 25.2319C117.419 27.0519 112.939 25.3019 110.599 22.7619C109.039 21.0619 108.489 19.092 108.069 16.242C107.629 12.932 108.719 4.05196 109.339 -0.318038Z" fill="#E6D5D7"/>
<path d="M134.629 -1.12805C134.822 -1.30566 135.059 -1.42839 135.315 -1.48349C135.572 -1.5386 135.838 -1.52408 136.087 -1.44144C136.336 -1.35879 136.559 -1.21104 136.731 -1.01351C136.904 -0.815971 137.02 -0.575846 137.069 -0.318056C137.879 3.81194 139.249 12.012 138.359 16.222C137.029 22.502 134.849 24.3319 133.539 25.1119C131.667 26.2323 129.437 26.5903 127.309 26.1119C123.249 25.1119 120.949 20.8519 120.789 17.3919C120.679 15.0919 121.529 13.232 123.039 10.782C124.819 7.87195 131.349 1.82195 134.629 -1.12805Z" fill="#E6D5D7"/>
<path d="M154.529 14.5019C154.79 14.4928 155.049 14.5529 155.279 14.6763C155.51 14.7997 155.703 14.9819 155.841 15.2044C155.978 15.4269 156.053 15.6817 156.06 15.943C156.067 16.2043 156.004 16.4627 155.879 16.692C153.879 20.382 149.619 27.542 146.229 30.192C141.169 34.192 138.329 34.142 136.829 33.912C134.679 33.5523 132.748 32.3864 131.429 30.6519C128.989 27.2519 129.929 22.5319 132.029 19.7819C133.429 17.9519 135.279 17.072 138.029 16.162C141.229 15.092 150.119 14.6619 154.529 14.5019Z" fill="#E6D5D7"/>
<path d="M159.72 39.2719C159.927 39.4331 160.087 39.6463 160.184 39.8899C160.282 40.1334 160.313 40.3985 160.274 40.6579C160.236 40.9174 160.129 41.1619 159.964 41.3664C159.8 41.571 159.585 41.7282 159.34 41.822C155.41 43.332 147.58 46.102 143.28 45.962C136.86 45.732 134.69 43.9019 133.68 42.7619C132.272 41.0901 131.557 38.9438 131.68 36.7619C131.99 32.5819 135.75 29.582 139.12 28.822C141.37 28.322 143.35 28.8219 146.02 29.8919C149.15 31.1719 156.24 36.5519 159.72 39.2719Z" fill="#E6D5D7"/>
<path d="M141.709 42.5419C141.83 42.7112 141.905 42.9099 141.924 43.1175C141.943 43.3251 141.906 43.534 141.817 43.7226C141.729 43.9112 141.591 44.0727 141.419 44.1904C141.247 44.3081 141.047 44.3777 140.839 44.3919C137.499 44.6419 130.909 44.9619 127.669 43.8619C122.829 42.2319 121.589 40.3319 121.089 39.2319C120.39 37.6504 120.322 35.8619 120.899 34.2319C122.099 31.1219 125.649 29.6919 128.389 29.8919C130.219 30.0219 131.609 30.8919 133.389 32.2919C135.519 33.9319 139.689 39.6719 141.709 42.5419Z" fill="#F2EAEB"/>
<path d="M131.88 52.5119C131.864 52.719 131.793 52.9182 131.675 53.0889C131.556 53.2596 131.395 53.3957 131.206 53.4833C131.018 53.5708 130.81 53.6067 130.603 53.5871C130.396 53.5675 130.198 53.4933 130.03 53.372C127.31 51.4219 122.03 47.422 120.27 44.502C117.62 40.132 117.89 37.892 118.21 36.722C118.684 35.0423 119.787 33.6099 121.29 32.722C124.2 31.112 127.84 32.3019 129.81 34.2119C131.13 35.4819 131.65 37.0319 132.11 39.2719C132.63 41.9319 132.17 49.0119 131.88 52.5119Z" fill="#F2EAEB"/>
<path d="M117.939 53.832C117.794 53.9884 117.609 54.1023 117.404 54.1612C117.199 54.2201 116.982 54.2219 116.776 54.1663C116.57 54.1107 116.383 53.9998 116.235 53.8457C116.088 53.6916 115.985 53.5001 115.939 53.2919C115.109 50.0519 113.649 43.6119 114.169 40.2319C114.939 35.1819 116.589 33.6319 117.589 32.9519C119.025 31.9807 120.78 31.601 122.489 31.8919C125.759 32.5319 127.779 35.7819 128.059 38.5119C128.249 40.3319 127.659 41.8519 126.579 43.8619C125.329 46.242 120.419 51.332 117.939 53.832Z" fill="#F2EAEB"/>
<path d="M106.419 45.932C106.212 45.9501 106.004 45.9134 105.816 45.8254C105.628 45.7374 105.466 45.6013 105.347 45.4309C105.229 45.2604 105.157 45.0616 105.14 44.8546C105.123 44.6476 105.16 44.4397 105.249 44.252C106.699 41.252 109.719 35.362 112.249 33.102C116.089 29.732 118.349 29.612 119.549 29.722C121.272 29.9103 122.857 30.7513 123.979 32.072C126.079 34.662 125.539 38.442 123.979 40.722C122.979 42.242 121.519 43.0219 119.399 43.8619C116.949 44.8119 109.909 45.562 106.419 45.932Z" fill="#F2EAEB"/>
<path d="M102.699 32.382C102.538 32.2613 102.411 32.1015 102.329 31.9177C102.247 31.7339 102.213 31.5322 102.231 31.3318C102.249 31.1313 102.318 30.9389 102.432 30.7726C102.545 30.6064 102.699 30.4719 102.879 30.382C105.929 29.002 112.019 26.452 115.439 26.382C120.549 26.272 122.359 27.6219 123.209 28.4819C124.405 29.7358 125.078 31.399 125.089 33.132C125.029 36.462 122.189 39.0119 119.539 39.7719C117.779 40.2719 116.189 39.9519 114.019 39.2319C111.449 38.3319 105.629 34.382 102.699 32.382Z" fill="#F2EAEB"/>
<path d="M108.52 19.652C108.467 19.4517 108.467 19.2411 108.522 19.0413C108.576 18.8414 108.682 18.6594 108.829 18.5135C108.976 18.3676 109.159 18.2629 109.359 18.2099C109.559 18.157 109.77 18.1577 109.97 18.2119C113.2 19.1119 119.51 21.0719 122.18 23.2119C126.18 26.4019 126.68 28.602 126.77 29.812C126.887 31.5407 126.336 33.2485 125.23 34.5819C123.05 37.0919 119.23 37.222 116.71 36.102C115.04 35.352 114.02 34.102 112.82 32.102C111.41 29.842 109.45 23.042 108.52 19.652Z" fill="#F2EAEB"/>
<path d="M121.169 13.6419C121.26 13.4626 121.396 13.3094 121.562 13.197C121.729 13.0846 121.922 13.0166 122.122 12.9996C122.322 12.9825 122.524 13.017 122.707 13.0997C122.89 13.1823 123.05 13.3105 123.169 13.472C125.059 16.232 128.629 21.7919 129.299 25.1419C130.299 30.1419 129.299 32.1419 128.579 33.1419C127.556 34.5421 126.035 35.4974 124.329 35.8119C121.039 36.3319 118.029 33.972 116.829 31.502C116.029 29.852 116.069 28.2219 116.399 25.9619C116.829 23.3019 119.699 16.8319 121.169 13.6419Z" fill="#F2EAEB"/>
<path d="M134.719 17.1719C134.907 17.0816 135.116 17.0432 135.323 17.0606C135.531 17.078 135.731 17.1506 135.901 17.271C136.071 17.3913 136.206 17.555 136.292 17.745C136.378 17.9351 136.411 18.1446 136.389 18.352C136.059 21.682 135.229 28.2319 133.589 31.2319C131.139 35.7119 129.059 36.6019 127.889 36.9019C126.197 37.3302 124.405 37.0865 122.889 36.222C120.039 34.502 119.249 30.7619 119.889 28.0919C120.329 26.3219 121.409 25.092 123.109 23.572C125.189 21.782 131.549 18.6719 134.719 17.1719Z" fill="#F2EAEB"/>
<path d="M142.829 28.5819C143.035 28.6328 143.223 28.7379 143.373 28.8862C143.524 29.0345 143.632 29.2206 143.686 29.4251C143.741 29.6295 143.739 29.8447 143.681 30.0483C143.624 30.2518 143.513 30.4361 143.359 30.5819C140.959 32.9219 136.109 37.4019 132.929 38.6519C128.169 40.5019 125.999 39.8519 124.929 39.3319C123.377 38.5642 122.176 37.234 121.569 35.6119C120.489 32.4619 122.289 29.0819 124.509 27.4719C125.999 26.4019 127.609 26.1519 129.889 26.0819C132.569 25.9819 139.439 27.6919 142.829 28.5819Z" fill="#F2EAEB"/>
</svg>
