<svg width="32" height="32" viewBox="0 0 32 32" fill="none" xmlns="http://www.w3.org/2000/svg">
<path d="M0 16C0 7.16344 7.16344 0 16 0V0C24.8366 0 32 7.16344 32 16V16C32 24.8366 24.8366 32 16 32V32C7.16344 32 0 24.8366 0 16V16Z" fill="#469DDD"/>
<path d="M21.3333 12.0007C22.0697 12.0007 22.6667 11.4037 22.6667 10.6673C22.6667 9.93094 22.0697 9.33398 21.3333 9.33398C20.597 9.33398 20 9.93094 20 10.6673C20 11.4037 20.597 12.0007 21.3333 12.0007Z" fill="white"/>
<path d="M16 10.666C14.9452 10.666 13.914 10.9788 13.037 11.5648C12.1599 12.1509 11.4763 12.9838 11.0726 13.9584C10.669 14.9329 10.5634 16.0053 10.7691 17.0398C10.9749 18.0744 11.4829 19.0247 12.2288 19.7706C12.9746 20.5165 13.925 21.0244 14.9595 21.2302C15.9941 21.436 17.0664 21.3304 18.041 20.9267C19.0155 20.523 19.8485 19.8395 20.4345 18.9624C21.0205 18.0853 21.3333 17.0542 21.3333 15.9993C21.3333 14.5849 20.7714 13.2283 19.7712 12.2281C18.771 11.2279 17.4145 10.666 16 10.666ZM16 19.4614C15.3153 19.4614 14.6459 19.2584 14.0766 18.878C13.5072 18.4975 13.0635 17.9568 12.8015 17.3242C12.5394 16.6916 12.4709 15.9955 12.6044 15.3239C12.738 14.6524 13.0678 14.0355 13.5519 13.5513C14.0361 13.0671 14.653 12.7374 15.3246 12.6038C15.9962 12.4702 16.6923 12.5388 17.3249 12.8008C17.9575 13.0628 18.4982 13.5066 18.8786 14.0759C19.259 14.6453 19.4621 15.3146 19.4621 15.9993C19.4621 16.9175 19.0973 17.7981 18.4481 18.4474C17.7988 19.0967 16.9182 19.4614 16 19.4614Z" fill="white"/>
<path d="M16 8.34757C18.492 8.34757 18.7876 8.3569 19.7714 8.40202C20.3632 8.40904 20.9494 8.5177 21.5043 8.72324C21.907 8.87855 22.2726 9.11644 22.5778 9.42159C22.8829 9.72674 23.1208 10.0924 23.2761 10.495C23.4817 11.05 23.5903 11.6361 23.5973 12.2279C23.6424 13.2118 23.6518 13.5073 23.6518 16.0001C23.6518 18.4929 23.6424 18.7869 23.5973 19.7708C23.5903 20.3626 23.4817 20.9487 23.2761 21.5037C23.1208 21.9063 22.8829 22.272 22.5778 22.5771C22.2726 22.8823 21.907 23.1201 21.5043 23.2755C20.9494 23.481 20.3632 23.5897 19.7714 23.5967C18.7876 23.6418 18.492 23.6511 16 23.6511C13.508 23.6511 13.2124 23.6418 12.2286 23.5967C11.6368 23.5897 11.0506 23.481 10.4957 23.2755C10.093 23.1201 9.72739 22.8823 9.42224 22.5771C9.11709 22.272 8.87921 21.9063 8.72389 21.5037C8.51835 20.9487 8.40969 20.3626 8.40267 19.7708C8.35756 18.7869 8.34822 18.4914 8.34822 15.9994C8.34822 13.5074 8.35756 13.2118 8.40267 12.2279C8.40969 11.6361 8.51835 11.05 8.72389 10.495C8.87921 10.0924 9.11709 9.72674 9.42224 9.42159C9.72739 9.11644 10.093 8.87855 10.4957 8.72324C11.0506 8.5177 11.6368 8.40904 12.2286 8.40202C13.2124 8.3569 13.508 8.34757 16 8.34757V8.34757ZM16 6.66602C13.4652 6.66602 13.1471 6.6769 12.1516 6.72202C11.3775 6.73765 10.6117 6.88439 9.88667 7.15602C9.26656 7.3958 8.7034 7.76251 8.23328 8.23263C7.76316 8.70275 7.39645 9.26591 7.15667 9.88602C6.88496 10.6113 6.73821 11.3774 6.72267 12.1517C6.67756 13.1472 6.66667 13.4638 6.66667 15.9994C6.66667 18.5349 6.67756 18.8522 6.72267 19.8478C6.7383 20.6219 6.88504 21.3877 7.15667 22.1127C7.39645 22.7328 7.76316 23.296 8.23328 23.7661C8.7034 24.2362 9.26656 24.6029 9.88667 24.8427C10.6119 25.1144 11.378 25.2611 12.1523 25.2767C13.1479 25.3218 13.4652 25.3327 16 25.3327C18.5348 25.3327 18.8529 25.3218 19.8484 25.2767C20.6228 25.2611 21.3889 25.1144 22.1141 24.8427C22.7342 24.6029 23.2974 24.2362 23.7675 23.7661C24.2376 23.296 24.6043 22.7328 24.8441 22.1127C25.1156 21.3874 25.262 20.6213 25.2773 19.847C25.3224 18.8515 25.3333 18.5349 25.3333 15.9994C25.3333 13.4638 25.3224 13.1465 25.2773 12.1509C25.2617 11.3768 25.115 10.611 24.8433 9.88602C24.6036 9.26591 24.2368 8.70275 23.7667 8.23263C23.2966 7.76251 22.7334 7.3958 22.1133 7.15602C21.388 6.88457 20.622 6.73809 19.8477 6.72279C18.8521 6.67613 18.5356 6.66602 16 6.66602Z" fill="white"/>
</svg>
