<svg width="40" height="40" viewBox="0 0 40 40" fill="none" xmlns="http://www.w3.org/2000/svg">
<rect x="0.5" y="0.5" width="39" height="39" rx="19.5" fill="#F9F9F9"/>
<path d="M20.72 15L22.5587 18.2181L24.86 15H20.72Z" fill="url(#paint0_linear_914_13746)"/>
<path d="M17.4414 18.2181L19.2801 15H15.1401L17.4414 18.2181Z" fill="url(#paint1_linear_914_13746)"/>
<path d="M20 16.2598L18.5769 18.7504H21.4232L20 16.2598Z" fill="url(#paint2_linear_914_13746)"/>
<path d="M25.9654 15.6045L23.7156 18.7504H27.7458C27.7326 18.71 27.7174 18.6704 27.7001 18.6316L25.985 15.6302C25.9795 15.6207 25.971 15.6139 25.9654 15.6045Z" fill="url(#paint3_linear_914_13746)"/>
<path d="M21.7 20H18.3L20 26.7994L21.7 20Z" fill="url(#paint4_linear_914_13746)"/>
<path d="M17.0125 20H12.3918C12.4012 20.0125 12.4052 20.0276 12.4152 20.0398L19.0699 28.2302L17.0125 20Z" fill="url(#paint5_linear_914_13746)"/>
<path d="M22.9876 20L20.9302 28.2302L27.5849 20.0398C27.5949 20.0273 27.5989 20.0125 27.6082 20H22.9876Z" fill="url(#paint6_linear_914_13746)"/>
<path d="M16.2845 18.7504L14.0345 15.6045C14.0289 15.6139 14.0205 15.6207 14.015 15.6302L12.3001 18.6316C12.2828 18.6704 12.2675 18.71 12.2544 18.7504H16.2845Z" fill="url(#paint7_linear_914_13746)"/>
<path d="M20 13.125C19.8342 13.125 19.6753 13.0592 19.5581 12.9419C19.4408 12.8247 19.375 12.6658 19.375 12.5V10.625C19.375 10.4592 19.4408 10.3003 19.5581 10.1831C19.6753 10.0658 19.8342 10 20 10C20.1658 10 20.3247 10.0658 20.4419 10.1831C20.5592 10.3003 20.625 10.4592 20.625 10.625V12.5C20.625 12.6658 20.5592 12.8247 20.4419 12.9419C20.3247 13.0592 20.1658 13.125 20 13.125Z" fill="url(#paint8_linear_914_13746)"/>
<path d="M16.4203 13.7463C16.2915 13.7462 16.1659 13.7064 16.0606 13.6322C15.9552 13.5581 15.8754 13.4532 15.8319 13.332L15.2 11.5662C15.1709 11.4886 15.1575 11.406 15.1606 11.3232C15.1637 11.2404 15.1833 11.159 15.2181 11.0838C15.253 11.0086 15.3024 10.9411 15.3636 10.8852C15.4248 10.8293 15.4965 10.7862 15.5745 10.7582C15.6526 10.7303 15.7354 10.7182 15.8181 10.7226C15.9009 10.7269 15.982 10.7477 16.0566 10.7837C16.1313 10.8197 16.198 10.8702 16.253 10.9322C16.3079 10.9942 16.35 11.0666 16.3767 11.145L17.0085 12.9108C17.0422 13.0051 17.0528 13.1062 17.0393 13.2054C17.0259 13.3047 16.9887 13.3993 16.931 13.4812C16.8734 13.5631 16.7968 13.6299 16.7079 13.6761C16.619 13.7222 16.5203 13.7463 16.4201 13.7463H16.4203Z" fill="url(#paint9_linear_914_13746)"/>
<path d="M23.5797 13.7463C23.4796 13.7463 23.3809 13.7222 23.2919 13.6761C23.203 13.6299 23.1265 13.5631 23.0688 13.4812C23.0111 13.3993 22.974 13.3047 22.9605 13.2054C22.947 13.1062 22.9576 13.0051 22.9914 12.9108L23.6231 11.145C23.6499 11.0666 23.6919 10.9942 23.7469 10.9322C23.8019 10.8702 23.8686 10.8197 23.9432 10.7837C24.0179 10.7477 24.099 10.7269 24.1817 10.7226C24.2645 10.7182 24.3473 10.7303 24.4253 10.7582C24.5033 10.7862 24.575 10.8293 24.6362 10.8852C24.6974 10.9411 24.7469 11.0086 24.7817 11.0838C24.8166 11.159 24.8361 11.2404 24.8393 11.3232C24.8424 11.406 24.829 11.4886 24.7999 11.5662L24.1681 13.332C24.1246 13.4532 24.0448 13.5581 23.9395 13.6322C23.8342 13.7064 23.7085 13.7462 23.5797 13.7463Z" fill="url(#paint10_linear_914_13746)"/>
<rect x="0.5" y="0.5" width="39" height="39" rx="19.5" stroke="white"/>
<defs>
<linearGradient id="paint0_linear_914_13746" x1="9.06247" y1="16.6094" x2="31.7193" y2="16.6094" gradientUnits="userSpaceOnUse">
<stop offset="0.2401" stop-color="#FFE266"/>
<stop offset="0.3729" stop-color="#FFCC62"/>
<stop offset="0.6478" stop-color="#FF9457"/>
<stop offset="0.7797" stop-color="#FF7752"/>
</linearGradient>
<linearGradient id="paint1_linear_914_13746" x1="9.06264" y1="16.6094" x2="31.7195" y2="16.6094" gradientUnits="userSpaceOnUse">
<stop offset="0.2401" stop-color="#FFE266"/>
<stop offset="0.3729" stop-color="#FFCC62"/>
<stop offset="0.6478" stop-color="#FF9457"/>
<stop offset="0.7797" stop-color="#FF7752"/>
</linearGradient>
<linearGradient id="paint2_linear_914_13746" x1="10" y1="17.5054" x2="31.7194" y2="17.5054" gradientUnits="userSpaceOnUse">
<stop offset="0.2401" stop-color="#FFE266"/>
<stop offset="0.3729" stop-color="#FFCC62"/>
<stop offset="0.6478" stop-color="#FF9457"/>
<stop offset="0.7797" stop-color="#FF7752"/>
</linearGradient>
<linearGradient id="paint3_linear_914_13746" x1="10" y1="17.1772" x2="31.7194" y2="17.1772" gradientUnits="userSpaceOnUse">
<stop offset="0.2401" stop-color="#FFE266"/>
<stop offset="0.3729" stop-color="#FFCC62"/>
<stop offset="0.6478" stop-color="#FF9457"/>
<stop offset="0.7797" stop-color="#FF7752"/>
</linearGradient>
<linearGradient id="paint4_linear_914_13746" x1="10" y1="23.4" x2="31.7194" y2="23.4" gradientUnits="userSpaceOnUse">
<stop offset="0.2401" stop-color="#FFE266"/>
<stop offset="0.3729" stop-color="#FFCC62"/>
<stop offset="0.6478" stop-color="#FF9457"/>
<stop offset="0.7797" stop-color="#FF7752"/>
</linearGradient>
<linearGradient id="paint5_linear_914_13746" x1="10" y1="24.115" x2="31.7194" y2="24.115" gradientUnits="userSpaceOnUse">
<stop offset="0.2401" stop-color="#FFE266"/>
<stop offset="0.3729" stop-color="#FFCC62"/>
<stop offset="0.6478" stop-color="#FF9457"/>
<stop offset="0.7797" stop-color="#FF7752"/>
</linearGradient>
<linearGradient id="paint6_linear_914_13746" x1="10.0001" y1="24.115" x2="31.7194" y2="24.115" gradientUnits="userSpaceOnUse">
<stop offset="0.2401" stop-color="#FFE266"/>
<stop offset="0.3729" stop-color="#FFCC62"/>
<stop offset="0.6478" stop-color="#FF9457"/>
<stop offset="0.7797" stop-color="#FF7752"/>
</linearGradient>
<linearGradient id="paint7_linear_914_13746" x1="10.0001" y1="17.1772" x2="31.7195" y2="17.1772" gradientUnits="userSpaceOnUse">
<stop offset="0.2401" stop-color="#FFE266"/>
<stop offset="0.3729" stop-color="#FFCC62"/>
<stop offset="0.6478" stop-color="#FF9457"/>
<stop offset="0.7797" stop-color="#FF7752"/>
</linearGradient>
<linearGradient id="paint8_linear_914_13746" x1="10" y1="11.5625" x2="31.7194" y2="11.5625" gradientUnits="userSpaceOnUse">
<stop offset="0.2401" stop-color="#FFE266"/>
<stop offset="0.3729" stop-color="#FFCC62"/>
<stop offset="0.6478" stop-color="#FF9457"/>
<stop offset="0.7797" stop-color="#FF7752"/>
</linearGradient>
<linearGradient id="paint9_linear_914_13746" x1="9.99998" y1="12.2381" x2="31.7194" y2="12.2381" gradientUnits="userSpaceOnUse">
<stop offset="0.2401" stop-color="#FFE266"/>
<stop offset="0.3729" stop-color="#FFCC62"/>
<stop offset="0.6478" stop-color="#FF9457"/>
<stop offset="0.7797" stop-color="#FF7752"/>
</linearGradient>
<linearGradient id="paint10_linear_914_13746" x1="10.0001" y1="12.2381" x2="31.7194" y2="12.2381" gradientUnits="userSpaceOnUse">
<stop offset="0.2401" stop-color="#FFE266"/>
<stop offset="0.3729" stop-color="#FFCC62"/>
<stop offset="0.6478" stop-color="#FF9457"/>
<stop offset="0.7797" stop-color="#FF7752"/>
</linearGradient>
</defs>
</svg>
