<svg width="36" height="36" viewBox="0 0 36 36" fill="none" xmlns="http://www.w3.org/2000/svg">
<rect width="36" height="36" rx="8" fill="#E8F3FA"/>
<path d="M18 26.3346C22.6023 26.3346 26.3333 22.6037 26.3333 18.0013C26.3333 13.3989 22.6023 9.66797 18 9.66797C13.3976 9.66797 9.66663 13.3989 9.66663 18.0013C9.66663 22.6037 13.3976 26.3346 18 26.3346Z" stroke="#469DDD" stroke-width="2" stroke-linecap="round" stroke-linejoin="round"/>
<path d="M9.66663 18H26.3333" stroke="#469DDD" stroke-width="2" stroke-linecap="round" stroke-linejoin="round"/>
<path d="M18 9.66797C20.0844 11.9499 21.2689 14.9113 21.3333 18.0013C21.2689 21.0913 20.0844 24.0527 18 26.3346C15.9156 24.0527 14.731 21.0913 14.6666 18.0013C14.731 14.9113 15.9156 11.9499 18 9.66797V9.66797Z" stroke="#469DDD" stroke-width="2" stroke-linecap="round" stroke-linejoin="round"/>
</svg>
