<svg width="17" height="21" viewBox="0 0 17 21" fill="none" xmlns="http://www.w3.org/2000/svg">
<path d="M7.5 15.938C5.48271 15.6813 3.63885 14.6661 2.34319 13.0988C1.04752 11.5314 0.397279 9.52954 0.524621 7.49997C0.651962 5.47041 1.54733 3.56549 3.02874 2.17238C4.51016 0.779274 6.46645 0.00252301 8.5 2.22086e-06C10.536 -0.00151396 12.4961 0.77334 13.9807 2.16668C15.4653 3.56002 16.3628 5.467 16.4903 7.49904C16.6178 9.53109 15.9657 11.5353 14.6669 13.1033C13.368 14.6712 11.5203 15.685 9.5 15.938V18.012C13.446 18.104 16.5 18.735 16.5 19.5C16.5 20.328 12.918 21 8.5 21C4.082 21 0.5 20.328 0.5 19.5C0.5 18.735 3.554 18.104 7.5 18.012V15.938ZM8.5 14C10.0913 14 11.6174 13.3679 12.7426 12.2426C13.8679 11.1174 14.5 9.5913 14.5 8C14.5 6.4087 13.8679 4.88258 12.7426 3.75736C11.6174 2.63214 10.0913 2 8.5 2C6.9087 2 5.38258 2.63214 4.25736 3.75736C3.13214 4.88258 2.5 6.4087 2.5 8C2.5 9.5913 3.13214 11.1174 4.25736 12.2426C5.38258 13.3679 6.9087 14 8.5 14ZM8.5 10C7.96957 10 7.46086 9.78929 7.08579 9.41422C6.71071 9.03914 6.5 8.53043 6.5 8C6.5 7.46957 6.71071 6.96086 7.08579 6.58579C7.46086 6.21072 7.96957 6 8.5 6C9.03043 6 9.53914 6.21072 9.91421 6.58579C10.2893 6.96086 10.5 7.46957 10.5 8C10.5 8.53043 10.2893 9.03914 9.91421 9.41422C9.53914 9.78929 9.03043 10 8.5 10Z" fill="#469DDD"/>
</svg>
