<svg width="80" height="80" viewBox="0 0 80 80" fill="none" xmlns="http://www.w3.org/2000/svg">
<path d="M63.3333 36.667H16.6667C12.9848 36.667 10 39.6518 10 43.3337V66.667C10 70.3489 12.9848 73.3337 16.6667 73.3337H63.3333C67.0152 73.3337 70 70.3489 70 66.667V43.3337C70 39.6518 67.0152 36.667 63.3333 36.667Z" fill="#34C27E"/>
<path d="M23.3333 36.667V23.3337C23.3333 18.9134 25.0893 14.6742 28.2149 11.5485C31.3405 8.42294 35.5797 6.66699 40 6.66699C44.4203 6.66699 48.6595 8.42294 51.7851 11.5485C54.9107 14.6742 56.6667 18.9134 56.6667 23.3337V36.667" stroke="#34C27E" stroke-width="5" stroke-linecap="round" stroke-linejoin="round"/>
<path d="M30 56L33.8787 59.8787C35.0503 61.0503 36.9497 61.0503 38.1213 59.8787L50 48" stroke="white" stroke-width="3" stroke-linecap="round"/>
</svg>
