<svg width="21" height="16" viewBox="0 0 21 16" fill="none" xmlns="http://www.w3.org/2000/svg">
<path d="M21 8.1228C20.8977 8.25602 20.8083 8.40268 20.691 8.5214C19.5826 9.63985 18.4705 10.7545 17.3568 11.8682C17.276 11.9493 17.1855 12.0309 17.0837 12.0782C16.853 12.1846 16.5858 12.0997 16.4471 11.8977C16.3074 11.6941 16.3325 11.4169 16.5253 11.2214C17.0779 10.6605 17.6352 10.1045 18.1916 9.54692C18.515 9.22298 18.8389 8.89905 19.2062 8.53107C19.0788 8.53107 19.0022 8.53107 18.9257 8.53107C15.8019 8.53107 12.6781 8.53107 9.5549 8.53107C9.47994 8.53107 9.40391 8.53429 9.32948 8.52677C9.05694 8.4983 8.84437 8.26999 8.84062 8.0073C8.83688 7.73655 9.05373 7.50018 9.33537 7.47278C9.4098 7.4658 9.48583 7.46902 9.56079 7.46902C12.6846 7.46902 15.8083 7.46902 18.9315 7.46902C19.0044 7.46902 19.0777 7.46902 19.1923 7.46902C19.1163 7.38629 19.0697 7.3315 19.0194 7.28046C18.2124 6.47036 17.4039 5.66241 16.6008 4.84855C16.5124 4.75938 16.4316 4.6471 16.3898 4.52999C16.3116 4.30974 16.4075 4.08036 16.597 3.95573C16.7694 3.84184 17.0254 3.84829 17.194 3.97614C17.2588 4.02556 17.3161 4.08573 17.3739 4.14375C18.4812 5.2536 19.5896 6.36239 20.6931 7.47654C20.8104 7.59473 20.8982 7.74299 20.9994 7.87676C21 7.95841 21 8.0406 21 8.1228Z" fill="#B9B9B9"/>
<path d="M0.00154004 7.99389C0.00154004 6.23133 -0.00274349 4.46931 0.00314636 2.70675C0.00742989 1.34656 0.914467 0.267321 2.23915 0.0379365C2.41317 0.00785324 2.59307 0.00248123 2.76977 0.00248123C5.56531 0.000332421 8.36085 -0.00181638 11.1564 0.00248123C12.4993 0.00463003 13.5386 0.803448 13.8416 2.06533C13.8893 2.26302 13.9059 2.472 13.9091 2.67613C13.9182 3.2316 13.9144 3.78706 13.9118 4.34253C13.9096 4.68097 13.6997 4.9125 13.401 4.91787C13.0909 4.92324 12.8698 4.69278 12.8666 4.34522C12.8618 3.82413 12.8687 3.30305 12.8644 2.78196C12.8559 1.72905 12.1737 1.05164 11.1227 1.0511C8.98999 1.04949 6.85786 1.05056 4.7252 1.05056C4.06233 1.05056 3.39945 1.04626 2.73604 1.05164C1.91628 1.05808 1.30909 1.51631 1.10615 2.28773C1.06332 2.45051 1.05582 2.62671 1.05582 2.79646C1.05315 6.26625 1.05315 9.73603 1.05422 13.2058C1.05475 14.0664 1.4815 14.667 2.252 14.884C2.40781 14.9281 2.57487 14.9474 2.73711 14.9474C5.54603 14.9512 8.35549 14.9523 11.1644 14.949C11.9949 14.948 12.6069 14.4822 12.805 13.7011C12.8484 13.5314 12.8532 13.3487 12.8553 13.1714C12.8618 12.6643 12.8532 12.1567 12.8602 11.649C12.865 11.3116 13.0829 11.0833 13.3817 11.0823C13.6221 11.0812 13.8914 11.2649 13.8914 11.5002C13.893 12.3543 14.0178 13.2187 13.8036 14.06C13.5273 15.144 12.5218 15.9439 11.4113 15.9853C10.7971 16.0084 10.1813 15.9976 9.56612 15.9982C7.30388 15.9993 5.04111 15.996 2.77887 15.9998C1.72084 16.0014 0.906435 15.5668 0.357608 14.6557C0.0968485 14.2233 -0.00167261 13.7446 -0.000601725 13.2402C0.0036818 11.4911 0.00154004 9.74248 0.00154004 7.99389Z" fill="#B9B9B9"/>
</svg>
