<svg width="206" height="129" viewBox="0 0 206 129" fill="none" xmlns="http://www.w3.org/2000/svg">
<g clip-path="url(#clip0_231_28623)">
<path d="M34.844 96.3027L28.6076 114.856L22.4396 96.3027H17.758L11.4533 114.754L5.45043 96.4784L5.38778 96.3027H0L8.49743 121.821H13.8567L19.9906 103.862L26.0163 121.821H31.3414L39.8388 96.3027H34.844Z" fill="#151229"/>
<path d="M55.4384 103.323C53.7704 102.482 51.9265 102.043 50.0563 102.043C48.1861 102.043 46.3421 102.482 44.6742 103.323C43.1213 104.144 41.8264 105.376 40.9324 106.882C40.0508 108.466 39.5883 110.246 39.5883 112.056C39.5883 113.866 40.0508 115.647 40.9324 117.23C41.8205 118.747 43.1164 119.987 44.6742 120.811C46.3421 121.653 48.1861 122.092 50.0563 122.092C51.9265 122.092 53.7704 121.653 55.4384 120.811C56.9962 119.987 58.2921 118.747 59.1802 117.23C60.0618 115.647 60.5243 113.866 60.5243 112.056C60.5243 110.246 60.0618 108.466 59.1802 106.882C58.2862 105.376 56.9913 104.144 55.4384 103.323ZM50.0392 117.757C49.3172 117.779 48.5984 117.652 47.9287 117.383C47.2589 117.113 46.6529 116.708 46.1493 116.193C45.1639 115.035 44.6231 113.567 44.6231 112.05C44.6231 110.533 45.1639 109.066 46.1493 107.908C46.6529 107.393 47.2589 106.988 47.9287 106.718C48.5984 106.449 49.3172 106.321 50.0392 106.344C50.7636 106.323 51.4846 106.45 52.157 106.72C52.8293 106.989 53.4385 107.393 53.9462 107.908C54.9425 109.06 55.4904 110.53 55.4904 112.05C55.4904 113.571 54.9425 115.04 53.9462 116.193C53.4366 116.703 52.8265 117.104 52.1543 117.369C51.482 117.634 50.762 117.759 50.0392 117.734V117.757Z" fill="#151229"/>
<path d="M69.1015 104.497V102.23H64.3174V121.815H69.3179V112.311C69.3179 110.487 69.7906 109.076 70.7189 108.118C71.2348 107.622 71.8484 107.239 72.5208 106.991C73.1933 106.743 73.9101 106.637 74.6259 106.679C74.9605 106.683 75.2941 106.717 75.6226 106.781L75.9245 106.837V102.021H75.6682C72.7009 102.021 70.4968 102.854 69.1015 104.497Z" fill="#151229"/>
<path d="M84.2111 94.8066H79.2106V121.82H84.2111V94.8066Z" fill="#151229"/>
<path d="M103.877 104.202C103.202 103.55 102.408 103.035 101.536 102.683C100.399 102.231 99.184 102.006 97.9596 102.02C96.1813 101.995 94.4263 102.424 92.8623 103.267C91.3653 104.086 90.1299 105.307 89.297 106.792C88.4514 108.411 88.0099 110.209 88.0099 112.033C88.0099 113.858 88.4514 115.656 89.297 117.275C90.124 118.77 91.3603 120 92.8623 120.823C94.4263 121.665 96.1813 122.094 97.9596 122.069C99.2298 122.085 100.49 121.848 101.667 121.372C102.562 121.001 103.373 120.456 104.054 119.769V121.82H108.878V94.8232H103.877V104.202ZM103.233 108.99C103.706 109.928 103.951 110.962 103.951 112.011C103.951 113.059 103.706 114.094 103.233 115.031C102.782 115.861 102.107 116.549 101.286 117.02C100.43 117.478 99.4745 117.717 98.5035 117.717C97.5325 117.717 96.5767 117.478 95.7213 117.02C94.8997 116.549 94.2254 115.861 93.7736 115.031C93.298 114.095 93.0503 113.06 93.0503 112.011C93.0503 110.961 93.298 109.927 93.7736 108.99C94.2254 108.161 94.8997 107.472 95.7213 107.001C96.5767 106.544 97.5325 106.305 98.5035 106.305C99.4745 106.305 100.43 106.544 101.286 107.001C102.107 107.472 102.782 108.161 103.233 108.99Z" fill="#151229"/>
<path d="M127.82 115.224C127.344 116.016 126.666 116.669 125.855 117.117C124.795 117.655 123.594 117.855 122.415 117.691C121.237 117.527 120.137 117.006 119.266 116.199C118.255 115.047 117.698 113.569 117.698 112.04C117.698 110.51 118.255 109.032 119.266 107.88C120.134 107.074 121.231 106.553 122.406 106.389C123.582 106.225 124.781 106.425 125.838 106.962C126.651 107.408 127.329 108.061 127.803 108.855L127.934 109.064L131.807 106.798L131.699 106.588C130.979 105.135 129.817 103.945 128.378 103.188C126.805 102.382 125.056 101.979 123.287 102.015C121.382 101.994 119.501 102.444 117.814 103.324C116.248 104.142 114.94 105.373 114.032 106.883C113.139 108.463 112.67 110.246 112.67 112.059C112.67 113.873 113.139 115.655 114.032 117.236C114.939 118.757 116.255 119.995 117.831 120.812C119.521 121.681 121.401 122.121 123.304 122.093C125.063 122.124 126.803 121.715 128.361 120.902C129.799 120.132 130.969 118.947 131.716 117.502L131.83 117.281L127.951 115.015L127.82 115.224Z" fill="#151229"/>
<path d="M142.685 102.021C141.145 102.015 139.611 102.223 138.129 102.638C136.793 103.003 135.536 103.61 134.421 104.429L134.245 104.565L136.261 108.282L136.5 108.084C137.256 107.477 138.122 107.019 139.051 106.735C140.053 106.414 141.098 106.25 142.15 106.248C143.659 106.248 144.804 106.588 145.567 107.257C145.956 107.625 146.259 108.074 146.456 108.571C146.653 109.068 146.738 109.602 146.706 110.136L142.013 110.164C139.211 110.164 137.121 110.731 135.799 111.773C135.148 112.288 134.627 112.947 134.277 113.698C133.927 114.448 133.758 115.27 133.783 116.097C133.771 117.197 134.093 118.276 134.706 119.191C135.36 120.125 136.26 120.861 137.309 121.316C139.763 122.295 142.496 122.321 144.969 121.39C145.725 121.073 146.403 120.598 146.957 119.996V121.821H151.644V110.385C151.644 107.608 150.858 105.494 149.314 104.106C147.771 102.718 145.561 102.021 142.685 102.021ZM146.672 113.643V115.553C146.351 116.402 145.748 117.116 144.963 117.576C144.097 118.07 143.113 118.322 142.115 118.307C141.219 118.361 140.329 118.129 139.575 117.644C139.302 117.453 139.08 117.198 138.929 116.902C138.778 116.605 138.703 116.276 138.71 115.944C138.71 114.408 139.894 113.677 142.332 113.677L146.672 113.643Z" fill="#151229"/>
<path d="M161.679 104.497V102.23H156.889V121.815H161.895V112.311C161.895 110.487 162.368 109.076 163.296 108.118C163.812 107.622 164.425 107.238 165.098 106.99C165.771 106.742 166.487 106.636 167.203 106.679C167.536 106.683 167.868 106.717 168.194 106.781L168.496 106.837V102.021H168.24C165.273 102.021 163.069 102.854 161.679 104.497Z" fill="#151229"/>
<path d="M176.578 104.497V102.23H171.788V121.815H176.794V112.311C176.794 110.487 177.261 109.076 178.19 108.118C178.706 107.623 179.319 107.239 179.992 106.991C180.664 106.744 181.381 106.637 182.097 106.679C182.431 106.683 182.765 106.717 183.093 106.781L183.395 106.837V102.021H183.139C180.172 102.021 177.968 102.854 176.578 104.497Z" fill="#151229"/>
<path d="M201.13 102.235L195.236 115.943L189.444 102.388L189.375 102.235H184.147L192.65 121.633L192.371 122.279C192.083 123.022 191.623 123.686 191.027 124.217C190.513 124.607 189.879 124.807 189.233 124.784C188.656 124.781 188.085 124.666 187.553 124.444C187.019 124.229 186.529 123.92 186.106 123.531L185.861 123.305L183.817 127.056L183.959 127.192C184.653 127.801 185.468 128.259 186.351 128.535C187.292 128.846 188.276 129.007 189.267 129.011C190.858 129.047 192.42 128.586 193.732 127.691C194.962 126.818 196.01 125.311 196.87 123.208L205.983 102.241L201.13 102.235Z" fill="#151229"/>
<path d="M157.339 12.2069C155.403 7.49204 148.107 6.04133 135.663 7.90573C133.749 8.18907 131.722 8.57441 129.654 9.00509C124.254 4.48425 117.715 1.51743 110.744 0.425145C103.773 -0.66714 96.6344 0.156632 90.0995 2.80747C83.5645 5.4583 77.8818 9.83542 73.6651 15.466C69.4484 21.0965 66.8581 27.7665 66.174 34.7552C54.0544 42.4565 46.2404 50.4127 48.6837 56.3969C50.1588 59.9897 54.7777 61.4971 61.2874 61.4971C65.1344 61.4437 68.9698 61.0646 72.7521 60.3637C77.4218 67.1733 84.1615 72.315 91.9828 75.0348C99.8041 77.7546 108.295 77.9093 116.212 75.4762C124.128 73.0432 131.052 68.1504 135.969 61.5154C140.886 54.8805 143.537 46.8524 143.534 38.6087C143.531 36.328 143.324 34.0522 142.913 31.8085C143.579 31.3495 144.24 30.8961 144.872 30.4428C155.061 23.0475 159.253 16.933 157.339 12.2069ZM69.6311 55.4902C57.614 57.2923 54.0088 55.3145 53.6329 54.4022C53.257 53.4898 54.436 49.5627 64.2832 42.4678C64.8527 42.0428 65.5077 41.6121 66.1342 41.1814C66.4626 46.1361 67.7546 50.9802 69.9386 55.4449L69.6311 55.4902ZM104.817 71.924C99.7523 71.9235 94.7539 70.7786 90.1989 68.5758C85.6438 66.373 81.651 63.1697 78.5215 59.2076C86.0553 57.4445 93.4732 55.2227 100.733 52.5548L100.887 52.4924C103.672 51.4781 106.457 50.4127 109.197 49.302C111.839 48.2253 114.413 47.1033 116.942 45.9642L117.392 45.7829C117.392 45.7829 115.837 50.2484 105.102 55.0255C105.998 57.382 106.483 59.8734 106.537 62.3924C106.53 62.6323 106.597 62.8684 106.729 63.0696C106.86 63.2708 107.05 63.4276 107.273 63.5191C107.495 63.6107 107.741 63.6327 107.977 63.5823C108.213 63.5318 108.427 63.4114 108.593 63.2368L129.119 41.5554C129.333 41.3315 129.477 41.0502 129.532 40.7461C129.588 40.4421 129.553 40.1284 129.432 39.8437C129.311 39.559 129.109 39.3157 128.851 39.1436C128.593 38.9715 128.29 38.8782 127.98 38.875L97.7546 38.5917C97.5128 38.5884 97.2756 38.6586 97.0748 38.7928C96.8741 38.927 96.7191 39.1189 96.6307 39.3429C96.5422 39.5669 96.5245 39.8124 96.5798 40.0467C96.6351 40.281 96.7608 40.493 96.9402 40.6544C98.9041 42.2392 100.276 44.4344 100.836 46.8879C92.5343 50.0394 84.0073 52.5682 75.3264 54.4532C71.8345 48.0372 70.5556 40.6582 71.6861 33.4491C72.8166 26.24 76.294 19.5994 81.5843 14.5468C86.8746 9.4943 93.6855 6.3092 100.971 5.48056C108.257 4.65192 115.614 6.22556 121.914 9.95986C128.214 13.6942 133.107 19.3827 135.844 26.152C138.58 32.9212 139.008 40.3971 137.061 47.4316C135.115 54.4662 130.901 60.6705 125.068 65.092C119.235 69.5135 112.104 71.9077 104.771 71.907L104.817 71.924ZM141.836 26.1473C141.757 26.2096 141.666 26.2663 141.58 26.3286C139.985 21.6221 137.493 17.2659 134.239 13.4989C134.996 13.3629 135.754 13.2326 136.489 13.1249C139.314 12.6727 142.17 12.4283 145.032 12.3939C150.345 12.3939 152.225 13.5726 152.492 14.2186C152.783 15.1139 151.644 19.0411 141.768 26.1303L141.836 26.1473Z" fill="#009EE2"/>
</g>
<defs>
<clipPath id="clip0_231_28623">
<rect width="206" height="129" fill="white"/>
</clipPath>
</defs>
</svg>
