<svg width="167" height="105" viewBox="0 0 167 105" fill="none" xmlns="http://www.w3.org/2000/svg">
<g clip-path="url(#clip0_256_14836)">
<path d="M28.5782 78.3857L23.5527 93.4872L18.5824 78.3857H14.8099L9.72936 93.4042L4.89209 78.5287L4.84161 78.3857H0.5L7.34744 99.156H11.6661L16.6089 84.5389L21.4646 99.156H25.7557L32.6031 78.3857H28.5782Z" fill="white"/>
<path d="M45.1734 84.1019C43.8293 83.4167 42.3434 83.0596 40.8364 83.0596C39.3293 83.0596 37.8434 83.4167 36.4993 84.1019C35.248 84.7699 34.2045 85.7723 33.4841 86.9985C32.7737 88.2873 32.4009 89.7365 32.4009 91.2098C32.4009 92.6831 32.7737 94.1323 33.4841 95.421C34.1997 96.6558 35.244 97.6653 36.4993 98.3362C37.8434 99.0214 39.3293 99.3784 40.8364 99.3784C42.3434 99.3784 43.8293 99.0214 45.1734 98.3362C46.4287 97.6653 47.473 96.6558 48.1886 95.421C48.899 94.1323 49.2718 92.6831 49.2718 91.2098C49.2718 89.7365 48.899 88.2873 48.1886 86.9985C47.4682 85.7723 46.4247 84.7699 45.1734 84.1019ZM40.8226 95.85C40.2408 95.8683 39.6616 95.7645 39.1219 95.5453C38.5822 95.3261 38.0938 94.9963 37.688 94.5769C36.8939 93.6347 36.4581 92.44 36.4581 91.2052C36.4581 89.9704 36.8939 88.7756 37.688 87.8334C38.0938 87.414 38.5822 87.0842 39.1219 86.865C39.6616 86.6458 40.2408 86.5421 40.8226 86.5603C41.4063 86.543 41.9874 86.6471 42.5292 86.8662C43.0709 87.0852 43.5618 87.4145 43.9709 87.8334C44.7738 88.7715 45.2153 89.9678 45.2153 91.2052C45.2153 92.4425 44.7738 93.6389 43.9709 94.5769C43.5603 94.9925 43.0687 95.3184 42.5269 95.5342C41.9852 95.7501 41.405 95.8513 40.8226 95.8316V95.85Z" fill="white"/>
<path d="M56.1837 85.0557V83.2107H52.3286V99.1517H56.3581V91.4164C56.3581 89.9312 56.739 88.7826 57.4871 88.0031C57.9028 87.5998 58.3972 87.2874 58.9391 87.0858C59.481 86.8841 60.0586 86.7976 60.6354 86.8316C60.9051 86.835 61.1739 86.8628 61.4386 86.9146L61.6818 86.9607V83.04H61.4753C59.0842 83.04 57.3081 83.7181 56.1837 85.0557Z" fill="white"/>
<path d="M68.3595 77.168H64.33V99.156H68.3595V77.168Z" fill="white"/>
<path d="M84.2069 84.8154C83.6633 84.285 83.0227 83.8653 82.3206 83.5792C81.4043 83.2113 80.4251 83.028 79.4385 83.0396C78.0055 83.0193 76.5912 83.3687 75.3309 84.0543C74.1246 84.7211 73.129 85.7152 72.4579 86.9233C71.7765 88.2413 71.4207 89.7047 71.4207 91.1899C71.4207 92.6752 71.7765 94.1386 72.4579 95.4565C73.1243 96.673 74.1206 97.6743 75.3309 98.344C76.5912 99.0297 78.0055 99.3791 79.4385 99.3588C80.462 99.3711 81.4777 99.1782 82.4262 98.7914C83.147 98.4889 83.8007 98.0452 84.3492 97.4861V99.1558H88.2364V77.1816H84.2069V84.8154ZM83.6883 88.713C84.0687 89.4761 84.2667 90.3179 84.2667 91.1715C84.2667 92.025 84.0687 92.8668 83.6883 93.63C83.3242 94.3052 82.7808 94.8656 82.1187 95.249C81.4294 95.6212 80.6592 95.816 79.8768 95.816C79.0943 95.816 78.324 95.6212 77.6348 95.249C76.9727 94.8656 76.4293 94.3052 76.0652 93.63C75.682 92.8677 75.4824 92.0255 75.4824 91.1715C75.4824 90.3174 75.682 89.4753 76.0652 88.713C76.4293 88.0378 76.9727 87.4774 77.6348 87.094C78.324 86.7218 79.0943 86.5269 79.8768 86.5269C80.6592 86.5269 81.4294 86.7218 82.1187 87.094C82.7808 87.4774 83.3242 88.0378 83.6883 88.713Z" fill="white"/>
<path d="M103.501 93.7868C103.117 94.4315 102.571 94.9629 101.917 95.3274C101.063 95.7651 100.095 95.9282 99.1452 95.7946C98.1954 95.6609 97.3094 95.237 96.6074 94.5802C95.7926 93.6424 95.3437 92.4396 95.3437 91.1946C95.3437 89.9496 95.7926 88.7468 96.6074 87.809C97.3069 87.1528 98.1905 86.7291 99.1381 86.5954C100.086 86.4617 101.051 86.6245 101.904 87.0617C102.558 87.4248 103.105 87.9566 103.487 88.6023L103.592 88.773L106.713 86.928L106.626 86.7573C106.046 85.5748 105.11 84.6063 103.95 83.9898C102.683 83.334 101.273 83.0058 99.8475 83.035C98.3123 83.0182 96.7969 83.3843 95.4371 84.1005C94.1756 84.766 93.1211 85.7683 92.3897 86.9972C91.6704 88.2839 91.2926 89.7349 91.2926 91.2107C91.2926 92.6866 91.6704 94.1376 92.3897 95.4243C93.1206 96.6619 94.1808 97.6699 95.4508 98.3348C96.8131 99.0421 98.3281 99.4002 99.8613 99.3772C101.279 99.4032 102.681 99.0701 103.937 98.4086C105.095 97.7817 106.038 96.8169 106.64 95.6411L106.732 95.4612L103.606 93.6162L103.501 93.7868Z" fill="white"/>
<path d="M115.479 83.0401C114.238 83.0353 113.002 83.2045 111.808 83.5429C110.731 83.8397 109.718 84.3338 108.82 85.0005L108.678 85.1112L110.302 88.137L110.495 87.9756C111.104 87.4811 111.802 87.1085 112.551 86.8778C113.358 86.6163 114.2 86.4825 115.048 86.4811C116.264 86.4811 117.186 86.7578 117.801 87.3021C118.115 87.6021 118.359 87.9671 118.518 88.3718C118.676 88.7765 118.745 89.2111 118.719 89.6453L114.938 89.6684C112.68 89.6684 110.995 90.1296 109.93 90.9783C109.406 91.3974 108.986 91.9337 108.704 92.5447C108.422 93.1557 108.285 93.8245 108.306 94.4977C108.296 95.3932 108.555 96.271 109.049 97.0162C109.576 97.7764 110.302 98.3751 111.147 98.7459C113.124 99.5426 115.327 99.564 117.319 98.8058C117.928 98.5479 118.475 98.1609 118.921 97.6711V99.1564H122.698V89.8483C122.698 87.5881 122.065 85.8676 120.821 84.7376C119.578 83.6075 117.797 83.0401 115.479 83.0401ZM118.692 92.5005V94.0549C118.434 94.7458 117.948 95.327 117.315 95.7016C116.617 96.1034 115.824 96.3089 115.02 96.2966C114.298 96.3407 113.581 96.1516 112.973 95.7569C112.753 95.6016 112.574 95.3941 112.452 95.1528C112.331 94.9114 112.27 94.6437 112.276 94.3732C112.276 93.1232 113.23 92.5281 115.195 92.5281L118.692 92.5005Z" fill="white"/>
<path d="M130.785 85.0557V83.2107H126.925V99.1517H130.959V91.4164C130.959 89.9312 131.34 88.7826 132.088 88.0031C132.504 87.5993 132.998 87.2867 133.54 87.085C134.082 86.8833 134.66 86.797 135.237 86.8316C135.505 86.835 135.772 86.8628 136.035 86.9146L136.279 86.9607V83.04H136.072C133.681 83.04 131.905 83.7181 130.785 85.0557Z" fill="white"/>
<path d="M142.791 85.0557V83.2107H138.931V99.1517H142.965V91.4164C142.965 89.9312 143.342 88.7826 144.09 88.0031C144.506 87.6 145 87.2878 145.542 87.0862C146.084 86.8846 146.661 86.7979 147.238 86.8316C147.508 86.8347 147.777 86.8625 148.041 86.9146L148.284 86.9607V83.04H148.078C145.687 83.04 143.911 83.7181 142.791 85.0557Z" fill="white"/>
<path d="M162.576 83.2158L157.826 94.3736L153.159 83.3404L153.104 83.2158H148.89L155.742 99.0046L155.518 99.5304C155.286 100.135 154.915 100.676 154.434 101.108C154.02 101.425 153.509 101.588 152.989 101.569C152.524 101.567 152.064 101.473 151.635 101.292C151.205 101.117 150.81 100.866 150.469 100.55L150.272 100.365L148.624 103.419L148.739 103.529C149.298 104.025 149.955 104.398 150.667 104.623C151.425 104.876 152.218 105.006 153.016 105.01C154.298 105.04 155.557 104.664 156.614 103.935C157.606 103.225 158.45 101.998 159.143 100.287L166.486 83.2204L162.576 83.2158Z" fill="white"/>
<path d="M127.288 9.93545C125.727 6.09781 119.848 4.917 109.82 6.43453C108.278 6.66516 106.645 6.97881 104.979 7.32936C100.627 3.64961 95.3581 1.23475 89.7405 0.345685C84.1229 -0.543385 78.3704 0.127128 73.1044 2.28478C67.8384 4.44244 63.2591 8.00521 59.8612 12.5882C56.4633 17.1712 54.376 22.6002 53.8247 28.2888C44.0584 34.5572 37.7617 41.0332 39.7305 45.9041C40.9192 48.8284 44.6412 50.0554 49.887 50.0554C52.9869 50.012 56.0776 49.7034 59.1255 49.1329C62.8884 54.6756 68.3195 58.8607 74.6221 61.0745C80.9247 63.2883 87.7672 63.4142 94.1462 61.4338C100.525 59.4534 106.105 55.4709 110.067 50.0703C114.03 44.6698 116.166 38.1353 116.163 31.4253C116.161 29.569 115.994 27.7165 115.663 25.8902C116.2 25.5166 116.732 25.1476 117.242 24.7786C125.452 18.7593 128.83 13.7823 127.288 9.93545ZM56.6105 45.1661C46.9268 46.6329 44.0217 45.0231 43.7188 44.2805C43.4159 43.5378 44.3659 40.3414 52.301 34.5664C52.7599 34.2205 53.2877 33.8699 53.7926 33.5194C54.0572 37.5523 55.0984 41.4951 56.8583 45.1292L56.6105 45.1661ZM84.964 58.5425C80.8829 58.542 76.8551 57.6102 73.1845 55.8172C69.5139 54.0242 66.2964 51.4169 63.7746 48.1919C69.8455 46.7568 75.823 44.9483 81.6734 42.7768L81.7973 42.726C84.0416 41.9004 86.2858 41.0332 88.4933 40.1292C90.6228 39.2528 92.6972 38.3395 94.735 37.4124L95.0975 37.2648C95.0975 37.2648 93.8446 40.8995 85.1935 44.7878C85.9156 46.7059 86.3067 48.7338 86.35 50.7842C86.3448 50.9794 86.3987 51.1716 86.5046 51.3354C86.6104 51.4992 86.7633 51.6267 86.9429 51.7012C87.1226 51.7758 87.3205 51.7937 87.5105 51.7526C87.7004 51.7116 87.8735 51.6135 88.0068 51.4714L104.547 33.8238C104.72 33.6416 104.836 33.4126 104.88 33.1651C104.925 32.9176 104.897 32.6623 104.8 32.4306C104.702 32.1988 104.54 32.0008 104.332 31.8607C104.124 31.7206 103.88 31.6446 103.629 31.6421L79.2731 31.4115C79.0782 31.4088 78.8872 31.4659 78.7254 31.5751C78.5635 31.6844 78.4387 31.8406 78.3674 32.0229C78.2961 32.2052 78.2818 32.4051 78.3264 32.5958C78.371 32.7865 78.4723 32.959 78.6168 33.0904C80.1994 34.3804 81.3049 36.1672 81.756 38.1642C75.0664 40.7294 68.1952 42.7877 61.1999 44.322C58.3861 39.0997 57.3555 33.0935 58.2665 27.2256C59.1775 21.3578 61.9796 15.9526 66.2427 11.8401C70.5058 7.72756 75.9941 5.13503 81.865 4.46056C87.7359 3.78608 93.6648 5.06695 98.7413 8.1065C103.818 11.146 107.761 15.7762 109.966 21.2861C112.171 26.796 112.516 32.881 110.947 38.6068C109.379 44.3326 105.983 49.3826 101.283 52.9815C96.5824 56.5804 90.8364 58.5292 84.9273 58.5286L84.964 58.5425ZM114.795 21.2823C114.731 21.333 114.658 21.3792 114.589 21.4299C113.304 17.599 111.295 14.0533 108.673 10.9871C109.283 10.8764 109.894 10.7703 110.486 10.6827C112.763 10.3146 115.064 10.1157 117.37 10.0877C121.652 10.0877 123.167 11.0471 123.382 11.5729C123.616 12.3017 122.698 15.4982 114.74 21.2685L114.795 21.2823Z" fill="white"/>
</g>
<defs>
<clipPath id="clip0_256_14836">
<rect width="166" height="105" fill="white" transform="translate(0.5)"/>
</clipPath>
</defs>
</svg>
