<svg width="82" height="94" viewBox="0 0 82 94" fill="none" xmlns="http://www.w3.org/2000/svg">
<circle opacity="0.2" cx="41" cy="53" r="41" fill="#5081FF"/>
<circle cx="41" cy="53" r="10" fill="#5081FF"/>
<path fill-rule="evenodd" clip-rule="evenodd" d="M42.5 41.856C42.5 37.3738 46.1395 33.8196 49.9484 31.457C54.7814 28.4592 58 23.1055 58 17C58 7.61116 50.3888 0 41 0C31.6112 0 24 7.61116 24 17C24 23.1055 27.2186 28.4592 32.0516 31.457C35.8605 33.8196 39.5 37.3738 39.5 41.856V49C39.5 49.8284 40.1716 50.5 41 50.5C41.8284 50.5 42.5 49.8284 42.5 49V41.856ZM45 17C45 19.2091 43.2091 21 41 21C38.7909 21 37 19.2091 37 17C37 14.7909 38.7909 13 41 13C43.2091 13 45 14.7909 45 17Z" fill="#242424"/>
</svg>
