<svg width="127" height="79" viewBox="0 0 127 79" fill="none" xmlns="http://www.w3.org/2000/svg">
<path d="M94.747 12.5445L88.019 6.84265V3.42133C88.019 1.48279 86.5362 0 84.5976 0H42.4038C40.4653 0 38.9825 1.48273 38.9825 3.42133V6.84265L32.2545 12.5445C31.4558 13.2286 31 14.2548 31 15.3955V19.3872C31 22.3519 32.9385 24.8608 35.5611 25.8877V46.1864C35.5611 47.0988 36.3597 47.8966 37.2713 47.8966C38.1837 47.8966 38.9816 47.098 38.9816 46.1864L38.9824 26.1154C40.5788 25.8871 41.9471 25.0892 42.9741 23.9485C44.2285 25.3167 46.0533 26.229 48.1056 26.229C50.1578 26.229 51.9826 25.3166 53.237 23.9485C54.4915 25.3167 56.3163 26.229 58.3685 26.229C60.4208 26.229 62.2456 25.3166 63.5 23.9485C64.7545 25.3167 66.5792 26.229 68.6315 26.229C70.6838 26.229 72.5086 25.3166 73.763 23.9485C75.0174 25.3167 76.8422 26.229 78.8944 26.229C80.9467 26.229 82.7715 25.3166 84.0259 23.9485C85.0521 25.0892 86.4211 25.887 88.0176 26.1154V46.1858C88.0176 47.0982 88.8163 47.896 89.7279 47.896C90.6403 47.896 91.4381 47.0974 91.4381 46.1858L91.4389 25.8871C94.0616 24.9747 96 22.4658 96 19.3866V15.3949C96.0008 14.2549 95.5442 13.2288 94.7464 12.5447L94.747 12.5445ZM42.4038 3.42133H84.5976V6.84265H42.4038V3.42133ZM89.8434 22.6939C88.1331 23.0359 86.5367 22.0098 85.9663 20.6416C85.738 19.9567 85.0539 19.3871 84.2561 19.3871H83.914C83.1154 19.3871 82.4313 19.9575 82.0892 20.6416C81.5189 21.896 80.3782 22.8077 78.8962 22.8077C77.4134 22.8077 76.2735 21.8953 75.7031 20.6408C75.4748 19.9567 74.7907 19.3871 73.9921 19.3871H73.65C72.8514 19.3871 72.1673 19.9575 71.8253 20.6416C71.2557 21.896 70.115 22.8077 68.6322 22.8077C67.1494 22.8077 66.0096 21.8953 65.4392 20.6408C65.2117 19.9567 64.5268 19.3871 63.7289 19.3871H63.3869C62.5882 19.3871 61.9042 19.9575 61.5621 20.6416C60.9917 21.896 59.8519 22.8077 58.369 22.8077C56.8862 22.8077 55.7464 21.8953 55.176 20.6408C54.9477 19.9567 54.2636 19.3871 53.4658 19.3871H53.1237C52.3251 19.3871 51.641 19.9575 51.2989 20.6416C50.7286 21.896 49.5879 22.8077 48.1059 22.8077C46.7377 22.8077 45.4832 21.8953 44.9128 20.7554C44.5708 19.9568 43.8867 19.3872 43.0881 19.3872H42.746C41.9474 19.3872 41.2633 19.9576 41.0358 20.6417C40.4654 22.1244 38.8688 23.0369 37.1587 22.6939C35.5614 22.4656 34.4208 20.8692 34.4208 19.2726V15.2817L40.2365 10.2639H86.7638L92.5795 15.2817L92.5803 15.9658V19.2725C92.5803 20.869 91.4396 22.4655 89.8432 22.6938L89.8434 22.6939Z" fill="#978284"/>
<path d="M83.457 29.6501H60.6495C59.9654 29.6501 59.5088 30.2205 59.5088 30.7908L59.5096 44.4751C59.5096 45.1592 60.0799 45.6158 60.6503 45.6158L83.4578 45.615C84.1419 45.615 84.5985 45.0447 84.5985 44.4743V30.7909C84.5985 30.2205 84.0281 29.6502 83.4578 29.6502L83.457 29.6501ZM82.3171 43.3344H61.7903V31.9307H82.3171V43.3344Z" fill="#978284"/>
<path d="M54.9478 29.6501H43.544C42.8599 29.6501 42.4033 30.1059 42.4033 30.7908V46.7557C42.4033 47.4398 42.8591 47.8964 43.544 47.8964H44.6847V31.9307H53.8079V47.8956H54.9486C55.6327 47.8956 56.0893 47.4398 56.0893 46.7549L56.0885 30.7906C56.0885 30.1057 55.6319 29.6499 54.9478 29.6499L54.9478 29.6501Z" fill="#978284"/>
<path d="M2.06675 72L2.25875 56.4H6.26675L10.6348 67.896H10.7308L15.0268 56.4H18.7468L18.9148 72H15.6748L15.5068 60.192H15.4348L11.0908 72H8.61875L4.27475 60.192H4.20275L4.13075 72H2.06675ZM25.1174 72.264C23.9974 72.264 23.1014 71.984 22.4294 71.424C21.7574 70.864 21.4214 70.096 21.4214 69.12C21.4214 67.712 22.0774 66.696 23.3894 66.072C24.7174 65.432 26.2614 65.04 28.0214 64.896V64.2C28.0214 63.112 27.8694 62.368 27.5654 61.968C27.2614 61.552 26.7494 61.344 26.0294 61.344C25.6934 61.344 25.3094 61.408 24.8774 61.536C24.4614 61.664 24.0934 61.8 23.7734 61.944C23.4694 62.088 23.2694 62.184 23.1734 62.232L22.8614 60.696C22.9574 60.648 23.1814 60.552 23.5334 60.408C23.9014 60.248 24.3574 60.096 24.9014 59.952C25.4614 59.808 26.0214 59.736 26.5814 59.736C28.0854 59.736 29.2294 60.056 30.0134 60.696C30.8134 61.32 31.2134 62.4 31.2134 63.936V69.384C31.2134 70.232 31.3814 70.656 31.7174 70.656C31.8454 70.656 31.9974 70.632 32.1734 70.584C32.3494 70.536 32.4694 70.504 32.5334 70.488L32.6294 71.736C32.5494 71.768 32.3574 71.824 32.0534 71.904C31.7494 71.984 31.3974 72.064 30.9974 72.144C30.6134 72.224 30.2694 72.264 29.9654 72.264C29.5014 72.264 29.1414 72.152 28.8854 71.928C28.6294 71.688 28.4614 71.304 28.3814 70.776H28.2614C28.2614 70.824 28.1494 70.976 27.9254 71.232C27.7174 71.472 27.3814 71.704 26.9174 71.928C26.4534 72.152 25.8534 72.264 25.1174 72.264ZM26.1734 70.656C26.5574 70.656 26.8854 70.56 27.1574 70.368C27.4454 70.176 27.6614 69.968 27.8054 69.744C27.9494 69.504 28.0214 69.368 28.0214 69.336V66.168C26.9494 66.28 26.1334 66.536 25.5734 66.936C25.0294 67.32 24.7574 67.912 24.7574 68.712C24.7574 69.352 24.8854 69.84 25.1414 70.176C25.3974 70.496 25.7414 70.656 26.1734 70.656ZM34.5181 60H36.7741L37.3021 62.016H37.3981C37.3981 61.92 37.4621 61.688 37.5901 61.32C37.7181 60.936 37.9501 60.576 38.2861 60.24C38.6381 59.904 39.1021 59.736 39.6781 59.736C39.9981 59.736 40.3581 59.784 40.7581 59.88C41.1741 59.976 41.4461 60.04 41.5741 60.072L41.2861 62.304C41.1581 62.272 40.8701 62.208 40.4221 62.112C39.9901 62.016 39.6141 61.968 39.2941 61.968C38.9261 61.968 38.6221 62.08 38.3821 62.304C38.1581 62.512 37.9901 62.736 37.8781 62.976C37.7661 63.216 37.7101 63.36 37.7101 63.408V72H34.5181V60ZM43.0254 72V54.096L46.2174 53.904V65.088L47.8734 63.96L50.4174 60H52.3854L49.2654 64.464L53.1534 72H49.5054L46.8174 66.384L46.2174 66.768V72H43.0254ZM59.7104 72.264C57.9344 72.264 56.5504 71.776 55.5584 70.8C54.5824 69.808 54.0944 68.28 54.0944 66.216C54.0944 64.136 54.5744 62.544 55.5344 61.44C56.4944 60.32 57.7904 59.76 59.4224 59.76C60.9104 59.76 62.0624 60.232 62.8784 61.176C63.7104 62.104 64.1264 63.44 64.1264 65.184C64.1264 65.584 64.0944 65.92 64.0304 66.192C63.9824 66.464 63.9504 66.632 63.9344 66.696H57.4784C57.4944 68.136 57.7024 69.16 58.1024 69.768C58.5184 70.36 59.1824 70.656 60.0944 70.656C60.6384 70.656 61.1184 70.544 61.5344 70.32C61.9504 70.08 62.2784 69.824 62.5184 69.552C62.7584 69.264 62.8784 69.104 62.8784 69.072L63.9584 69.912C63.9584 69.976 63.7904 70.208 63.4544 70.608C63.1344 71.008 62.6544 71.384 62.0144 71.736C61.3904 72.088 60.6224 72.264 59.7104 72.264ZM61.1504 65.136V64.584C61.1504 63.368 61.0224 62.52 60.7664 62.04C60.5104 61.544 60.0624 61.296 59.4224 61.296C58.9744 61.296 58.6144 61.408 58.3424 61.632C58.0864 61.856 57.8864 62.248 57.7424 62.808C57.5984 63.352 57.5104 64.128 57.4784 65.136H61.1504ZM69.9736 72.264C68.8376 72.264 67.9976 71.984 67.4536 71.424C66.9096 70.864 66.6376 69.92 66.6376 68.592V61.848H65.4856V60.408L66.6616 60.072L68.1976 56.016H69.8296V60H72.4696V61.848H69.8296V67.776C69.8296 68.528 69.8616 69.104 69.9256 69.504C70.0056 69.888 70.1256 70.16 70.2856 70.32C70.4456 70.464 70.6696 70.536 70.9576 70.536C71.2776 70.536 71.5656 70.504 71.8216 70.44C72.0776 70.376 72.2056 70.336 72.2056 70.32L72.3976 71.688C72.3976 71.704 72.3096 71.76 72.1336 71.856C71.9576 71.952 71.6856 72.04 71.3176 72.12C70.9656 72.216 70.5176 72.264 69.9736 72.264ZM74.6666 60H77.2346L77.6666 61.08H77.7386C77.7386 61.048 77.8746 60.92 78.1466 60.696C78.4186 60.456 78.7946 60.24 79.2746 60.048C79.7546 59.84 80.3306 59.736 81.0026 59.736C82.4266 59.736 83.5466 60.28 84.3626 61.368C85.1786 62.456 85.5866 63.92 85.5866 65.76C85.5866 67.056 85.3946 68.2 85.0106 69.192C84.6266 70.168 84.0746 70.928 83.3546 71.472C82.6506 72 81.8106 72.264 80.8346 72.264C80.2106 72.264 79.6826 72.192 79.2506 72.048C78.8186 71.92 78.4906 71.784 78.2666 71.64C78.0426 71.48 77.9306 71.384 77.9306 71.352H77.8586V78L74.6666 78.096V60ZM79.6346 70.44C80.2426 70.44 80.7226 70.296 81.0746 70.008C81.4426 69.72 81.7146 69.248 81.8906 68.592C82.0666 67.92 82.1546 67 82.1546 65.832C82.1546 64.728 82.0666 63.872 81.8906 63.264C81.7306 62.64 81.4826 62.208 81.1466 61.968C80.8266 61.728 80.4026 61.608 79.8746 61.608C79.4906 61.608 79.1466 61.68 78.8426 61.824C78.5546 61.968 78.3226 62.12 78.1466 62.28C77.9866 62.44 77.8906 62.56 77.8586 62.64V69.648C77.8906 69.696 77.9706 69.784 78.0986 69.912C78.2266 70.024 78.4186 70.144 78.6746 70.272C78.9466 70.384 79.2666 70.44 79.6346 70.44ZM87.7447 72V54.096L90.9367 53.904V72H87.7447ZM96.7424 72.264C95.6224 72.264 94.7264 71.984 94.0544 71.424C93.3824 70.864 93.0464 70.096 93.0464 69.12C93.0464 67.712 93.7024 66.696 95.0144 66.072C96.3424 65.432 97.8864 65.04 99.6464 64.896V64.2C99.6464 63.112 99.4944 62.368 99.1904 61.968C98.8864 61.552 98.3744 61.344 97.6544 61.344C97.3184 61.344 96.9344 61.408 96.5024 61.536C96.0864 61.664 95.7184 61.8 95.3984 61.944C95.0944 62.088 94.8944 62.184 94.7984 62.232L94.4864 60.696C94.5824 60.648 94.8064 60.552 95.1584 60.408C95.5264 60.248 95.9824 60.096 96.5264 59.952C97.0864 59.808 97.6464 59.736 98.2064 59.736C99.7104 59.736 100.854 60.056 101.638 60.696C102.438 61.32 102.838 62.4 102.838 63.936V69.384C102.838 70.232 103.006 70.656 103.342 70.656C103.47 70.656 103.622 70.632 103.798 70.584C103.974 70.536 104.094 70.504 104.158 70.488L104.254 71.736C104.174 71.768 103.982 71.824 103.678 71.904C103.374 71.984 103.022 72.064 102.622 72.144C102.238 72.224 101.894 72.264 101.59 72.264C101.126 72.264 100.766 72.152 100.51 71.928C100.254 71.688 100.086 71.304 100.006 70.776H99.8864C99.8864 70.824 99.7744 70.976 99.5504 71.232C99.3424 71.472 99.0064 71.704 98.5424 71.928C98.0784 72.152 97.4784 72.264 96.7424 72.264ZM97.7984 70.656C98.1824 70.656 98.5104 70.56 98.7824 70.368C99.0704 70.176 99.2864 69.968 99.4304 69.744C99.5744 69.504 99.6464 69.368 99.6464 69.336V66.168C98.5744 66.28 97.7584 66.536 97.1984 66.936C96.6544 67.32 96.3824 67.912 96.3824 68.712C96.3824 69.352 96.5104 69.84 96.7664 70.176C97.0224 70.496 97.3664 70.656 97.7984 70.656ZM111.111 72.264C109.271 72.264 107.855 71.736 106.863 70.68C105.887 69.624 105.399 68.088 105.399 66.072C105.399 64.12 105.911 62.576 106.935 61.44C107.959 60.304 109.375 59.736 111.183 59.736C111.679 59.736 112.183 59.808 112.695 59.952C113.223 60.08 113.663 60.224 114.015 60.384C114.367 60.528 114.591 60.624 114.687 60.672L114.375 62.208C114.295 62.16 114.095 62.072 113.775 61.944C113.455 61.8 113.087 61.664 112.671 61.536C112.255 61.408 111.879 61.344 111.543 61.344C110.935 61.344 110.439 61.472 110.055 61.728C109.671 61.984 109.375 62.456 109.167 63.144C108.959 63.816 108.855 64.776 108.855 66.024C108.855 67.8 109.079 69.016 109.527 69.672C109.975 70.328 110.615 70.656 111.447 70.656C112.007 70.656 112.487 70.536 112.887 70.296C113.303 70.04 113.623 69.776 113.847 69.504C114.071 69.216 114.183 69.048 114.183 69L115.311 69.72C115.311 69.816 115.167 70.08 114.879 70.512C114.591 70.928 114.135 71.328 113.511 71.712C112.887 72.08 112.087 72.264 111.111 72.264ZM121.726 72.264C119.95 72.264 118.566 71.776 117.574 70.8C116.598 69.808 116.11 68.28 116.11 66.216C116.11 64.136 116.59 62.544 117.55 61.44C118.51 60.32 119.806 59.76 121.438 59.76C122.926 59.76 124.078 60.232 124.894 61.176C125.726 62.104 126.142 63.44 126.142 65.184C126.142 65.584 126.11 65.92 126.046 66.192C125.998 66.464 125.966 66.632 125.95 66.696H119.494C119.51 68.136 119.718 69.16 120.118 69.768C120.534 70.36 121.198 70.656 122.11 70.656C122.654 70.656 123.134 70.544 123.55 70.32C123.966 70.08 124.294 69.824 124.534 69.552C124.774 69.264 124.894 69.104 124.894 69.072L125.974 69.912C125.974 69.976 125.806 70.208 125.47 70.608C125.15 71.008 124.67 71.384 124.03 71.736C123.406 72.088 122.638 72.264 121.726 72.264ZM123.166 65.136V64.584C123.166 63.368 123.038 62.52 122.782 62.04C122.526 61.544 122.078 61.296 121.438 61.296C120.99 61.296 120.63 61.408 120.358 61.632C120.102 61.856 119.902 62.248 119.758 62.808C119.614 63.352 119.526 64.128 119.494 65.136H123.166Z" fill="#978284"/>
</svg>
