<svg width="40" height="40" viewBox="0 0 40 40" fill="none" xmlns="http://www.w3.org/2000/svg">
<rect x="0.5" y="0.5" width="39" height="39" rx="19.5" fill="#F9F9F9"/>
<g clip-path="url(#clip0_914_13832)">
<path d="M19.7228 25.3277C20.2532 27.3073 19.0784 29.3422 17.0987 29.8726C15.1191 30.4031 13.0842 29.2282 12.5538 27.2486L11.3406 22.7208L14.5312 20.5469L18.5096 20.7999L19.7228 25.3277ZM30 25.5078C30 23.0308 27.9848 21.0156 25.5078 21.0156C23.0308 21.0156 21.0156 23.0308 21.0156 25.5078C21.0156 27.9848 23.0308 30 25.5078 30C27.9848 30 30 27.9848 30 25.5078ZM20.9333 18.7234C21.7636 19.376 22.8098 19.7656 23.9453 19.7656C26.6377 19.7656 28.8281 17.5752 28.8281 14.8828C28.8281 13.7473 28.4385 12.7011 27.7859 11.8708L26.9531 11.875L26.9573 11.0422C26.127 10.3896 25.0808 10 23.9453 10C21.2529 10 19.0625 12.1904 19.0625 14.8828C19.0625 16.0183 19.4521 17.0645 20.1047 17.8948L20.9375 17.8906L20.9333 18.7234Z" fill="url(#paint0_linear_914_13832)"/>
<path d="M27.6563 25.5076C27.6563 25.8312 27.3939 26.0936 27.0703 26.0936H26.0938V27.0701C26.0938 27.3937 25.8314 27.6561 25.5078 27.6561C25.1842 27.6561 24.9219 27.3937 24.9219 27.0701V26.0936H23.9453C23.6217 26.0936 23.3594 25.8312 23.3594 25.5076C23.3594 25.184 23.6217 24.9217 23.9453 24.9217H24.9219V23.9451C24.9219 23.6215 25.1842 23.3592 25.5078 23.3592C25.8314 23.3592 26.0938 23.6215 26.0938 23.9451V24.9217H27.0703C27.3939 24.9217 27.6563 25.184 27.6563 25.5076ZM17.2964 16.272C16.7659 14.2923 14.7311 13.1175 12.7514 13.6479H12.7514C10.7717 14.1784 9.59693 16.2132 10.1274 18.1929L11.3406 22.7207L18.5095 20.7997L17.2964 16.272ZM26.9573 11.042L20.1047 17.8946C20.3469 18.2027 20.6252 18.4811 20.9333 18.7232L27.786 11.8706C27.5438 11.5625 27.2654 11.2841 26.9573 11.042Z" fill="url(#paint1_linear_914_13832)"/>
</g>
<rect x="0.5" y="0.5" width="39" height="39" rx="19.5" stroke="white"/>
<defs>
<linearGradient id="paint0_linear_914_13832" x1="20.6703" y1="30" x2="20.6703" y2="10" gradientUnits="userSpaceOnUse">
<stop stop-color="#FD3A84"/>
<stop offset="1" stop-color="#FFA68D"/>
</linearGradient>
<linearGradient id="paint1_linear_914_13832" x1="18.893" y1="27.6561" x2="18.893" y2="11.042" gradientUnits="userSpaceOnUse">
<stop stop-color="#FFC8D1"/>
<stop offset="1" stop-color="#FFF6F7"/>
</linearGradient>
<clipPath id="clip0_914_13832">
<rect width="20" height="20" fill="white" transform="translate(10 10)"/>
</clipPath>
</defs>
</svg>
