<svg width="37" height="36" viewBox="0 0 37 36" fill="none" xmlns="http://www.w3.org/2000/svg">
<path d="M29 18C29 12.3391 24.4109 7.75 18.75 7.75C13.0891 7.75 8.5 12.3391 8.5 18C8.5 23.6609 13.0891 28.25 18.75 28.25C24.4109 28.25 29 23.6609 29 18Z" stroke="#469DDD" stroke-width="1.5"/>
<path d="M14.75 19C15.3023 19 15.75 18.5523 15.75 18C15.75 17.4477 15.3023 17 14.75 17C14.1977 17 13.75 17.4477 13.75 18C13.75 18.5523 14.1977 19 14.75 19Z" fill="#469DDD"/>
<path d="M18.75 19C19.3023 19 19.75 18.5523 19.75 18C19.75 17.4477 19.3023 17 18.75 17C18.1977 17 17.75 17.4477 17.75 18C17.75 18.5523 18.1977 19 18.75 19Z" fill="#469DDD"/>
<path d="M22.75 19C23.3023 19 23.75 18.5523 23.75 18C23.75 17.4477 23.3023 17 22.75 17C22.1977 17 21.75 17.4477 21.75 18C21.75 18.5523 22.1977 19 22.75 19Z" fill="#469DDD"/>
</svg>
