<svg width="249" height="123" viewBox="0 0 249 123" fill="none" xmlns="http://www.w3.org/2000/svg">
<path d="M162.769 119.782C162.654 120.412 162.374 121 161.957 121.487C161.541 121.973 161.002 122.341 160.397 122.551C159.792 122.761 159.142 122.808 158.514 122.685C157.885 122.562 157.3 122.275 156.819 121.852C149.049 115.032 134.109 101.162 129.539 91.6519C122.719 77.4519 124.219 70.6519 125.539 67.1519C127.531 62.1826 131.354 58.1668 136.219 55.9319C145.659 51.8719 156.469 56.6119 161.949 63.0919C165.599 67.4019 166.739 72.2919 167.479 79.3119C168.359 87.5819 164.729 109.122 162.769 119.782Z" fill="#C0969A" fill-opacity="0.5"/>
<path d="M77.789 117.732C77.2958 118.141 76.7028 118.412 76.0707 118.517C75.4385 118.622 74.7898 118.557 74.1908 118.33C73.5918 118.102 73.0641 117.719 72.6614 117.22C72.2588 116.722 71.9957 116.125 71.899 115.492C70.339 105.272 67.799 85.052 70.419 74.822C74.329 59.552 79.859 55.302 83.129 53.502C87.8387 50.9703 93.3407 50.3438 98.499 51.752C108.349 54.702 113.579 65.282 113.619 73.752C113.619 79.402 111.369 83.882 107.419 89.752C102.769 96.662 86.139 110.822 77.789 117.732Z" fill="#C0969A" fill-opacity="0.5"/>
<path d="M14.0089 61.5419C13.3683 61.5357 12.7408 61.3601 12.19 61.0329C11.6392 60.7057 11.1848 60.2385 10.873 59.6789C10.5612 59.1193 10.4031 58.4871 10.4147 57.8466C10.4262 57.206 10.6071 56.58 10.9389 56.032C16.3089 47.202 27.3689 30.032 35.9389 23.932C48.7389 14.742 55.7189 15.0319 59.3789 15.7619C64.6138 16.8582 69.2299 19.9177 72.2789 24.312C77.9289 32.892 75.1289 44.362 69.7089 50.882C66.0989 55.232 61.4689 57.202 54.7089 59.152C46.6889 61.452 24.8589 61.6119 14.0089 61.5419Z" fill="#C0969A" fill-opacity="0.5"/>
<path d="M1.27904 -22.5081C0.790244 -22.9225 0.420206 -23.4592 0.206741 -24.0634C-0.0067246 -24.6676 -0.0559574 -25.3177 0.0640405 -25.9471C0.184038 -26.5766 0.468974 -27.163 0.889755 -27.6463C1.31054 -28.1296 1.85206 -28.4925 2.45903 -28.6981C12.249 -32.0081 31.729 -38.018 42.259 -37.218C57.969 -36.018 63.119 -31.318 65.459 -28.408C66.129 -27.568 70.7991 -21.5881 69.8591 -13.5681C68.6591 -3.35806 59.1491 3.63194 50.7991 5.14194C45.2391 6.14194 40.4291 4.68195 33.979 1.81195C26.369 -1.56805 9.53904 -15.4781 1.27904 -22.5081Z" fill="#C0969A" fill-opacity="0.5"/>
<path d="M245.969 -16.5981C246.569 -16.3749 247.1 -15.9964 247.506 -15.5012C247.912 -15.0061 248.18 -14.4119 248.282 -13.7795C248.383 -13.1471 248.315 -12.499 248.085 -11.9014C247.854 -11.3039 247.469 -10.7782 246.969 -10.3781C238.909 -3.90806 222.649 8.39194 212.489 11.2419C197.319 15.4919 190.859 12.8319 187.669 10.9019C183.119 8.09026 179.825 3.636 178.469 -1.53806C176.099 -11.5381 182.649 -21.3581 189.979 -25.6381C194.859 -28.4881 199.879 -28.7581 206.919 -28.2681C215.229 -27.6881 235.799 -20.3681 245.969 -16.5981Z" fill="#C0969A" fill-opacity="0.5"/>
<path d="M229.189 66.7319C229.505 67.2895 229.668 67.9209 229.661 68.5618C229.654 69.2027 229.477 69.8304 229.149 70.381C228.821 70.9316 228.353 71.3855 227.793 71.6966C227.232 72.0076 226.599 72.1648 225.959 72.152C215.629 71.932 195.259 70.9319 185.629 66.5419C171.269 60.0519 168.039 53.862 166.829 50.332C166.489 49.332 164.149 42.092 167.779 34.882C172.399 25.702 183.729 22.382 192.089 23.822C197.659 24.772 201.679 27.822 206.749 32.692C212.769 38.482 223.829 57.312 229.189 66.7319Z" fill="#C0969A" fill-opacity="0.5"/>
<path d="M181.499 75.0119C181.634 75.6236 181.604 76.2601 181.413 76.8565C181.221 77.4529 180.875 77.9878 180.409 78.4067C179.944 78.8256 179.375 79.1134 178.762 79.2408C178.149 79.3683 177.513 79.3307 176.919 79.132C167.349 75.922 148.639 69.0719 140.919 62.2319C129.409 52.0019 128.179 45.3019 128.079 41.6519C127.998 36.4278 129.915 31.37 133.439 27.5119C140.439 20.2819 151.939 20.4619 159.329 24.2319C164.249 26.7319 167.119 30.7119 170.449 36.7619C174.369 43.9319 179.229 64.6719 181.499 75.0119Z" fill="#CDABAE" fill-opacity="0.5"/>
<path d="M120.919 95.4819C120.629 96.0379 120.197 96.5069 119.667 96.8411C119.136 97.1753 118.527 97.3626 117.9 97.384C117.274 97.4054 116.653 97.26 116.101 96.9627C115.549 96.6654 115.086 96.2269 114.759 95.6919C109.489 87.0719 99.5588 69.802 98.0488 59.602C95.7988 44.372 99.1788 38.442 101.439 35.602C104.734 31.5435 109.457 28.8994 114.639 28.2119C124.639 27.1519 133.339 34.7119 136.579 42.3419C138.739 47.4219 138.379 52.3419 137.039 59.0819C135.459 67.0519 125.829 86.0919 120.919 95.4819Z" fill="#CDABAE" fill-opacity="0.5"/>
<path d="M61.3592 72.2119C60.78 72.4508 60.1478 72.5316 59.5271 72.4462C58.9065 72.3608 58.3196 72.1122 57.8265 71.7258C57.3333 71.3394 56.9515 70.8291 56.7201 70.2469C56.4887 69.6647 56.4159 69.0315 56.5092 68.412C57.9992 58.412 61.5092 38.812 66.8992 30.0319C74.9692 16.912 81.3592 14.5419 84.8992 13.8119C90.0309 12.8204 95.3476 13.8293 99.7592 16.632C108.089 22.242 109.899 33.6319 107.479 41.5619C105.869 46.8419 102.479 50.3619 97.0692 54.6819C90.7692 59.7819 71.1492 68.1819 61.3592 72.2119Z" fill="#CDABAE" fill-opacity="0.5"/>
<path d="M30.679 16.102C30.0878 15.9096 29.5578 15.565 29.1421 15.1027C28.7264 14.6405 28.4398 14.0769 28.3111 13.4687C28.1824 12.8606 28.2161 12.2292 28.4088 11.6382C28.6015 11.0472 28.9465 10.5173 29.409 10.102C36.979 3.42196 52.259 -9.35804 62.049 -12.618C76.659 -17.478 83.049 -15.1881 86.289 -13.4481C90.8568 -10.9094 94.2807 -6.71988 95.859 -1.73807C98.629 7.91193 92.709 17.802 85.749 22.322C81.129 25.322 76.239 25.8319 69.349 25.6819C61.209 25.4819 40.779 19.312 30.679 16.102Z" fill="#CDABAE" fill-opacity="0.5"/>
<path d="M205.128 -42.8181C205.755 -42.8448 206.377 -42.7049 206.931 -42.4125C207.486 -42.1201 207.952 -41.6858 208.284 -41.1539C208.615 -40.622 208.8 -40.0116 208.818 -39.3851C208.837 -38.7586 208.688 -38.1385 208.388 -37.5881C203.558 -28.7181 193.568 -11.4881 185.488 -5.07807C173.418 4.49193 166.598 4.53194 162.988 3.99194C157.824 3.17714 153.171 0.409901 149.988 -3.73807C144.078 -11.8581 146.258 -23.1781 151.248 -29.7981C154.568 -34.2081 158.988 -36.3481 165.518 -38.5681C173.238 -41.1981 194.538 -42.3781 205.128 -42.8181Z" fill="#CDABAE" fill-opacity="0.5"/>
<path d="M214.759 20.4019C215.256 20.7837 215.642 21.2903 215.879 21.8702C216.116 22.4501 216.194 23.0824 216.107 23.7026C216.019 24.3228 215.769 24.9087 215.381 25.4004C214.993 25.8922 214.482 26.2724 213.899 26.502C204.499 30.192 185.759 36.9719 175.449 36.6819C160.059 36.2619 154.809 31.9119 152.389 29.1819C148.958 25.2362 147.169 20.1261 147.389 14.9019C148.079 4.90195 157.029 -2.38806 165.109 -4.25806C170.489 -5.49806 175.249 -4.25807 181.679 -1.79807C189.279 1.14193 206.369 13.9319 214.759 20.4019Z" fill="#CDABAE" fill-opacity="0.5"/>
<path d="M143.899 63.7519C143.75 64.3208 143.454 64.8402 143.039 65.2574C142.625 65.6745 142.108 65.9745 141.54 66.1269C140.972 66.2793 140.374 66.2786 139.806 66.1249C139.239 65.9712 138.722 65.67 138.309 65.2519C131.659 58.4919 118.899 44.7919 115.309 35.7819C110.009 22.3219 111.839 16.1819 113.309 13.0819C115.459 8.66737 119.221 5.24573 123.819 3.52193C132.729 0.421932 142.309 5.52194 146.899 11.7819C149.949 15.9719 150.669 20.5319 150.899 27.0019C151.159 34.6419 146.399 54.1119 143.899 63.7519Z" fill="#D9C0C2" fill-opacity="0.5"/>
<path d="M99.3588 62.6819C98.8789 63.0233 98.317 63.2314 97.7305 63.2848C97.144 63.3383 96.5538 63.2352 96.0201 62.9862C95.4864 62.7371 95.0284 62.351 94.6926 61.8671C94.3568 61.3833 94.1554 60.819 94.1088 60.2319C93.3588 50.7819 92.3888 32.0919 95.4588 22.9019C100.049 9.18193 105.399 5.65194 108.519 4.22194C113.002 2.22433 118.08 2.02034 122.709 3.65193C131.529 7.00193 135.609 17.0419 135.079 24.8119C134.729 29.9819 132.349 33.9419 128.349 39.0319C123.629 45.0519 107.459 56.9319 99.3588 62.6819Z" fill="#D9C0C2" fill-opacity="0.5"/>
<path d="M65.9192 33.2319C65.3321 33.1854 64.7679 32.9839 64.284 32.6481C63.8002 32.3124 63.414 31.8543 63.165 31.3206C62.9159 30.7869 62.8128 30.1967 62.8663 29.6102C62.9197 29.0237 63.1278 28.4618 63.4692 27.9819C68.9792 20.2519 80.2392 5.31196 88.4692 0.251957C100.799 -7.30804 107.169 -6.56806 110.469 -5.66806C115.193 -4.31743 119.219 -1.20739 121.719 3.02195C126.309 11.2519 122.989 21.5719 117.589 27.1819C113.989 30.922 109.589 32.4119 103.289 33.7419C95.8492 35.3219 75.8392 34.0119 65.9192 33.2319Z" fill="#D9C0C2" fill-opacity="0.5"/>
<path d="M59.2387 -10.828C58.8206 -11.2414 58.5195 -11.7581 58.3658 -12.3256C58.2121 -12.8931 58.2114 -13.4912 58.3638 -14.0591C58.5161 -14.6269 58.8162 -15.1443 59.2333 -15.5587C59.6505 -15.973 60.1699 -16.2695 60.7387 -16.418C69.9187 -18.798 88.1587 -23.008 97.7387 -21.568C112.039 -19.428 116.449 -14.7781 118.399 -11.9581C121.138 -7.88561 122.211 -2.91814 121.399 1.92195C119.619 11.182 110.449 16.922 102.709 17.782C97.5487 18.332 93.2487 16.672 87.5287 13.612C80.8187 10.012 66.3287 -3.84805 59.2387 -10.828Z" fill="#D9C0C2" fill-opacity="0.5"/>
<path d="M82.439 -48.868C82.381 -49.4542 82.4801 -50.0453 82.726 -50.5806C82.9718 -51.1159 83.3557 -51.5761 83.8382 -51.914C84.3207 -52.252 84.8844 -52.4554 85.4715 -52.5036C86.0585 -52.5518 86.6479 -52.4428 87.179 -52.188C95.749 -48.118 112.419 -39.608 118.839 -32.358C128.419 -21.518 128.839 -15.1281 128.489 -11.708C127.972 -6.82691 125.612 -2.32716 121.889 0.871967C114.569 6.82197 103.839 5.34197 97.369 1.00197C93.069 -1.88803 90.839 -5.92803 88.429 -11.938C85.629 -19.068 83.389 -38.968 82.439 -48.868Z" fill="#D9C0C2" fill-opacity="0.5"/>
<path d="M124.629 -63.0681C124.962 -63.5532 125.417 -63.9414 125.949 -64.1928C126.48 -64.4443 127.069 -64.55 127.655 -64.4991C128.241 -64.4482 128.803 -64.2426 129.283 -63.9033C129.764 -63.5641 130.145 -63.1032 130.389 -62.5681C134.329 -53.9381 141.639 -36.708 141.889 -27.018C142.269 -12.558 138.449 -7.41806 136.009 -5.01806C132.481 -1.60426 127.778 0.328171 122.869 0.381958C113.439 0.241959 106.169 -7.78804 104.009 -15.278C102.569 -20.278 103.459 -24.7881 105.469 -30.9481C107.889 -38.2281 119.019 -54.8981 124.629 -63.0681Z" fill="#D9C0C2" fill-opacity="0.5"/>
<path d="M166.159 -46.8581C166.726 -47.0162 167.325 -47.0208 167.894 -46.8714C168.463 -46.722 168.982 -46.4239 169.399 -46.0078C169.815 -45.5916 170.113 -45.0723 170.262 -44.503C170.412 -43.9337 170.407 -43.335 170.249 -42.7681C167.719 -33.6181 162.249 -15.7681 156.249 -8.14806C147.249 3.17194 141.019 4.66194 137.599 4.94194C132.699 5.28485 127.855 3.73905 124.059 0.621933C116.929 -5.54807 116.519 -16.3781 119.679 -23.4881C121.779 -28.2281 125.369 -31.1281 130.869 -34.5481C137.319 -38.5881 156.569 -44.2081 166.159 -46.8581Z" fill="#D9C0C2" fill-opacity="0.5"/>
<path d="M187.509 -7.74804C188.044 -7.5027 188.504 -7.11992 188.843 -6.6387C189.182 -6.15747 189.387 -5.59502 189.438 -5.0086C189.489 -4.42218 189.384 -3.83277 189.132 -3.30041C188.881 -2.76805 188.494 -2.31178 188.009 -1.97805C180.199 3.40195 164.499 13.582 155.009 15.5219C140.839 18.402 135.109 15.5219 132.309 13.5219C128.338 10.6395 125.621 6.34524 124.719 1.52195C123.219 -7.78805 129.859 -16.3381 136.859 -19.7681C141.519 -22.0481 146.129 -21.9581 152.539 -21.0481C160.099 -19.9481 178.449 -11.878 187.509 -7.74804Z" fill="#D9C0C2" fill-opacity="0.5"/>
<path d="M178.709 35.9319C178.963 36.4622 179.072 37.0505 179.024 37.6366C178.976 38.2228 178.774 38.7857 178.437 39.2678C178.1 39.75 177.642 40.1341 177.108 40.3808C176.574 40.6275 175.984 40.7279 175.399 40.6719C165.949 39.7719 147.399 37.4819 138.859 32.8519C126.149 25.9519 123.599 20.0719 122.739 16.7619C121.547 12.0028 122.223 6.96791 124.629 2.69194C129.469 -5.40806 140.059 -7.68807 147.629 -5.81807C152.629 -4.57807 156.149 -1.53806 160.469 3.28194C165.559 8.93194 174.439 26.9319 178.709 35.9319Z" fill="#D9C0C2" fill-opacity="0.5"/>
<path d="M147.779 29.5819C147.834 29.8385 147.82 30.105 147.738 30.3543C147.657 30.6037 147.51 30.8267 147.314 31.0007C147.117 31.1747 146.878 31.2934 146.621 31.3446C146.363 31.3957 146.097 31.3776 145.849 31.2919C141.849 29.9219 134.089 27.012 130.849 24.132C126.069 19.842 125.579 17.0419 125.549 15.5219C125.53 13.3396 126.345 11.2323 127.829 9.63196C130.749 6.63196 135.559 6.75195 138.629 8.34195C140.629 9.40195 141.859 11.072 143.229 13.602C144.889 16.582 146.859 25.2619 147.779 29.5819Z" fill="#E6D5D7" fill-opacity="0.5"/>
<path d="M124.289 39.0019C124.166 39.2321 123.984 39.4256 123.762 39.5629C123.54 39.7001 123.285 39.7761 123.024 39.7832C122.763 39.7903 122.505 39.7283 122.276 39.6034C122.047 39.4784 121.855 39.2951 121.719 39.072C119.539 35.462 115.449 28.2319 114.849 23.9719C113.949 17.6119 115.379 15.1519 116.329 13.9719C117.723 12.3039 119.701 11.2308 121.859 10.9719C126.019 10.5519 129.639 13.7319 130.969 16.9219C131.849 19.0419 131.689 21.0919 131.109 23.9219C130.429 27.1819 126.359 35.1019 124.289 39.0019Z" fill="#E6D5D7" fill-opacity="0.5"/>
<path d="M100.239 31.1119C99.9974 31.206 99.7352 31.2348 99.4788 31.1956C99.2223 31.1563 98.9807 31.0504 98.7781 30.8883C98.5755 30.7262 98.4191 30.5138 98.3245 30.2722C98.2299 30.0306 98.2005 29.7684 98.2392 29.5119C98.8892 25.3519 100.399 17.1819 102.679 13.5119C106.079 8.06192 108.759 7.09193 110.249 6.80193C112.393 6.39734 114.61 6.83428 116.439 8.02193C119.899 10.3819 120.619 15.1319 119.589 18.4319C118.899 20.6319 117.469 22.0919 115.209 23.8819C112.539 26.0119 104.339 29.4519 100.239 31.1119Z" fill="#E6D5D7" fill-opacity="0.5"/>
<path d="M86.8893 9.61195C86.6414 9.53014 86.4195 9.3842 86.2461 9.18892C86.0728 8.99364 85.9542 8.75598 85.9025 8.50007C85.8507 8.24416 85.8675 7.9791 85.9512 7.73179C86.035 7.48449 86.1827 7.26375 86.3793 7.09196C89.5493 4.32196 95.9593 -0.958042 100.049 -2.28804C106.159 -4.28804 108.829 -3.28804 110.169 -2.56804C112.065 -1.49634 113.479 0.260627 114.119 2.34196C115.259 6.34196 112.749 10.482 109.839 12.342C107.899 13.582 105.839 13.772 102.989 13.692C99.6293 13.612 91.0893 10.932 86.8893 9.61195Z" fill="#E6D5D7" fill-opacity="0.5"/>
<path d="M90.4792 -15.438C90.3414 -15.6602 90.2649 -15.9149 90.2574 -16.1762C90.25 -16.4375 90.3119 -16.6962 90.4369 -16.9258C90.5619 -17.1554 90.7454 -17.3478 90.9689 -17.4835C91.1924 -17.6191 91.4478 -17.6932 91.7092 -17.698C95.9192 -17.778 104.229 -17.698 108.219 -16.098C114.219 -13.698 115.589 -11.228 116.139 -9.80803C116.907 -7.77003 116.864 -5.51533 116.019 -3.50804C114.289 0.311958 109.739 1.85197 106.309 1.41197C104.019 1.11197 102.309 -0.0480537 100.189 -1.95805C97.6292 -4.20805 92.8292 -11.698 90.4792 -15.438Z" fill="#E6D5D7" fill-opacity="0.5"/>
<path d="M154.529 -17.4981C154.79 -17.5072 155.049 -17.4471 155.279 -17.3237C155.51 -17.2003 155.703 -17.0181 155.841 -16.7956C155.978 -16.5731 156.053 -16.3183 156.06 -16.057C156.067 -15.7957 156.004 -15.5373 155.879 -15.308C153.879 -11.618 149.619 -4.45805 146.229 -1.80805C141.169 2.19195 138.329 2.14195 136.829 1.91195C134.679 1.55228 132.748 0.386368 131.429 -1.34806C128.989 -4.74806 129.929 -9.46805 132.029 -12.2181C133.429 -14.0481 135.279 -14.928 138.029 -15.838C141.229 -16.908 150.119 -17.3381 154.529 -17.4981Z" fill="#E6D5D7" fill-opacity="0.5"/>
<path d="M159.72 7.27195C159.927 7.43309 160.087 7.64633 160.184 7.88987C160.282 8.1334 160.313 8.39849 160.274 8.65794C160.236 8.91738 160.129 9.1619 159.964 9.36643C159.8 9.57097 159.585 9.72818 159.34 9.82197C155.41 11.332 147.58 14.102 143.28 13.962C136.86 13.732 134.69 11.9019 133.68 10.7619C132.272 9.09008 131.557 6.94378 131.68 4.76194C131.99 0.581939 135.75 -2.41803 139.12 -3.17803C141.37 -3.67803 143.35 -3.17806 146.02 -2.10806C149.15 -0.828056 156.24 4.55195 159.72 7.27195Z" fill="#E6D5D7" fill-opacity="0.5"/>
<path d="M141.709 10.5419C141.83 10.7112 141.905 10.9099 141.924 11.1175C141.943 11.3251 141.906 11.534 141.817 11.7226C141.729 11.9112 141.591 12.0727 141.419 12.1904C141.247 12.3081 141.047 12.3777 140.839 12.3919C137.499 12.6419 130.909 12.9619 127.669 11.8619C122.829 10.2319 121.589 8.33193 121.089 7.23193C120.39 5.65044 120.322 3.86186 120.899 2.23193C122.099 -0.878075 125.649 -2.30807 128.389 -2.10807C130.219 -1.97807 131.609 -1.10808 133.389 0.291923C135.519 1.93192 139.689 7.67192 141.709 10.5419Z" fill="#F2EAEB" fill-opacity="0.5"/>
<path d="M131.88 20.5119C131.864 20.719 131.793 20.9182 131.675 21.0889C131.556 21.2596 131.395 21.3957 131.206 21.4833C131.018 21.5708 130.81 21.6067 130.603 21.5871C130.396 21.5675 130.198 21.4933 130.03 21.372C127.31 19.4219 122.03 15.422 120.27 12.502C117.62 8.13196 117.89 5.89196 118.21 4.72196C118.684 3.04233 119.787 1.60988 121.29 0.721956C124.2 -0.888044 127.84 0.301946 129.81 2.21195C131.13 3.48195 131.65 5.03194 132.11 7.27194C132.63 9.93194 132.17 17.0119 131.88 20.5119Z" fill="#F2EAEB" fill-opacity="0.5"/>
<path d="M117.939 21.832C117.794 21.9884 117.609 22.1023 117.404 22.1612C117.199 22.2201 116.982 22.2219 116.776 22.1663C116.57 22.1107 116.383 21.9998 116.235 21.8457C116.088 21.6916 115.985 21.5001 115.939 21.2919C115.109 18.0519 113.649 11.6119 114.169 8.23195C114.939 3.18194 116.589 1.63195 117.589 0.951946C119.025 -0.0192592 120.78 -0.398962 122.489 -0.108051C125.759 0.531949 127.779 3.78194 128.059 6.51194C128.249 8.33194 127.659 9.85195 126.579 11.8619C125.329 14.242 120.419 19.332 117.939 21.832Z" fill="#F2EAEB" fill-opacity="0.5"/>
<path d="M106.419 13.932C106.212 13.9501 106.004 13.9134 105.816 13.8254C105.628 13.7374 105.466 13.6013 105.347 13.4309C105.229 13.2604 105.157 13.0616 105.14 12.8546C105.123 12.6476 105.16 12.4397 105.249 12.252C106.699 9.25196 109.719 3.36197 112.249 1.10197C116.089 -2.26803 118.349 -2.38804 119.549 -2.27804C121.272 -2.08966 122.857 -1.24874 123.979 0.0719678C126.079 2.66197 125.539 6.44196 123.979 8.72196C122.979 10.242 121.519 11.0219 119.399 11.8619C116.949 12.8119 109.909 13.562 106.419 13.932Z" fill="#F2EAEB" fill-opacity="0.5"/>
<path d="M102.699 0.381965C102.538 0.261327 102.411 0.101485 102.329 -0.0823293C102.247 -0.266143 102.213 -0.467819 102.231 -0.668236C102.249 -0.868653 102.318 -1.06114 102.432 -1.22738C102.545 -1.39362 102.699 -1.52809 102.879 -1.61803C105.929 -2.99803 112.019 -5.54803 115.439 -5.61803C120.549 -5.72803 122.359 -4.37806 123.209 -3.51806C124.405 -2.26424 125.078 -0.600966 125.089 1.13197C125.029 4.46197 122.189 7.01195 119.539 7.77195C117.779 8.27195 116.189 7.95194 114.019 7.23194C111.449 6.33194 105.629 2.38197 102.699 0.381965Z" fill="#F2EAEB" fill-opacity="0.5"/>
<path d="M108.52 -12.348C108.467 -12.5483 108.467 -12.7589 108.522 -12.9587C108.576 -13.1586 108.682 -13.3406 108.829 -13.4865C108.976 -13.6324 109.159 -13.7371 109.359 -13.7901C109.559 -13.843 109.77 -13.8423 109.97 -13.7881C113.2 -12.8881 119.51 -10.9281 122.18 -8.78805C126.18 -5.59805 126.68 -3.39804 126.77 -2.18804C126.887 -0.459319 126.336 1.24854 125.23 2.58194C123.05 5.09194 119.23 5.22196 116.71 4.10196C115.04 3.35196 114.02 2.10196 112.82 0.101964C111.41 -2.15804 109.45 -8.95805 108.52 -12.348Z" fill="#F2EAEB" fill-opacity="0.5"/>
<path d="M121.169 -18.3581C121.26 -18.5374 121.396 -18.6906 121.562 -18.803C121.729 -18.9154 121.922 -18.9834 122.122 -19.0004C122.322 -19.0175 122.524 -18.983 122.707 -18.9003C122.89 -18.8177 123.05 -18.6895 123.169 -18.528C125.059 -15.768 128.629 -10.2081 129.299 -6.85806C130.299 -1.85806 129.299 0.141935 128.579 1.14194C127.556 2.54208 126.035 3.49743 124.329 3.81195C121.039 4.33195 118.029 1.97195 116.829 -0.498049C116.029 -2.14805 116.069 -3.77806 116.399 -6.03806C116.829 -8.69806 119.699 -15.1681 121.169 -18.3581Z" fill="#F2EAEB" fill-opacity="0.5"/>
<path d="M134.719 -14.8281C134.907 -14.9184 135.116 -14.9568 135.323 -14.9394C135.531 -14.922 135.731 -14.8494 135.901 -14.729C136.071 -14.6087 136.206 -14.445 136.292 -14.255C136.378 -14.0649 136.411 -13.8554 136.389 -13.648C136.059 -10.318 135.229 -3.76807 133.589 -0.768068C131.139 3.71193 129.059 4.60195 127.889 4.90195C126.197 5.33019 124.405 5.08649 122.889 4.22195C120.039 2.50195 119.249 -1.23805 119.889 -3.90805C120.329 -5.67805 121.409 -6.90804 123.109 -8.42804C125.189 -10.218 131.549 -13.3281 134.719 -14.8281Z" fill="#F2EAEB" fill-opacity="0.5"/>
<path d="M142.829 -3.41807C143.035 -3.36723 143.223 -3.26214 143.373 -3.11381C143.524 -2.96548 143.632 -2.77937 143.686 -2.57493C143.741 -2.3705 143.739 -2.15525 143.681 -1.95173C143.624 -1.74821 143.513 -1.5639 143.359 -1.41807C140.959 0.921929 136.109 5.40194 132.929 6.65194C128.169 8.50194 125.999 7.85193 124.929 7.33193C123.377 6.56424 122.176 5.23403 121.569 3.61193C120.489 0.461928 122.289 -2.91806 124.509 -4.52806C125.999 -5.59806 127.609 -5.84807 129.889 -5.91807C132.569 -6.01807 139.439 -4.30807 142.829 -3.41807Z" fill="#F2EAEB" fill-opacity="0.5"/>
</svg>
