<svg width="271" height="271" viewBox="0 0 271 271" fill="none" xmlns="http://www.w3.org/2000/svg">
<circle cx="80" cy="52" r="5" fill="white" stroke="#469DDD" stroke-width="2"/>
<circle cx="222" cy="84" r="3" fill="white" stroke="#469DDD" stroke-width="2"/>
<circle cx="109" cy="225" r="3" fill="white" stroke="#469DDD" stroke-width="2"/>
<circle cx="138" cy="133" r="87" stroke="#469DDD" stroke-width="2" stroke-linejoin="round"/>
<path d="M206.437 201.437C215.473 192.401 222.642 181.673 227.532 169.866C232.423 158.059 234.94 145.405 234.94 132.625C234.94 119.845 232.423 107.191 227.532 95.3839M100.384 222.532C88.5768 217.642 77.8489 210.474 68.8123 201.437M47.717 95.3839C52.6076 83.5771 59.7758 72.8491 68.8123 63.8126" stroke="#469DDD" stroke-width="2" stroke-linecap="round" stroke-linejoin="round"/>
<circle cx="54" cy="153" r="14" fill="white" stroke="#469DDD" stroke-width="2"/>
<circle cx="169" cy="52" r="12" fill="white" stroke="#469DDD" stroke-width="2"/>
<circle cx="176" cy="209" r="10" fill="white" stroke="#469DDD" stroke-width="2"/>
<path d="M166.352 139.023C165.496 138.161 164.477 137.478 163.354 137.013C162.231 136.548 161.028 136.31 159.812 136.313V124.751C159.812 123.575 159.714 122.402 159.519 121.244C159.416 120.639 159.078 120.099 158.578 119.744C158.078 119.389 157.457 119.246 156.852 119.349C156.247 119.451 155.707 119.79 155.352 120.29C154.997 120.79 154.855 121.411 154.957 122.016C155.111 122.919 155.188 123.834 155.188 124.751V136.313H145.938C145.324 136.313 144.736 136.557 144.302 136.99C143.869 137.424 143.625 138.012 143.625 138.626C143.625 139.239 143.869 139.827 144.302 140.261C144.736 140.695 145.324 140.938 145.938 140.938H159.812C161.039 140.938 162.216 141.425 163.083 142.293C163.95 143.16 164.438 144.337 164.438 145.563C164.438 146.79 163.95 147.966 163.083 148.834C162.216 149.701 161.039 150.188 159.812 150.188H134.375C133.762 150.188 133.173 150.432 132.74 150.865C132.306 151.299 132.062 151.887 132.062 152.501V157.214C132.068 159.029 132.79 160.769 134.07 162.055C134.705 162.694 135.46 163.2 136.292 163.545C137.124 163.889 138.016 164.066 138.917 164.063C140.778 164.061 142.562 163.32 143.878 162.004C145.195 160.688 145.935 158.904 145.938 157.042V154.813H159.812C161.642 154.813 163.43 154.27 164.951 153.254C166.472 152.237 167.657 150.793 168.357 149.103C169.057 147.413 169.24 145.553 168.883 143.759C168.527 141.965 167.646 140.317 166.352 139.023ZM141.312 157.042C141.311 157.678 141.058 158.287 140.608 158.736C140.158 159.186 139.548 159.438 138.912 159.438C138.322 159.437 137.757 159.202 137.34 158.786C136.923 158.369 136.688 157.803 136.688 157.214V154.813H141.312V157.042Z" fill="#469DDD"/>
<path d="M158.783 104.327C158.53 104.158 158.247 104.041 157.949 103.982C157.651 103.923 157.344 103.923 157.046 103.982C156.748 104.042 156.465 104.16 156.213 104.329C155.961 104.498 155.744 104.715 155.576 104.968L152.775 109.17C149.775 106.512 146.072 104.777 142.11 104.175C138.148 103.572 134.096 104.127 130.442 105.773C126.788 107.42 123.687 110.086 121.513 113.453C119.339 116.82 118.184 120.743 118.187 124.751V136.314C115.734 136.314 113.381 137.288 111.647 139.023C109.912 140.758 108.938 143.11 108.938 145.564C108.938 148.017 109.912 150.37 111.647 152.104C113.381 153.839 115.734 154.814 118.187 154.814H122.346L118.576 160.468C118.405 160.721 118.285 161.005 118.223 161.304C118.162 161.603 118.161 161.912 118.219 162.212C118.278 162.512 118.395 162.797 118.564 163.051C118.734 163.305 118.952 163.523 119.206 163.693C119.46 163.862 119.745 163.98 120.045 164.038C120.345 164.097 120.653 164.095 120.953 164.034C121.252 163.973 121.536 163.853 121.789 163.681C122.041 163.51 122.257 163.289 122.424 163.034L159.424 107.534C159.593 107.281 159.71 106.998 159.769 106.7C159.828 106.402 159.828 106.095 159.768 105.797C159.709 105.5 159.591 105.216 159.422 104.964C159.253 104.712 159.036 104.495 158.783 104.327ZM122.812 124.751C122.809 121.58 123.738 118.478 125.485 115.831C127.231 113.184 129.716 111.108 132.633 109.863C135.549 108.617 138.767 108.257 141.887 108.826C145.006 109.396 147.89 110.87 150.178 113.065L134.643 136.368C134.555 136.344 134.465 136.326 134.375 136.314H122.812V124.751ZM125.125 150.189H118.187C116.961 150.189 115.784 149.701 114.917 148.834C114.05 147.967 113.562 146.79 113.562 145.564C113.562 144.337 114.05 143.161 114.917 142.293C115.784 141.426 116.961 140.939 118.187 140.939H131.596L125.393 150.243C125.305 150.219 125.215 150.201 125.125 150.189Z" fill="#469DDD"/>
</svg>
