<svg width="271" height="271" viewBox="0 0 271 271" fill="none" xmlns="http://www.w3.org/2000/svg">
<circle cx="80" cy="52" r="5" fill="white" stroke="#469DDD" stroke-width="2"/>
<circle cx="222" cy="84" r="3" fill="white" stroke="#469DDD" stroke-width="2"/>
<circle cx="109" cy="225" r="3" fill="white" stroke="#469DDD" stroke-width="2"/>
<circle cx="138" cy="133" r="87" stroke="#469DDD" stroke-width="2" stroke-linejoin="round"/>
<path d="M206.437 201.437C215.473 192.401 222.642 181.673 227.532 169.866C232.423 158.059 234.94 145.405 234.94 132.625C234.94 119.845 232.423 107.191 227.532 95.3839M100.384 222.532C88.5768 217.642 77.8489 210.474 68.8123 201.437M47.717 95.3839C52.6076 83.5771 59.7758 72.8491 68.8123 63.8126" stroke="#469DDD" stroke-width="2" stroke-linecap="round" stroke-linejoin="round"/>
<circle cx="54" cy="153" r="14" fill="white" stroke="#469DDD" stroke-width="2"/>
<circle cx="169" cy="52" r="12" fill="white" stroke="#469DDD" stroke-width="2"/>
<circle cx="176" cy="209" r="10" fill="white" stroke="#469DDD" stroke-width="2"/>
<path d="M140.033 145.817H126.876C125.76 145.817 124.855 146.722 124.855 147.838C124.855 148.955 125.76 149.86 126.876 149.86H140.033C141.149 149.86 142.054 148.955 142.054 147.838C142.054 146.722 141.149 145.817 140.033 145.817Z" fill="#469DDD"/>
<path d="M161.772 96C151.267 96 143.466 105.854 145.91 116.076C144.425 116.076 115.891 116.076 114.744 116.076C111.576 116.076 109 118.653 109 121.82V159.242C109 162.408 111.576 164.986 114.744 164.986H152.165C155.332 164.986 157.91 162.408 157.91 159.242V128.143C159.148 128.446 160.442 128.607 161.771 128.607C170.761 128.607 178.075 121.293 178.075 112.303C178.075 103.314 170.761 96 161.772 96ZM127.504 120.118H139.405V130.56L135.481 128.155C134.231 127.391 132.677 127.391 131.424 128.156L127.503 130.56V120.118H127.504ZM153.868 159.242C153.868 160.18 153.104 160.944 152.165 160.944H114.744C113.805 160.944 113.042 160.18 113.042 159.242V121.82C113.042 120.882 113.805 120.118 114.744 120.118H123.461V130.846C123.461 133.889 126.808 135.732 129.372 134.155L133.455 131.653L137.535 134.155C140.123 135.743 143.447 133.87 143.447 130.846V120.118H147.468C148.949 122.821 151.175 125.06 153.868 126.559V159.242H153.868ZM161.772 124.564C158.045 124.564 154.618 122.88 152.34 120.127H152.339C145.734 112.174 151.405 100.042 161.772 100.042C168.533 100.042 174.033 105.542 174.033 112.303C174.033 119.064 168.533 124.564 161.772 124.564Z" fill="#469DDD"/>
<path d="M164.63 112.304C164.976 111.959 167.031 109.903 167.362 109.573C168.151 108.783 168.151 107.503 167.362 106.714C166.572 105.925 165.292 105.925 164.504 106.714C164.503 106.714 161.773 109.446 161.772 109.446L159.04 106.714C158.251 105.925 156.971 105.925 156.182 106.714C155.393 107.503 155.393 108.783 156.182 109.572L158.914 112.304C158.746 112.471 156.931 114.286 156.182 115.035C155.546 115.671 155.422 116.626 155.812 117.386C156.441 118.609 158.074 118.861 159.04 117.894C159.041 117.894 161.772 115.164 161.773 115.163L164.504 117.894C164.898 118.289 165.415 118.486 165.933 118.486C167.717 118.486 168.639 116.313 167.362 115.036L164.63 112.304Z" fill="#469DDD"/>
</svg>
