<svg width="36" height="36" viewBox="0 0 36 36" fill="none" xmlns="http://www.w3.org/2000/svg">
<rect width="36" height="36" rx="8" fill="#E8F3FA"/>
<path d="M23 14.668C23 13.3419 22.4732 12.0701 21.5355 11.1324C20.5979 10.1948 19.3261 9.66797 18 9.66797C16.6739 9.66797 15.4021 10.1948 14.4645 11.1324C13.5268 12.0701 13 13.3419 13 14.668C13 20.5013 10.5 22.168 10.5 22.168H25.5C25.5 22.168 23 20.5013 23 14.668Z" stroke="#469DDD" stroke-width="2" stroke-linecap="round" stroke-linejoin="round"/>
<path d="M19.4417 25.5C19.2952 25.7526 19.0849 25.9622 18.8319 26.1079C18.5789 26.2537 18.292 26.3304 18 26.3304C17.708 26.3304 17.4212 26.2537 17.1682 26.1079C16.9151 25.9622 16.7049 25.7526 16.5583 25.5" stroke="#469DDD" stroke-width="2" stroke-linecap="round" stroke-linejoin="round"/>
</svg>
