<svg width="21" height="28" viewBox="0 0 21 28" fill="none" xmlns="http://www.w3.org/2000/svg">
<path d="M2.67598 10.5343L1.60242 17.5547C1.43461 18.6572 0.999588 19.7013 0.336114 20.5942C0.0288504 20.9859 -0.0755178 21.5013 0.0552701 21.9828C0.185842 22.4644 0.535977 22.8545 0.998291 23.0343C2.68056 23.6679 4.42171 24.1291 6.19533 24.4113C6.39584 25.7535 7.2256 26.9162 8.42456 27.5356C9.62351 28.1548 11.0452 28.1548 12.2442 27.5356C13.4432 26.9162 14.2729 25.7535 14.4734 24.4113C16.2494 24.1285 17.9927 23.6657 19.6767 23.0304C20.1338 22.8522 20.4788 22.4651 20.6054 21.9883C20.7423 21.5102 20.6464 20.9951 20.3469 20.5994C19.6783 19.7048 19.2397 18.6575 19.0702 17.5508L18.0562 10.8547C19.36 10.4449 20.3837 9.42117 20.8001 8.11104C21.2167 6.80114 20.9738 5.36868 20.1488 4.27228C19.324 3.17588 18.0209 2.55279 16.6559 2.60231C15.2911 2.6516 14.0356 3.36739 13.2912 4.52069C13.1515 4.4594 13.0105 4.39703 12.867 4.3449C13.1112 3.91416 13.2414 3.42734 13.2446 2.93142C13.2446 1.8841 12.6898 0.916401 11.7895 0.392741C10.8892 -0.130914 9.77961 -0.130914 8.87928 0.392741C7.97894 0.916396 7.42417 1.8841 7.42417 2.93142C7.4272 3.42651 7.5569 3.91219 7.80051 4.34233C6.46513 4.80252 5.28092 5.6232 4.37709 6.71525C3.47326 7.80729 2.88495 9.12853 2.67597 10.5344L2.67598 10.5343ZM10.3346 26.0554C9.89111 26.054 9.45807 25.9208 9.08972 25.6719C8.72161 25.4231 8.4345 25.0702 8.26515 24.6576C8.93378 24.7123 9.61938 24.7526 10.3346 24.7526C11.0498 24.7526 11.7496 24.7123 12.4222 24.6576C12.2489 25.0713 11.9586 25.4244 11.5872 25.6731C11.2161 25.9217 10.7804 26.0547 10.3346 26.0554ZM16.8019 4.55955C17.4021 4.55955 17.9779 4.79989 18.4023 5.22737C18.8269 5.65484 19.0653 6.23477 19.0653 6.83955C19.0653 7.44412 18.8269 8.02406 18.4023 8.45152C17.9779 8.87921 17.4021 9.11934 16.8019 9.11934C16.2015 9.11934 15.6257 8.87921 15.2013 8.45152C14.7769 8.02404 14.5383 7.44412 14.5383 6.83955C14.5389 6.23499 14.7777 5.6555 15.2022 5.22826C15.6264 4.80079 16.2017 4.56021 16.8019 4.55955ZM10.3346 1.95414C10.5918 1.95414 10.8387 2.05708 11.0205 2.24028C11.2024 2.42348 11.3046 2.6719 11.3046 2.93122C11.3046 3.19032 11.2024 3.43873 11.0205 3.62215C10.8387 3.80536 10.5918 3.9083 10.3346 3.9083C10.0773 3.9083 9.83047 3.80536 9.64859 3.62215C9.4667 3.43873 9.3645 3.19032 9.3645 2.93122C9.36493 2.67212 9.46714 2.4237 9.64902 2.24073C9.83091 2.05753 10.0773 1.95435 10.3346 1.95414ZM11.042 5.90915V5.90936C11.5985 5.98199 12.1394 6.14579 12.6433 6.39398C12.6197 6.54141 12.6047 6.69016 12.598 6.83956C12.5993 7.83953 12.9523 8.80701 13.5941 9.57014C14.2359 10.3333 15.1254 10.8427 16.1046 11.0083C16.1046 11.0421 16.1228 11.0735 16.128 11.1086L17.1498 17.8594H17.1496C17.343 19.1205 17.8068 20.324 18.509 21.3861C15.8798 22.306 13.1179 22.7832 10.3349 22.7983C7.5511 22.7817 4.78939 22.3027 2.16077 21.3808C2.86277 20.3183 3.3268 19.1143 3.52014 17.8528L4.59504 10.8296H4.59482C4.82132 9.32492 5.62183 7.96878 6.82621 7.04971C8.03038 6.13064 9.5433 5.72149 11.0425 5.90904L11.042 5.90915Z" fill="#978284"/>
</svg>
