<svg width="82" height="70" viewBox="0 0 82 70" fill="none" xmlns="http://www.w3.org/2000/svg">
<path d="M63.9763 10.9468L61.9688 10.1871C61.1021 9.12866 59.9803 8.30824 58.709 7.80309C57.4377 7.29793 56.0587 7.12466 54.7019 7.29958L48.7372 8.09639L41.1458 0.69408C40.9891 0.541274 40.7937 0.434139 40.5805 0.384225C40.3674 0.33431 40.1448 0.343509 39.9365 0.410829L36.0384 1.66895C35.8754 1.72147 35.7256 1.80815 35.5989 1.92319C35.4721 2.03824 35.3714 2.17901 35.3034 2.3361C35.2354 2.49318 35.2017 2.66297 35.2045 2.83412C35.2074 3.00528 35.2467 3.17385 35.3199 3.32858L38.2384 9.49408L36.7259 9.6962C36.5679 9.71542 36.4152 9.7658 36.2768 9.84443C36.1384 9.92305 36.017 10.0284 35.9196 10.1543C35.8222 10.2801 35.7507 10.4241 35.7093 10.5778C35.6679 10.7315 35.6575 10.8919 35.6785 11.0497C35.6996 11.2075 35.7518 11.3595 35.832 11.497C35.9122 11.6345 36.019 11.7547 36.146 11.8506C36.273 11.9465 36.4178 12.0163 36.572 12.0559C36.7262 12.0955 36.8867 12.104 37.0442 12.0811L55.0251 9.68245C56.0172 9.55114 57.0264 9.68834 57.9474 10.0798C58.8685 10.4712 59.6677 11.1025 60.2617 11.9079C60.3983 12.0946 60.586 12.2379 60.8021 12.3204L63.1334 13.2031C63.3005 13.2653 63.4454 13.3758 63.5495 13.5205C63.6537 13.6652 63.7125 13.8376 63.7185 14.0158C63.7281 14.2552 63.6432 14.4888 63.4822 14.6663C63.3212 14.8437 63.097 14.9508 62.8577 14.9645L50.8182 15.652L51.7752 13.8817C51.8794 13.6892 51.9291 13.4719 51.9189 13.2533C51.9087 13.0346 51.839 12.8229 51.7173 12.641C51.5956 12.459 51.4266 12.3137 51.2284 12.2208C51.0302 12.1278 50.8104 12.0907 50.5927 12.1135L40.9464 13.1117C40.6788 13.1396 40.4282 13.2563 40.2347 13.4432C40.0412 13.6301 39.9159 13.8765 39.8787 14.143L39.5769 16.2921L23.7335 17.1941C23.2467 17.2229 22.7625 17.1042 22.3443 16.8535C21.926 16.6028 21.5931 16.2317 21.3891 15.7888L18.9313 10.5253C19.2854 10.5256 19.6354 10.6008 19.9583 10.7461C20.2812 10.8914 20.5697 11.1034 20.8047 11.3682L22.5984 13.4582C22.7291 13.6102 22.8956 13.7272 23.0829 13.7986C23.2701 13.87 23.4722 13.8936 23.6709 13.8673L24.7111 13.7298C25.0275 13.6876 25.3141 13.5214 25.5079 13.2679C25.7018 13.0143 25.787 12.6942 25.7448 12.3778C25.7026 12.0614 25.5364 11.7748 25.2829 11.581C25.0293 11.3871 24.7092 11.3019 24.3928 11.3441L24.0002 11.3971L22.6252 9.79727C22.0405 9.11898 21.2789 8.61637 20.4253 8.34543C19.5717 8.0745 18.6596 8.04588 17.7907 8.26277L16.9039 8.48277C16.7314 8.52554 16.5705 8.60598 16.4328 8.71832C16.2951 8.83067 16.184 8.97211 16.1075 9.1325C16.031 9.29289 15.991 9.46824 15.9903 9.64595C15.9896 9.82365 16.0283 9.9993 16.1036 10.1603L19.2063 16.8091C19.5913 17.6443 20.2075 18.3518 20.9821 18.8477C21.7566 19.3436 22.657 19.6072 23.5767 19.6072C23.6751 19.6072 23.7734 19.6072 23.8717 19.5983L39.2325 18.7196L38.1256 26.6128C38.102 26.7823 38.1147 26.9548 38.1629 27.1189C38.2112 27.283 38.2938 27.435 38.4054 27.5647C38.5169 27.6944 38.6548 27.7989 38.8099 27.8711C38.9649 27.9433 39.1336 27.9817 39.3047 27.9837L43.3974 28.0263H43.4104C43.6272 28.0263 43.84 27.9676 44.0262 27.8567C44.2124 27.7457 44.3652 27.5865 44.4685 27.3959L45.9404 24.6734C46.0171 24.5343 46.0655 24.3814 46.0828 24.2235C46.1001 24.0656 46.0859 23.9058 46.0412 23.7534C45.9964 23.601 45.9219 23.459 45.8219 23.3355C45.722 23.212 45.5986 23.1096 45.4588 23.0341C45.3191 22.9585 45.1658 22.9114 45.0077 22.8955C44.8497 22.8795 44.6901 22.895 44.538 22.941C44.386 22.9871 44.2446 23.0628 44.122 23.1638C43.9994 23.2648 43.898 23.389 43.8236 23.5294L42.6975 25.6125L40.6989 25.5919L42.131 15.4066L48.5736 14.7383L46.5255 18.5278C46.4471 18.667 46.3971 18.8204 46.3786 18.9791C46.3601 19.1378 46.3734 19.2985 46.4176 19.452C46.4619 19.6055 46.5363 19.7487 46.6365 19.8731C46.7367 19.9975 46.8607 20.1008 47.0012 20.1768C47.1417 20.2528 47.2959 20.3 47.4549 20.3158C47.6139 20.3316 47.7744 20.3155 47.9271 20.2686C48.0798 20.2216 48.2216 20.1447 48.3443 20.0424C48.467 19.9401 48.5681 19.8143 48.6416 19.6725L49.4721 18.1353L62.9884 17.3632C63.7485 17.3215 64.4712 17.0197 65.0352 16.5085C65.5992 15.9972 65.9702 15.3075 66.086 14.5551C66.2018 13.8027 66.0554 13.0334 65.6713 12.3761C65.2871 11.7189 64.6887 11.2137 63.9763 10.9454V10.9468ZM38.0816 3.53552L39.9846 2.92089L45.7053 8.49927L40.7429 9.16133L38.0816 3.53552ZM27.7182 12.1148C27.676 11.7989 27.7609 11.4791 27.9543 11.2257C28.1476 10.9723 28.4336 10.8059 28.7495 10.7632L32.0096 10.328C32.1671 10.3051 32.3276 10.3137 32.4818 10.3533C32.636 10.3929 32.7808 10.4626 32.9078 10.5586C33.0348 10.6545 33.1416 10.7747 33.2218 10.9122C33.302 11.0496 33.3542 11.2017 33.3752 11.3595C33.3963 11.5172 33.3858 11.6776 33.3445 11.8313C33.3031 11.985 33.2316 12.129 33.1342 12.2549C33.0368 12.3808 32.9154 12.4861 32.777 12.5647C32.6386 12.6434 32.4859 12.6937 32.3279 12.713L29.0671 13.1481C29.014 13.1553 28.9605 13.1588 28.9069 13.1585C28.6161 13.1577 28.3354 13.0515 28.1168 12.8596C27.8983 12.6677 27.7567 12.4031 27.7182 12.1148ZM81.7915 58.0653C81.7915 62.2886 78.3808 67.165 75.0842 69.44C74.8834 69.5787 74.645 69.653 74.4009 69.653C74.1567 69.653 73.9184 69.5787 73.7175 69.44C72.7114 68.7299 71.7927 67.9036 70.9806 66.978C70.7687 66.7393 70.6603 66.4263 70.6792 66.1077C70.6982 65.7891 70.8429 65.4911 71.0816 65.2792C71.3203 65.0673 71.6334 64.9589 71.952 64.9779C72.2705 64.9969 72.5686 65.1416 72.7804 65.3803C73.2779 65.9443 73.8198 66.4676 74.4009 66.945C76.9123 64.897 79.3852 61.17 79.3852 58.0653C79.3852 56.7433 78.8601 55.4755 77.9253 54.5408C76.9906 53.606 75.7228 53.0809 74.4009 53.0809C73.0789 53.0809 71.8111 53.606 70.8764 54.5408C69.9416 55.4755 69.4165 56.7433 69.4165 58.0653C69.4292 58.8457 69.5623 59.6196 69.8111 60.3595C69.9084 60.6634 69.8809 60.9936 69.7348 61.2773C69.5886 61.561 69.3358 61.775 69.0318 61.8723C68.7279 61.9696 68.3977 61.9421 68.114 61.796C67.8303 61.6498 67.6163 61.397 67.519 61.093C67.1946 60.1169 67.023 59.0965 67.0102 58.068C67.0102 56.1079 67.7889 54.2281 69.1749 52.8421C70.5609 51.456 72.4408 50.6774 74.4009 50.6774C76.361 50.6774 78.2408 51.456 79.6268 52.8421C81.0128 54.2281 81.7915 56.1079 81.7915 58.068V58.0653ZM7.59924 50.6753C5.6398 50.6775 3.76123 51.4569 2.37569 52.8424C0.990156 54.2279 0.210802 56.1065 0.208618 58.066C0.208618 62.2893 3.61931 67.1657 6.91587 69.4406C7.11675 69.5794 7.3551 69.6537 7.59924 69.6537C7.84338 69.6537 8.08174 69.5794 8.28262 69.4406C11.5792 67.1657 14.9899 62.2906 14.9899 58.066C14.9877 56.1065 14.2083 54.2279 12.8228 52.8424C11.4373 51.4569 9.55869 50.6775 7.59924 50.6753ZM7.59924 66.9457C5.08781 64.8976 2.61487 61.1707 2.61487 58.066C2.61487 56.744 3.14001 55.4762 4.07476 54.5415C5.00951 53.6067 6.2773 53.0816 7.59924 53.0816C8.92118 53.0816 10.189 53.6067 11.1237 54.5415C12.0585 55.4762 12.5836 56.744 12.5836 58.066C12.5836 61.17 10.1107 64.897 7.59924 66.945V66.9457ZM27.1737 39.5832C27.2243 39.733 27.2448 39.8912 27.2341 40.049C27.2235 40.2067 27.1818 40.3607 27.1116 40.5023C27.0414 40.644 26.9439 40.7703 26.8248 40.8743C26.7057 40.9782 26.5673 41.0577 26.4175 41.1081C24.9388 41.6088 23.4876 42.1871 22.0697 42.8406C21.7797 42.9741 21.4485 42.987 21.149 42.8764C20.8495 42.7658 20.6062 42.5407 20.4727 42.2507C20.3391 41.9607 20.3262 41.6295 20.4369 41.33C20.5475 41.0305 20.7725 40.7872 21.0626 40.6536C22.5577 39.964 24.0884 39.3542 25.6482 38.827C25.9505 38.7248 26.281 38.7468 26.5671 38.8883C26.8531 39.0297 27.0713 39.2789 27.1737 39.5811V39.5832ZM18.3476 43.3755C18.5116 43.649 18.5602 43.9764 18.4829 44.2858C18.4055 44.5952 18.2085 44.8613 17.9351 45.0255C16.5985 45.8283 15.3075 46.7046 14.0679 47.6503C13.814 47.835 13.4979 47.913 13.1871 47.8678C12.8764 47.8226 12.5956 47.6577 12.4049 47.4083C12.2141 47.1589 12.1283 46.8448 12.166 46.533C12.2036 46.2213 12.3616 45.9366 12.6063 45.7398C13.9171 44.7396 15.2822 43.8128 16.6956 42.9636C16.8311 42.8822 16.9813 42.8282 17.1377 42.8048C17.294 42.7815 17.4535 42.7891 17.6069 42.8273C17.7603 42.8656 17.9047 42.9337 18.0318 43.0277C18.1589 43.1218 18.2662 43.2399 18.3476 43.3755ZM67.939 47.5816C67.5376 47.2763 67.1289 46.9784 66.7132 46.6878C66.452 46.5044 66.2744 46.2247 66.2194 45.9103C66.1644 45.5959 66.2366 45.2726 66.42 45.0114C66.6035 44.7502 66.8831 44.5725 67.1975 44.5175C67.5119 44.4626 67.8353 44.5347 68.0965 44.7181C68.5374 45.0275 68.9705 45.344 69.3959 45.6676C69.6499 45.8608 69.8167 46.1469 69.8597 46.4631C69.9027 46.7793 69.8183 47.0997 69.6251 47.3537C69.432 47.6077 69.1458 47.7745 68.8296 47.8175C68.5134 47.8605 68.193 47.7761 67.939 47.583V47.5816ZM64.3751 43.7364C64.299 43.875 64.1964 43.9972 64.0731 44.0961C63.9498 44.195 63.8081 44.2685 63.6563 44.3125C63.5045 44.3565 63.3455 44.3701 63.1884 44.3525C63.0313 44.335 62.8792 44.2866 62.7409 44.2101C61.3722 43.4584 59.9643 42.7807 58.523 42.1799C58.2285 42.0572 57.9947 41.8225 57.8732 41.5274C57.7517 41.2324 57.7524 40.9011 57.8751 40.6065C57.9978 40.312 58.2325 40.0782 58.5276 39.9567C58.8226 39.8352 59.1539 39.8359 59.4484 39.9586C60.9699 40.5928 62.4561 41.3083 63.9007 42.1022C64.0391 42.1783 64.1612 42.281 64.26 42.4044C64.3588 42.5277 64.4323 42.6693 64.4764 42.821C64.5204 42.9728 64.5341 43.1317 64.5168 43.2888C64.4994 43.4459 64.4512 43.5979 64.3751 43.7364ZM55.6074 39.7984C55.5334 40.0468 55.3812 40.2648 55.1735 40.4198C54.9658 40.5749 54.7136 40.6588 54.4544 40.6591C54.338 40.6593 54.2222 40.6424 54.1107 40.609C52.612 40.1638 51.0913 39.7966 49.5546 39.509C49.2425 39.4486 48.9669 39.2672 48.7881 39.0043C48.6092 38.7414 48.5418 38.4184 48.6004 38.106C48.659 37.7935 48.8388 37.5169 49.1007 37.3366C49.3626 37.1564 49.6852 37.0871 49.9981 37.144C51.6165 37.4474 53.2183 37.8342 54.7968 38.3031C55.1025 38.394 55.3596 38.6026 55.5116 38.8829C55.6636 39.1633 55.6981 39.4926 55.6074 39.7984ZM36.6001 37.7139C36.6377 38.0307 36.5479 38.3495 36.3505 38.6001C36.1531 38.8507 35.8643 39.0127 35.5475 39.0504C33.9961 39.2352 32.4553 39.4993 30.9309 39.8417C30.6196 39.9117 30.2932 39.8552 30.0235 39.6846C29.7539 39.5139 29.563 39.2431 29.493 38.9318C29.423 38.6205 29.4795 38.2941 29.6502 38.0244C29.8208 37.7547 30.0916 37.5639 30.4029 37.4939C32.0076 37.1333 33.6297 36.8554 35.2629 36.6613C35.4199 36.6421 35.5791 36.654 35.7315 36.6966C35.8838 36.7391 36.0263 36.8114 36.1506 36.9093C36.2749 37.0071 36.3786 37.1286 36.4557 37.2667C36.5329 37.4048 36.5819 37.5568 36.6001 37.7139ZM46.2092 37.7826C46.1833 38.0825 46.0459 38.3618 45.8242 38.5654C45.6025 38.769 45.3126 38.8822 45.0116 38.8826C44.9779 38.8826 44.9429 38.8826 44.9112 38.8785C43.3657 38.75 41.7811 38.6991 40.2232 38.7266C40.0646 38.7315 39.9067 38.7047 39.7587 38.6476C39.6107 38.5905 39.4756 38.5043 39.3615 38.3941C39.2473 38.284 39.1564 38.1521 39.0941 38.0062C39.0318 37.8603 38.9994 37.7034 38.9987 37.5448C38.9932 37.2258 39.1146 36.9177 39.3362 36.6882C39.5579 36.4587 39.8616 36.3266 40.1805 36.321C41.8253 36.2919 43.4705 36.3451 45.1099 36.4805C45.2676 36.4939 45.421 36.5383 45.5615 36.6111C45.702 36.6839 45.8267 36.7837 45.9286 36.9048C46.0305 37.0259 46.1074 37.1659 46.1551 37.3167C46.2028 37.4676 46.2203 37.6264 46.2065 37.784L46.2092 37.7826ZM74.4036 61.3137C75.0495 61.3137 75.6809 61.1222 76.2179 60.7634C76.7549 60.4045 77.1735 59.8945 77.4207 59.2978C77.6678 58.7011 77.7325 58.0445 77.6065 57.411C77.4805 56.7775 77.1695 56.1956 76.7128 55.7389C76.2561 55.2822 75.6742 54.9712 75.0407 54.8452C74.4072 54.7192 73.7506 54.7839 73.1539 55.031C72.5572 55.2782 72.0472 55.6968 71.6883 56.2338C71.3295 56.7708 71.138 57.4022 71.138 58.0481C71.1385 58.9137 71.4823 59.7437 72.094 60.3561C72.7057 60.9686 73.5353 61.3134 74.4009 61.3151L74.4036 61.3137ZM74.4036 57.1887C74.5736 57.1887 74.7397 57.2391 74.8811 57.3335C75.0224 57.428 75.1325 57.5622 75.1976 57.7192C75.2626 57.8762 75.2796 58.049 75.2465 58.2157C75.2133 58.3824 75.1315 58.5356 75.0113 58.6558C74.8911 58.7759 74.738 58.8578 74.5713 58.8909C74.4046 58.9241 74.2318 58.9071 74.0747 58.842C73.9177 58.777 73.7835 58.6668 73.6891 58.5255C73.5946 58.3842 73.5442 58.2181 73.5442 58.0481C73.545 57.821 73.6354 57.6034 73.7959 57.4427C73.9563 57.282 74.1738 57.1912 74.4009 57.1901L74.4036 57.1887ZM7.60199 54.7825C6.95611 54.7825 6.32474 54.974 5.78771 55.3328C5.25068 55.6916 4.83212 56.2017 4.58495 56.7984C4.33778 57.3951 4.27311 58.0517 4.39912 58.6852C4.52512 59.3186 4.83614 59.9005 5.29285 60.3572C5.74955 60.8139 6.33143 61.125 6.9649 61.251C7.59837 61.377 8.25498 61.3123 8.85169 61.0651C9.44841 60.818 9.95843 60.3994 10.3173 59.8624C10.6761 59.3253 10.8676 58.694 10.8676 58.0481C10.8662 57.1821 10.5212 56.352 9.90847 55.7401C9.29573 55.1281 8.46524 54.7842 7.59924 54.7838L7.60199 54.7825ZM7.60199 58.9075C7.43202 58.9075 7.26587 58.8571 7.12455 58.7626C6.98323 58.6682 6.87308 58.534 6.80803 58.377C6.74299 58.2199 6.72597 58.0471 6.75913 57.8804C6.79229 57.7137 6.87414 57.5606 6.99432 57.4404C7.11451 57.3202 7.26763 57.2384 7.43434 57.2052C7.60104 57.1721 7.77383 57.1891 7.93086 57.2541C8.08789 57.3192 8.22211 57.4293 8.31654 57.5706C8.41097 57.712 8.46137 57.8781 8.46137 58.0481C8.46146 58.1613 8.43921 58.2733 8.3959 58.3779C8.35259 58.4825 8.28907 58.5774 8.20898 58.6574C8.12888 58.7374 8.0338 58.8007 7.92917 58.8439C7.82454 58.887 7.71242 58.9091 7.59924 58.9088L7.60199 58.9075Z" fill="url(#paint0_linear_914_3894)"/>
<defs>
<linearGradient id="paint0_linear_914_3894" x1="70.0724" y1="74.7646" x2="10.2255" y2="14.9178" gradientUnits="userSpaceOnUse">
<stop stop-color="#469CDC"/>
<stop offset="1" stop-color="#34CD83"/>
</linearGradient>
</defs>
</svg>
