<svg width="47" height="46" viewBox="0 0 47 46" fill="none" xmlns="http://www.w3.org/2000/svg">
<g filter="url(#filter0_d_1042_20915)">
<rect x="35.75" y="7" width="24" height="24" rx="12" transform="rotate(90 35.75 7)" fill="white" shape-rendering="crispEdges"/>
<path d="M25.0833 16.9634L30.4167 20.332V21.6654L25.0833 19.9814V23.5547L27.0833 24.6654V25.6654L24.0833 24.9987L21.0833 25.6654V24.6654L23.0833 23.554V19.9807L17.75 21.6654V20.332L23.0833 16.9634V13.332C23.0833 13.0668 23.1887 12.8125 23.3762 12.6249C23.5638 12.4374 23.8181 12.332 24.0833 12.332C24.3485 12.332 24.6029 12.4374 24.7904 12.6249C24.978 12.8125 25.0833 13.0668 25.0833 13.332V16.9634Z" fill="#469DDD"/>
</g>
<defs>
<filter id="filter0_d_1042_20915" x="0.75" y="0" width="46" height="46" filterUnits="userSpaceOnUse" color-interpolation-filters="sRGB">
<feFlood flood-opacity="0" result="BackgroundImageFix"/>
<feColorMatrix in="SourceAlpha" type="matrix" values="0 0 0 0 0 0 0 0 0 0 0 0 0 0 0 0 0 0 127 0" result="hardAlpha"/>
<feOffset dy="4"/>
<feGaussianBlur stdDeviation="5.5"/>
<feComposite in2="hardAlpha" operator="out"/>
<feColorMatrix type="matrix" values="0 0 0 0 0 0 0 0 0 0 0 0 0 0 0 0 0 0 0.06 0"/>
<feBlend mode="normal" in2="BackgroundImageFix" result="effect1_dropShadow_1042_20915"/>
<feBlend mode="normal" in="SourceGraphic" in2="effect1_dropShadow_1042_20915" result="shape"/>
</filter>
</defs>
</svg>
