<svg width="36" height="36" viewBox="0 0 36 36" fill="none" xmlns="http://www.w3.org/2000/svg">
<path d="M0 18C0 8.05888 8.05888 0 18 0C27.9411 0 36 8.05888 36 18C36 27.9411 27.9411 36 18 36C8.05888 36 0 27.9411 0 18Z" fill="#F4F4F4"/>
<path d="M20.0833 9.66691C20.5755 9.66675 21.0597 9.79114 21.4909 10.0285C21.9221 10.2659 22.2862 10.6085 22.5493 11.0245C22.8124 11.4405 22.966 11.9163 22.9956 12.4076C23.0253 12.8989 22.9302 13.3898 22.7191 13.8344L25.5 13.8336C25.721 13.8336 25.9329 13.9214 26.0892 14.0777C26.2455 14.2339 26.3333 14.4459 26.3333 14.6669V18.0002C26.3333 18.2213 26.2455 18.4332 26.0892 18.5895C25.9329 18.7458 25.721 18.8336 25.5 18.8336H24.6666V25.5002C24.6666 25.7213 24.5788 25.9332 24.4225 26.0895C24.2663 26.2458 24.0543 26.3336 23.8333 26.3336H12.1666C11.9456 26.3336 11.7337 26.2458 11.5774 26.0895C11.4211 25.9332 11.3333 25.7213 11.3333 25.5002V18.8336H10.5C10.2789 18.8336 10.067 18.7458 9.9107 18.5895C9.75442 18.4332 9.66663 18.2213 9.66663 18.0002V14.6669C9.66663 14.4459 9.75442 14.2339 9.9107 14.0777C10.067 13.9214 10.2789 13.8336 10.5 13.8336L13.2808 13.8344C12.9839 13.2108 12.918 12.5021 13.0947 11.8344C13.2714 11.1667 13.6794 10.5835 14.2459 10.1884C14.8124 9.7933 15.5007 9.61208 16.1883 9.67697C16.8759 9.74186 17.5182 10.0487 18.0008 10.5427C18.2717 10.2649 18.5955 10.0441 18.9532 9.8937C19.311 9.74326 19.6952 9.66614 20.0833 9.66691ZM23 18.8336H13V24.6669H23V18.8336ZM24.6666 15.5002H11.3333V17.1669H24.6666V15.5002ZM15.9166 11.3336C15.5956 11.3337 15.287 11.4574 15.0546 11.6789C14.8223 11.9004 14.6841 12.2029 14.6687 12.5235C14.6533 12.8442 14.7618 13.1584 14.9718 13.4012C15.1818 13.6441 15.4771 13.7968 15.7966 13.8277L15.9166 13.8336H17.1666V12.5836C17.1666 12.2728 17.0509 11.9733 16.8419 11.7432C16.633 11.5132 16.3459 11.3692 16.0366 11.3394L15.9166 11.3336ZM20.0833 11.3336L19.9633 11.3394C19.6744 11.3671 19.4042 11.4944 19.199 11.6995C18.9937 11.9046 18.8662 12.1747 18.8383 12.4636L18.8333 12.5836V13.8336H20.0833L20.2033 13.8277C20.5125 13.7978 20.7994 13.6537 21.0082 13.4237C21.217 13.1937 21.3327 12.8942 21.3327 12.5836C21.3327 12.2729 21.217 11.9734 21.0082 11.7434C20.7994 11.5134 20.5125 11.3694 20.2033 11.3394L20.0833 11.3336Z" fill="#242424"/>
</svg>
