<svg width="36" height="36" viewBox="0 0 36 36" fill="none" xmlns="http://www.w3.org/2000/svg">
<path d="M0 18C0 8.05887 8.05887 0 18 0V0C27.9411 0 36 8.05887 36 18V18C36 27.9411 27.9411 36 18 36V36C8.05887 36 0 27.9411 0 18V18Z" fill="#F4F4F4"/>
<path d="M18 26.3327C13.3975 26.3327 9.66663 22.6018 9.66663 17.9993C9.66663 13.3968 13.3975 9.66602 18 9.66602C22.6025 9.66602 26.3333 13.3968 26.3333 17.9993C26.3333 22.6018 22.6025 26.3327 18 26.3327ZM18 24.666C19.7681 24.666 21.4638 23.9636 22.714 22.7134C23.9642 21.4632 24.6666 19.7675 24.6666 17.9993C24.6666 16.2312 23.9642 14.5355 22.714 13.2853C21.4638 12.0351 19.7681 11.3327 18 11.3327C16.2318 11.3327 14.5362 12.0351 13.2859 13.2853C12.0357 14.5355 11.3333 16.2312 11.3333 17.9993C11.3333 19.7675 12.0357 21.4632 13.2859 22.7134C14.5362 23.9636 16.2318 24.666 18 24.666V24.666ZM15.0833 19.666H19.6666C19.7771 19.666 19.8831 19.6221 19.9613 19.544C20.0394 19.4658 20.0833 19.3599 20.0833 19.2493C20.0833 19.1388 20.0394 19.0329 19.9613 18.9547C19.8831 18.8766 19.7771 18.8327 19.6666 18.8327H16.3333C15.7808 18.8327 15.2509 18.6132 14.8602 18.2225C14.4695 17.8318 14.25 17.3019 14.25 16.7493C14.25 16.1968 14.4695 15.6669 14.8602 15.2762C15.2509 14.8855 15.7808 14.666 16.3333 14.666H17.1666V12.9993H18.8333V14.666H20.9166V16.3327H16.3333C16.2228 16.3327 16.1168 16.3766 16.0387 16.4547C15.9605 16.5329 15.9166 16.6388 15.9166 16.7493C15.9166 16.8599 15.9605 16.9658 16.0387 17.044C16.1168 17.1221 16.2228 17.166 16.3333 17.166H19.6666C20.2192 17.166 20.7491 17.3855 21.1398 17.7762C21.5305 18.1669 21.75 18.6968 21.75 19.2493C21.75 19.8019 21.5305 20.3318 21.1398 20.7225C20.7491 21.1132 20.2192 21.3327 19.6666 21.3327H18.8333V22.9993H17.1666V21.3327H15.0833V19.666Z" fill="#242424"/>
</svg>
