<svg width="36" height="36" viewBox="0 0 36 36" fill="none" xmlns="http://www.w3.org/2000/svg">
<rect width="36" height="36" rx="8" fill="#E8F3FA"/>
<path d="M23.8333 17.168H12.1667C11.2462 17.168 10.5 17.9142 10.5 18.8346V24.668C10.5 25.5884 11.2462 26.3346 12.1667 26.3346H23.8333C24.7538 26.3346 25.5 25.5884 25.5 24.668V18.8346C25.5 17.9142 24.7538 17.168 23.8333 17.168Z" stroke="#469DDD" stroke-width="2" stroke-linecap="round" stroke-linejoin="round"/>
<path d="M13.8334 17.168V13.8346C13.8334 12.7296 14.2724 11.6698 15.0538 10.8884C15.8352 10.107 16.895 9.66797 18 9.66797C19.1051 9.66797 20.1649 10.107 20.9463 10.8884C21.7277 11.6698 22.1667 12.7296 22.1667 13.8346V17.168" stroke="#469DDD" stroke-width="2" stroke-linecap="round" stroke-linejoin="round"/>
</svg>
