<svg width="81" height="80" viewBox="0 0 81 80" fill="none" xmlns="http://www.w3.org/2000/svg">
<rect x="0.5" width="80" height="80" rx="40" fill="#E8F3FA"/>
<g clip-path="url(#clip0_559_21093)">
<path d="M32.625 36.25C33.0352 38.6914 34.6266 40.7133 36.7852 41.7484C36.1953 40.2656 35.8047 38.3594 35.6875 36.25H32.625ZM32.625 33.75H35.682C35.7992 31.6406 36.1898 29.7359 36.7852 28.2516C34.6328 29.2891 33.0391 31.3125 32.625 33.75ZM40 42.4062C40.6094 41.8203 41.625 39.7109 41.8281 36.25H38.1641C38.3828 39.7109 39.3984 41.8203 40 42.4062ZM43.2109 28.25C43.8125 29.7344 44.2031 31.6406 44.3203 33.75H47.3773C46.9609 31.3125 45.375 29.2891 43.2109 28.25ZM52.5 20H27.5C24.7383 20 22.5 22.2383 22.5 25V55C22.5 57.7617 24.7383 60 27.5 60H52.5C55.25 60 57.5 57.75 57.5 55V25C57.5 22.25 55.25 20 52.5 20ZM48.75 52.5H31.25C30.5703 52.5 30 51.9375 30 51.25C30 50.5625 30.5703 50 31.25 50H48.75C49.4336 50 50 50.5664 50 51.25C50 51.9336 49.4375 52.5 48.75 52.5ZM40 45C34.4727 45 30 40.5273 30 35C30 29.4727 34.4727 25 40 25C45.5273 25 50 29.4727 50 35C50 40.5273 45.5312 45 40 45ZM43.2109 41.75C45.3687 40.7148 46.9609 38.693 47.3711 36.2516H44.3141C44.2031 38.3594 43.8125 40.2656 43.2109 41.75ZM38.1719 33.75H41.8344C41.6172 30.2969 40.6094 28.1875 40 27.5977C39.3984 28.1875 38.375 30.2969 38.1719 33.75Z" fill="url(#paint0_linear_559_21093)"/>
</g>
<defs>
<linearGradient id="paint0_linear_559_21093" x1="40" y1="20" x2="40" y2="60" gradientUnits="userSpaceOnUse">
<stop stop-color="#469DDD"/>
<stop offset="1" stop-color="#2783C7"/>
</linearGradient>
<clipPath id="clip0_559_21093">
<rect width="35" height="40" fill="white" transform="translate(22.5 20)"/>
</clipPath>
</defs>
</svg>
