<svg width="16" height="20" viewBox="0 0 16 20" fill="none" xmlns="http://www.w3.org/2000/svg">
<path d="M15.1111 0.666016C15.3469 0.666016 15.573 0.764349 15.7397 0.939383C15.9064 1.11442 16 1.35181 16 1.59935V18.3994C16 18.6469 15.9064 18.8843 15.7397 19.0593C15.573 19.2344 15.3469 19.3327 15.1111 19.3327H0.888889C0.653141 19.3327 0.427048 19.2344 0.260349 19.0593C0.0936505 18.8843 0 18.6469 0 18.3994V1.59935C0 1.35181 0.0936505 1.11442 0.260349 0.939383C0.427048 0.764349 0.653141 0.666016 0.888889 0.666016H15.1111ZM14.2222 2.53268H1.77778V17.466H14.2222V2.53268ZM11.5556 13.7327V15.5994H4.44444V13.7327H11.5556ZM8 4.39935C8.94299 4.39935 9.84736 4.79268 10.5142 5.49282C11.181 6.19295 11.5556 7.14254 11.5556 8.13268C11.5556 9.12283 11.181 10.0724 10.5142 10.7725C9.84736 11.4727 8.94299 11.866 8 11.866C7.05701 11.866 6.15264 11.4727 5.48584 10.7725C4.81905 10.0724 4.44444 9.12283 4.44444 8.13268C4.44444 7.14254 4.81905 6.19295 5.48584 5.49282C6.15264 4.79268 7.05701 4.39935 8 4.39935V4.39935ZM8 6.26602C7.5285 6.26602 7.07632 6.46268 6.74292 6.81275C6.40952 7.16282 6.22222 7.63761 6.22222 8.13268C6.22222 8.62775 6.40952 9.10255 6.74292 9.45262C7.07632 9.80268 7.5285 9.99935 8 9.99935C8.4715 9.99935 8.92368 9.80268 9.25708 9.45262C9.59048 9.10255 9.77778 8.62775 9.77778 8.13268C9.77778 7.63761 9.59048 7.16282 9.25708 6.81275C8.92368 6.46268 8.4715 6.26602 8 6.26602V6.26602Z" fill="white"/>
</svg>
