<svg width="140" height="179" viewBox="0 0 140 179" fill="none" xmlns="http://www.w3.org/2000/svg">
<path d="M162.769 175.782C162.654 176.412 162.374 177 161.957 177.487C161.541 177.973 161.002 178.341 160.397 178.551C159.792 178.761 159.142 178.808 158.514 178.685C157.885 178.562 157.3 178.275 156.819 177.852C149.049 171.032 134.109 157.162 129.539 147.652C122.719 133.452 124.219 126.652 125.539 123.152C127.531 118.183 131.354 114.167 136.219 111.932C145.659 107.872 156.469 112.612 161.949 119.092C165.599 123.402 166.739 128.292 167.479 135.312C168.359 143.582 164.729 165.122 162.769 175.782Z" fill="#C0969A"/>
<path d="M77.789 173.732C77.2958 174.141 76.7028 174.412 76.0707 174.517C75.4385 174.622 74.7898 174.557 74.1908 174.33C73.5918 174.102 73.0641 173.719 72.6614 173.22C72.2588 172.722 71.9957 172.125 71.899 171.492C70.339 161.272 67.799 141.052 70.419 130.822C74.329 115.552 79.859 111.302 83.129 109.502C87.8387 106.97 93.3407 106.344 98.499 107.752C108.349 110.702 113.579 121.282 113.619 129.752C113.619 135.402 111.369 139.882 107.419 145.752C102.769 152.662 86.139 166.822 77.789 173.732Z" fill="#C0969A"/>
<path d="M14.0089 117.542C13.3683 117.536 12.7408 117.36 12.19 117.033C11.6392 116.706 11.1848 116.239 10.873 115.679C10.5612 115.119 10.4031 114.487 10.4147 113.847C10.4262 113.206 10.6071 112.58 10.9389 112.032C16.3089 103.202 27.3689 86.032 35.9389 79.932C48.7389 70.742 55.7189 71.0319 59.3789 71.7619C64.6138 72.8582 69.2299 75.9177 72.2789 80.312C77.9289 88.892 75.1289 100.362 69.7089 106.882C66.0989 111.232 61.4689 113.202 54.7089 115.152C46.6889 117.452 24.8589 117.612 14.0089 117.542Z" fill="#C0969A"/>
<path d="M1.27904 33.4919C0.790244 33.0775 0.420206 32.5408 0.206741 31.9366C-0.0067246 31.3324 -0.0559574 30.6823 0.0640405 30.0529C0.184038 29.4234 0.468974 28.837 0.889755 28.3537C1.31054 27.8704 1.85206 27.5075 2.45903 27.3019C12.249 23.9919 31.729 17.982 42.259 18.782C57.969 19.982 63.119 24.682 65.459 27.592C66.129 28.432 70.7991 34.4119 69.8591 42.4319C68.6591 52.6419 59.1491 59.6319 50.7991 61.1419C45.2391 62.1419 40.4291 60.6819 33.979 57.812C26.369 54.4319 9.53904 40.5219 1.27904 33.4919Z" fill="#C0969A"/>
<path d="M45.5389 -39.068C45.43 -39.7011 45.491 -40.3517 45.7157 -40.9535C45.9404 -41.5553 46.3208 -42.0867 46.818 -42.4934C47.3152 -42.9001 47.9114 -43.1676 48.5458 -43.2685C49.1802 -43.3695 49.83 -43.3003 50.4289 -43.068C60.0589 -39.308 78.8489 -31.388 86.4289 -24.008C97.6289 -12.988 98.6289 -6.06805 98.5089 -2.33805C98.5089 -1.26805 98.2089 6.31195 92.3289 11.852C84.8489 18.902 73.0789 18.142 65.7089 13.932C60.7989 11.132 58.0589 6.93195 54.9589 0.581951C51.3089 -6.90805 47.3589 -28.388 45.5389 -39.068Z" fill="#C0969A"/>
<path d="M126.099 -66.208C126.423 -66.761 126.887 -67.2182 127.445 -67.533C128.003 -67.8478 128.635 -68.0088 129.275 -67.9996C129.916 -67.9905 130.543 -67.8115 131.091 -67.4809C131.64 -67.1503 132.092 -66.68 132.399 -66.118C137.399 -57.048 146.669 -38.908 147.709 -28.408C149.259 -12.728 145.519 -6.83804 143.059 -4.02804C139.501 -0.0187454 134.54 2.47247 129.199 2.93196C118.939 3.52196 110.409 -4.62804 107.469 -12.588C105.519 -17.888 106.119 -22.878 107.829 -29.728C109.839 -37.858 120.629 -56.858 126.099 -66.208Z" fill="#C0969A"/>
<path d="M181.499 131.012C181.634 131.624 181.604 132.26 181.413 132.856C181.222 133.453 180.875 133.988 180.41 134.407C179.944 134.826 179.376 135.113 178.762 135.241C178.149 135.368 177.513 135.331 176.919 135.132C167.349 131.922 148.639 125.072 140.919 118.232C129.409 108.002 128.179 101.302 128.079 97.6519C127.999 92.4278 129.916 87.37 133.439 83.5119C140.439 76.2819 151.939 76.4619 159.329 80.2319C164.249 82.7319 167.119 86.7119 170.449 92.7619C174.369 99.9319 179.229 120.672 181.499 131.012Z" fill="#CDABAE"/>
<path d="M120.919 151.482C120.629 152.038 120.197 152.507 119.667 152.841C119.136 153.175 118.527 153.363 117.9 153.384C117.274 153.405 116.653 153.26 116.101 152.963C115.549 152.665 115.086 152.227 114.759 151.692C109.489 143.072 99.5591 125.802 98.0491 115.602C95.7991 100.372 99.179 94.442 101.439 91.602C104.734 87.5435 109.457 84.8994 114.639 84.2119C124.639 83.1519 133.339 90.7119 136.579 98.3419C138.739 103.422 138.379 108.342 137.039 115.082C135.459 123.052 125.829 142.092 120.919 151.482Z" fill="#CDABAE"/>
<path d="M61.359 128.212C60.7798 128.451 60.1476 128.532 59.5269 128.446C58.9062 128.361 58.3194 128.112 57.8262 127.726C57.333 127.339 56.9512 126.829 56.7198 126.247C56.4884 125.665 56.4157 125.031 56.509 124.412C57.999 114.412 61.509 94.812 66.899 86.0319C74.969 72.912 81.359 70.5419 84.899 69.8119C90.0307 68.8204 95.3473 69.8293 99.759 72.632C108.089 78.242 109.899 89.6319 107.479 97.5619C105.869 102.842 102.479 106.362 97.069 110.682C90.769 115.782 71.149 124.182 61.359 128.212Z" fill="#CDABAE"/>
<path d="M30.679 72.102C30.0878 71.9096 29.5578 71.565 29.1421 71.1027C28.7264 70.6405 28.4398 70.0769 28.3111 69.4687C28.1824 68.8606 28.2161 68.2292 28.4088 67.6382C28.6015 67.0472 28.9465 66.5173 29.409 66.102C36.979 59.422 52.259 46.642 62.049 43.382C76.659 38.522 83.049 40.8119 86.289 42.5519C90.8568 45.0906 94.2807 49.2801 95.859 54.2619C98.629 63.9119 92.709 73.802 85.749 78.322C81.129 81.322 76.239 81.8319 69.349 81.6819C61.209 81.4819 40.779 75.312 30.679 72.102Z" fill="#CDABAE"/>
<path d="M43.2492 9.40192C42.915 8.87311 42.7269 8.26519 42.704 7.64004C42.6812 7.01489 42.8244 6.39484 43.1191 5.84304C43.4138 5.29124 43.8495 4.82739 44.3817 4.49871C44.914 4.17003 45.5238 3.98826 46.1492 3.97192C56.2492 3.71192 76.1492 3.74192 85.7592 7.54192C100.079 13.2119 103.519 19.0919 104.859 22.4819C106.736 27.3642 106.664 32.7809 104.659 37.6119C100.589 46.7819 89.6592 50.5519 81.4592 49.5419C75.9792 48.8719 71.9192 46.1119 66.7292 41.5419C60.6292 36.2119 48.9292 18.3519 43.2492 9.40192Z" fill="#CDABAE"/>
<path d="M93.179 -30.548C93.2643 -31.1681 93.512 -31.7547 93.897 -32.2482C94.2821 -32.7417 94.7907 -33.1246 95.3715 -33.3581C95.9522 -33.5916 96.5844 -33.6674 97.2039 -33.5778C97.8234 -33.4883 98.4082 -33.2365 98.899 -32.848C106.799 -26.558 122.039 -13.7281 126.899 -4.64805C134.229 8.89195 133.089 15.6119 131.899 19.0819C130.194 24.0202 126.662 28.1176 122.029 30.532C113.029 34.942 102.239 30.822 96.579 24.762C92.809 20.762 91.479 16.0019 90.419 9.18195C89.249 1.14195 91.779 -20.068 93.179 -30.548Z" fill="#CDABAE"/>
<path d="M157.109 -29.0681C157.573 -29.4882 158.139 -29.7783 158.751 -29.9091C159.363 -30.0399 159.998 -30.0067 160.593 -29.8128C161.188 -29.6189 161.721 -29.2713 162.138 -28.8051C162.555 -28.3389 162.842 -27.7707 162.969 -27.1581C164.969 -17.2581 168.399 2.37193 166.329 12.4719C163.239 27.5519 158.039 31.9719 154.929 33.8819C150.447 36.5723 145.103 37.442 139.999 36.312C130.259 33.892 124.649 23.8119 124.219 15.5319C123.929 10.0219 125.939 5.53195 129.509 -0.358049C133.729 -7.30805 149.289 -21.9181 157.109 -29.0681Z" fill="#CDABAE"/>
<path d="M143.899 119.752C143.751 120.321 143.454 120.84 143.04 121.257C142.625 121.675 142.108 121.975 141.54 122.127C140.972 122.279 140.374 122.279 139.807 122.125C139.239 121.971 138.723 121.67 138.309 121.252C131.659 114.492 118.899 100.792 115.309 91.7819C110.009 78.3219 111.839 72.1819 113.309 69.0819C115.46 64.6674 119.221 61.2457 123.819 59.5219C132.729 56.4219 142.309 61.5219 146.899 67.7819C149.949 71.9719 150.669 76.5319 150.899 83.0019C151.159 90.6419 146.399 110.112 143.899 119.752Z" fill="#D9C0C2"/>
<path d="M99.359 118.682C98.8791 119.023 98.3173 119.231 97.7308 119.285C97.1442 119.338 96.5541 119.235 96.0204 118.986C95.4867 118.737 95.0286 118.351 94.6928 117.867C94.357 117.383 94.1556 116.819 94.109 116.232C93.359 106.782 92.389 88.0919 95.459 78.9019C100.049 65.1819 105.399 61.6519 108.519 60.2219C113.002 58.2243 118.08 58.0203 122.709 59.6519C131.529 63.0019 135.609 73.0419 135.079 80.8119C134.729 85.9819 132.349 89.9419 128.349 95.0319C123.629 101.052 107.459 112.932 99.359 118.682Z" fill="#D9C0C2"/>
<path d="M65.9192 89.2319C65.3321 89.1854 64.7679 88.9839 64.284 88.6481C63.8002 88.3124 63.414 87.8543 63.165 87.3206C62.9159 86.7869 62.8128 86.1967 62.8663 85.6102C62.9197 85.0237 63.1278 84.4618 63.4692 83.9819C68.9792 76.2519 80.2392 61.312 88.4692 56.252C100.799 48.692 107.169 49.4319 110.469 50.3319C115.193 51.6826 119.219 54.7926 121.719 59.0219C126.309 67.2519 122.989 77.5719 117.589 83.1819C113.989 86.922 109.589 88.4119 103.289 89.7419C95.8492 91.3219 75.8392 90.0119 65.9192 89.2319Z" fill="#D9C0C2"/>
<path d="M59.239 45.172C58.8209 44.7586 58.5197 44.2419 58.366 43.6744C58.2123 43.1069 58.2116 42.5088 58.364 41.9409C58.5164 41.3731 58.8164 40.8557 59.2335 40.4413C59.6507 40.027 60.1701 39.7305 60.739 39.582C69.919 37.202 88.159 32.992 97.739 34.432C112.039 36.572 116.449 41.2219 118.399 44.0419C121.138 48.1144 122.212 53.0819 121.399 57.922C119.619 67.182 110.449 72.922 102.709 73.782C97.549 74.332 93.249 72.672 87.529 69.612C80.819 66.012 66.329 52.152 59.239 45.172Z" fill="#D9C0C2"/>
<path d="M82.439 7.13196C82.381 6.54576 82.4801 5.9547 82.726 5.41942C82.9718 4.88414 83.3557 4.42391 83.8382 4.08597C84.3207 3.74803 84.8844 3.54456 85.4715 3.4964C86.0585 3.44825 86.6479 3.55717 87.179 3.81197C95.749 7.88197 112.419 16.392 118.839 23.642C128.419 34.482 128.839 40.8719 128.489 44.292C127.972 49.1731 125.612 53.6728 121.889 56.872C114.569 62.822 103.839 61.342 97.369 57.002C93.069 54.112 90.839 50.072 88.429 44.062C85.629 36.932 83.389 17.032 82.439 7.13196Z" fill="#D9C0C2"/>
<path d="M124.629 -7.06805C124.962 -7.55322 125.417 -7.94138 125.949 -8.19282C126.48 -8.44426 127.069 -8.54996 127.655 -8.4991C128.241 -8.44823 128.803 -8.24264 129.283 -7.90335C129.764 -7.56406 130.145 -7.10324 130.389 -6.56805C134.329 2.06195 141.639 19.292 141.889 28.982C142.269 43.442 138.449 48.5819 136.009 50.9819C132.481 54.3957 127.778 56.3282 122.869 56.382C113.439 56.242 106.169 48.212 104.009 40.722C102.569 35.722 103.459 31.2119 105.469 25.0519C107.889 17.7719 119.019 1.10195 124.629 -7.06805Z" fill="#D9C0C2"/>
<path d="M166.159 9.14194C166.726 8.98379 167.325 8.97919 167.894 9.1286C168.463 9.27801 168.982 9.57606 169.399 9.99223C169.815 10.4084 170.113 10.9277 170.262 11.497C170.412 12.0663 170.407 12.665 170.249 13.2319C167.719 22.3819 162.249 40.2319 156.249 47.8519C147.249 59.1719 141.019 60.6619 137.599 60.9419C132.699 61.2848 127.855 59.7391 124.059 56.6219C116.929 50.4519 116.519 39.6219 119.679 32.5119C121.779 27.7719 125.369 24.8719 130.869 21.4519C137.319 17.4119 156.569 11.7919 166.159 9.14194Z" fill="#D9C0C2"/>
<path d="M187.509 48.252C188.044 48.4973 188.504 48.8801 188.843 49.3613C189.182 49.8425 189.388 50.405 189.439 50.9914C189.489 51.5778 189.384 52.1672 189.133 52.6996C188.882 53.2319 188.494 53.6882 188.009 54.0219C180.199 59.4019 164.499 69.582 155.009 71.5219C140.839 74.402 135.109 71.5219 132.309 69.5219C128.338 66.6395 125.622 62.3452 124.719 57.5219C123.219 48.2119 129.859 39.6619 136.859 36.2319C141.519 33.9519 146.129 34.0419 152.539 34.9519C160.099 36.0519 178.449 44.122 187.509 48.252Z" fill="#D9C0C2"/>
<path d="M178.709 91.9319C178.963 92.4622 179.072 93.0505 179.024 93.6366C178.976 94.2228 178.774 94.7857 178.437 95.2678C178.1 95.75 177.642 96.1341 177.108 96.3808C176.574 96.6275 175.984 96.7279 175.399 96.6719C165.949 95.7719 147.399 93.4819 138.859 88.8519C126.149 81.9519 123.599 76.0719 122.739 72.7619C121.547 68.0028 122.223 62.9679 124.629 58.6919C129.469 50.5919 140.059 48.3119 147.629 50.1819C152.629 51.4219 156.149 54.4619 160.469 59.2819C165.559 64.9319 174.439 82.9319 178.709 91.9319Z" fill="#D9C0C2"/>
<path d="M147.779 85.5819C147.834 85.8385 147.82 86.105 147.738 86.3543C147.657 86.6037 147.51 86.8267 147.314 87.0007C147.117 87.1747 146.878 87.2934 146.621 87.3446C146.363 87.3957 146.097 87.3776 145.849 87.2919C141.849 85.9219 134.089 83.012 130.849 80.132C126.069 75.842 125.579 73.0419 125.549 71.5219C125.53 69.3396 126.345 67.2323 127.829 65.632C130.749 62.632 135.559 62.752 138.629 64.342C140.629 65.402 141.859 67.072 143.229 69.602C144.889 72.582 146.859 81.2619 147.779 85.5819Z" fill="#E6D5D7"/>
<path d="M124.289 95.0019C124.166 95.2321 123.984 95.4256 123.762 95.5629C123.54 95.7001 123.285 95.7761 123.024 95.7832C122.763 95.7903 122.505 95.7283 122.276 95.6034C122.047 95.4784 121.855 95.2951 121.719 95.072C119.539 91.462 115.449 84.2319 114.849 79.9719C113.949 73.6119 115.379 71.1519 116.329 69.9719C117.723 68.3039 119.701 67.2308 121.859 66.9719C126.019 66.5519 129.639 69.7319 130.969 72.9219C131.849 75.0419 131.689 77.0919 131.109 79.9219C130.429 83.1819 126.359 91.1019 124.289 95.0019Z" fill="#E6D5D7"/>
<path d="M100.239 87.1119C99.9972 87.206 99.735 87.2348 99.4785 87.1956C99.2221 87.1563 98.9804 87.0504 98.7779 86.8883C98.5753 86.7262 98.4189 86.5138 98.3243 86.2722C98.2297 86.0306 98.2003 85.7684 98.239 85.5119C98.889 81.3519 100.399 73.1819 102.679 69.5119C106.079 64.0619 108.759 63.0919 110.249 62.8019C112.392 62.3973 114.609 62.8343 116.439 64.0219C119.899 66.3819 120.619 71.1319 119.589 74.4319C118.899 76.6319 117.469 78.0919 115.209 79.8819C112.539 82.0119 104.339 85.4519 100.239 87.1119Z" fill="#E6D5D7"/>
<path d="M86.8891 65.612C86.6411 65.5301 86.4192 65.3842 86.2459 65.1889C86.0726 64.9936 85.954 64.756 85.9022 64.5001C85.8504 64.2442 85.8673 63.9791 85.951 63.7318C86.0347 63.4845 86.1824 63.2638 86.379 63.092C89.549 60.322 95.9591 55.042 100.049 53.712C106.159 51.712 108.829 52.712 110.169 53.432C112.065 54.5037 113.478 56.2606 114.119 58.342C115.259 62.342 112.749 66.482 109.839 68.342C107.899 69.582 105.839 69.772 102.989 69.692C99.629 69.612 91.0891 66.932 86.8891 65.612Z" fill="#E6D5D7"/>
<path d="M90.479 40.562C90.3412 40.3398 90.2646 40.0851 90.2572 39.8238C90.2498 39.5625 90.3117 39.3038 90.4367 39.0742C90.5616 38.8446 90.7452 38.6522 90.9687 38.5165C91.1922 38.3809 91.4476 38.3068 91.709 38.302C95.919 38.222 104.229 38.302 108.219 39.902C114.219 42.302 115.589 44.772 116.139 46.192C116.907 48.23 116.864 50.4847 116.019 52.492C114.289 56.312 109.739 57.852 106.309 57.412C104.019 57.112 102.309 55.9519 100.189 54.0419C97.629 51.7919 92.829 44.302 90.479 40.562Z" fill="#E6D5D7"/>
<path d="M109.339 23.682C109.375 23.4233 109.48 23.1788 109.641 22.9734C109.802 22.768 110.015 22.6089 110.258 22.5125C110.501 22.416 110.765 22.3854 111.023 22.424C111.282 22.4625 111.525 22.5688 111.729 22.732C115.009 25.382 121.329 30.732 123.349 34.572C126.349 40.242 125.869 43.0419 125.349 44.4819C124.625 46.5384 123.14 48.2387 121.199 49.2319C117.419 51.0519 112.939 49.3019 110.599 46.7619C109.039 45.0619 108.489 43.092 108.069 40.242C107.629 36.932 108.719 28.052 109.339 23.682Z" fill="#E6D5D7"/>
<path d="M134.629 22.8719C134.822 22.6943 135.059 22.5716 135.316 22.5165C135.572 22.4614 135.839 22.4759 136.088 22.5586C136.336 22.6412 136.559 22.789 136.731 22.9865C136.904 23.184 137.021 23.4242 137.069 23.6819C137.879 27.8119 139.249 36.012 138.359 40.222C137.029 46.502 134.849 48.3319 133.539 49.1119C131.668 50.2323 129.437 50.5903 127.309 50.1119C123.249 49.1119 120.949 44.8519 120.789 41.3919C120.679 39.0919 121.529 37.232 123.039 34.782C124.819 31.872 131.349 25.8219 134.629 22.8719Z" fill="#E6D5D7"/>
<path d="M154.529 38.5019C154.79 38.4928 155.049 38.5529 155.28 38.6763C155.51 38.7997 155.704 38.9819 155.841 39.2044C155.978 39.4269 156.054 39.6817 156.06 39.943C156.067 40.2043 156.005 40.4627 155.879 40.692C153.879 44.382 149.619 51.542 146.229 54.192C141.169 58.192 138.329 58.142 136.829 57.912C134.68 57.5523 132.748 56.3864 131.429 54.6519C128.989 51.2519 129.929 46.5319 132.029 43.7819C133.429 41.9519 135.279 41.072 138.029 40.162C141.229 39.092 150.119 38.6619 154.529 38.5019Z" fill="#E6D5D7"/>
<path d="M159.719 63.2719C159.926 63.4331 160.087 63.6463 160.184 63.8899C160.281 64.1334 160.312 64.3985 160.274 64.6579C160.235 64.9174 160.128 65.1619 159.964 65.3664C159.8 65.571 159.584 65.7282 159.339 65.822C155.409 67.332 147.579 70.102 143.279 69.962C136.859 69.732 134.689 67.9019 133.679 66.7619C132.272 65.0901 131.556 62.9438 131.679 60.7619C131.989 56.5819 135.749 53.582 139.119 52.822C141.369 52.322 143.349 52.8219 146.019 53.8919C149.149 55.1719 156.239 60.5519 159.719 63.2719Z" fill="#E6D5D7"/>
<path d="M141.709 66.5419C141.831 66.7112 141.905 66.9099 141.924 67.1175C141.943 67.3251 141.906 67.534 141.818 67.7226C141.729 67.9112 141.591 68.0727 141.419 68.1904C141.247 68.3081 141.047 68.3777 140.839 68.3919C137.499 68.6419 130.909 68.9619 127.669 67.8619C122.829 66.2319 121.589 64.3319 121.089 63.2319C120.39 61.6504 120.323 59.8619 120.899 58.2319C122.099 55.1219 125.649 53.6919 128.389 53.8919C130.219 54.0219 131.609 54.8919 133.389 56.2919C135.519 57.9319 139.689 63.6719 141.709 66.5419Z" fill="#F2EAEB"/>
<path d="M131.879 76.5119C131.863 76.719 131.792 76.9182 131.674 77.0889C131.556 77.2596 131.394 77.3957 131.206 77.4833C131.017 77.5708 130.809 77.6067 130.602 77.5871C130.396 77.5675 130.198 77.4933 130.029 77.372C127.309 75.4219 122.029 71.422 120.269 68.502C117.619 64.132 117.889 61.892 118.209 60.722C118.683 59.0423 119.786 57.6099 121.289 56.722C124.199 55.112 127.839 56.3019 129.809 58.2119C131.129 59.4819 131.649 61.0319 132.109 63.2719C132.629 65.9319 132.169 73.0119 131.879 76.5119Z" fill="#F2EAEB"/>
<path d="M117.939 77.832C117.794 77.9884 117.609 78.1023 117.404 78.1612C117.199 78.2201 116.982 78.2219 116.776 78.1663C116.57 78.1107 116.383 77.9998 116.235 77.8457C116.088 77.6916 115.985 77.5001 115.939 77.2919C115.109 74.0519 113.649 67.6119 114.169 64.2319C114.939 59.1819 116.589 57.6319 117.589 56.9519C119.025 55.9807 120.78 55.601 122.489 55.8919C125.759 56.5319 127.779 59.7819 128.059 62.5119C128.249 64.3319 127.659 65.8519 126.579 67.8619C125.329 70.242 120.419 75.332 117.939 77.832Z" fill="#F2EAEB"/>
<path d="M106.419 69.932C106.212 69.9501 106.004 69.9134 105.816 69.8254C105.628 69.7374 105.466 69.6013 105.347 69.4309C105.229 69.2604 105.157 69.0616 105.14 68.8546C105.123 68.6476 105.16 68.4397 105.249 68.252C106.699 65.252 109.719 59.362 112.249 57.102C116.089 53.732 118.349 53.612 119.549 53.722C121.272 53.9103 122.857 54.7513 123.979 56.072C126.079 58.662 125.539 62.442 123.979 64.722C122.979 66.242 121.519 67.0219 119.399 67.8619C116.949 68.8119 109.909 69.562 106.419 69.932Z" fill="#F2EAEB"/>
<path d="M102.699 56.382C102.538 56.2613 102.411 56.1015 102.329 55.9177C102.247 55.7339 102.213 55.5322 102.231 55.3318C102.249 55.1313 102.318 54.9389 102.432 54.7726C102.545 54.6064 102.699 54.4719 102.879 54.382C105.929 53.002 112.019 50.452 115.439 50.382C120.549 50.272 122.359 51.6219 123.209 52.4819C124.405 53.7358 125.078 55.399 125.089 57.132C125.029 60.462 122.189 63.0119 119.539 63.7719C117.779 64.2719 116.189 63.9519 114.019 63.2319C111.449 62.3319 105.629 58.382 102.699 56.382Z" fill="#F2EAEB"/>
<path d="M108.519 43.652C108.466 43.4517 108.467 43.2411 108.521 43.0413C108.576 42.8414 108.682 42.6594 108.828 42.5135C108.975 42.3676 109.158 42.2629 109.358 42.2099C109.559 42.157 109.769 42.1577 109.969 42.2119C113.199 43.1119 119.509 45.0719 122.179 47.2119C126.179 50.4019 126.679 52.602 126.769 53.812C126.887 55.5407 126.336 57.2485 125.229 58.5819C123.049 61.0919 119.229 61.222 116.709 60.102C115.039 59.352 114.019 58.102 112.819 56.102C111.409 53.842 109.449 47.042 108.519 43.652Z" fill="#F2EAEB"/>
<path d="M121.169 37.6419C121.26 37.4626 121.395 37.3094 121.562 37.197C121.729 37.0846 121.921 37.0166 122.122 36.9996C122.322 36.9825 122.523 37.017 122.707 37.0997C122.89 37.1823 123.049 37.3105 123.169 37.472C125.059 40.232 128.629 45.7919 129.299 49.1419C130.299 54.1419 129.299 56.1419 128.579 57.1419C127.555 58.5421 126.035 59.4974 124.329 59.8119C121.039 60.3319 118.029 57.972 116.829 55.502C116.029 53.852 116.069 52.2219 116.399 49.9619C116.829 47.3019 119.699 40.8319 121.169 37.6419Z" fill="#F2EAEB"/>
<path d="M134.719 41.1719C134.907 41.0816 135.116 41.0432 135.323 41.0606C135.531 41.078 135.731 41.1506 135.901 41.271C136.071 41.3913 136.206 41.555 136.292 41.745C136.378 41.9351 136.411 42.1446 136.389 42.352C136.059 45.682 135.229 52.2319 133.589 55.2319C131.139 59.7119 129.059 60.6019 127.889 60.9019C126.197 61.3302 124.405 61.0865 122.889 60.222C120.039 58.502 119.249 54.7619 119.889 52.0919C120.329 50.3219 121.409 49.092 123.109 47.572C125.189 45.782 131.549 42.6719 134.719 41.1719Z" fill="#F2EAEB"/>
<path d="M142.829 52.5819C143.034 52.6328 143.222 52.7379 143.373 52.8862C143.524 53.0345 143.632 53.2206 143.686 53.4251C143.74 53.6295 143.738 53.8447 143.681 54.0483C143.623 54.2518 143.512 54.4361 143.359 54.5819C140.959 56.9219 136.109 61.4019 132.929 62.6519C128.169 64.5019 125.999 63.8519 124.929 63.3319C123.377 62.5642 122.175 61.234 121.569 59.6119C120.489 56.4619 122.289 53.0819 124.509 51.4719C125.999 50.4019 127.609 50.1519 129.889 50.0819C132.569 49.9819 139.439 51.6919 142.829 52.5819Z" fill="#F2EAEB"/>
</svg>
