<svg width="80" height="80" viewBox="0 0 80 80" fill="none" xmlns="http://www.w3.org/2000/svg">
<rect width="80" height="80" rx="40" fill="#E8F3FA"/>
<path d="M28.125 25.75C28.125 24.4902 28.6254 23.282 29.5162 22.3912C30.407 21.5004 31.6152 21 32.875 21H47.125C48.3848 21 49.593 21.5004 50.4838 22.3912C51.3746 23.282 51.875 24.4902 51.875 25.75V54.25C51.875 55.5098 51.3746 56.718 50.4838 57.6088C49.593 58.4996 48.3848 59 47.125 59H32.875C31.6152 59 30.407 58.4996 29.5162 57.6088C28.6254 56.718 28.125 55.5098 28.125 54.25V25.75ZM42.375 51.875C42.375 51.2451 42.1248 50.641 41.6794 50.1956C41.234 49.7502 40.6299 49.5 40 49.5C39.3701 49.5 38.766 49.7502 38.3206 50.1956C37.8752 50.641 37.625 51.2451 37.625 51.875C37.625 52.5049 37.8752 53.109 38.3206 53.5544C38.766 53.9998 39.3701 54.25 40 54.25C40.6299 54.25 41.234 53.9998 41.6794 53.5544C42.1248 53.109 42.375 52.5049 42.375 51.875Z" fill="url(#paint0_linear_571_22434)"/>
<defs>
<linearGradient id="paint0_linear_571_22434" x1="40" y1="21" x2="40" y2="59" gradientUnits="userSpaceOnUse">
<stop stop-color="#469DDD"/>
<stop offset="1" stop-color="#2783C7"/>
</linearGradient>
</defs>
</svg>
