<svg width="20" height="20" viewBox="0 0 20 20" fill="none" xmlns="http://www.w3.org/2000/svg">
<path d="M8.87534 5.51926L6.24412 2.48204C5.94078 2.13204 5.38467 2.1336 5.03234 2.48671L2.86856 4.65437C2.22456 5.29915 2.04023 6.2566 2.41278 7.02426C4.63849 11.6326 8.35504 15.3543 12.9602 17.5865C13.7271 17.959 14.6838 17.7747 15.3278 17.1299L17.5118 14.942C17.8657 14.5882 17.8664 14.0289 17.5133 13.7256L14.4644 11.1084C14.1456 10.8346 13.6501 10.8704 13.3304 11.1908L12.2696 12.2533C12.2152 12.3102 12.1438 12.3477 12.0661 12.3601C11.9884 12.3724 11.9087 12.359 11.8394 12.3217C10.1054 11.3231 8.66689 9.88278 7.67056 8.14738C7.63325 8.07796 7.61974 7.99822 7.6321 7.92039C7.64446 7.84255 7.68202 7.77092 7.739 7.71649L8.79678 6.65793C9.11723 6.33593 9.15223 5.83815 8.87534 5.51849V5.51926Z" stroke="white" stroke-width="1.5" stroke-linecap="round" stroke-linejoin="round"/>
</svg>
