<svg width="184" height="184" viewBox="0 0 184 184" fill="none" xmlns="http://www.w3.org/2000/svg">
<rect x="1" y="1" width="182" height="182" rx="16" fill="#F5F5F5"/>
<g opacity="0.3">
<path d="M78.25 71.75V84.25C78.25 84.913 78.5134 85.5489 78.9822 86.0178C79.4511 86.4866 80.087 86.75 80.75 86.75H103.25C103.913 86.75 104.549 86.4866 105.018 86.0178C105.487 85.5489 105.75 84.913 105.75 84.25V70.5C105.75 69.837 105.487 69.2011 105.018 68.7322C104.549 68.2634 103.913 68 103.25 68H98.25L95.75 64.25H88.25" stroke="#242424" stroke-width="2" stroke-linecap="round" stroke-linejoin="round"/>
<path d="M87.0001 67.697H78.8933" stroke="#242424" stroke-width="2" stroke-linecap="round" stroke-linejoin="round"/>
<path d="M82.9467 63.6436V71.7503" stroke="#242424" stroke-width="2" stroke-linecap="round" stroke-linejoin="round"/>
<path d="M92 80.5C94.0711 80.5 95.75 78.8211 95.75 76.75C95.75 74.6789 94.0711 73 92 73C89.9289 73 88.25 74.6789 88.25 76.75C88.25 78.8211 89.9289 80.5 92 80.5Z" stroke="#242424" stroke-width="2" stroke-linecap="round" stroke-linejoin="round"/>
<path d="M44.733 120.5V110.318H48.1733C48.9721 110.318 49.625 110.462 50.1321 110.751C50.6425 111.036 51.0204 111.422 51.2656 111.909C51.5109 112.396 51.6335 112.94 51.6335 113.54C51.6335 114.14 51.5109 114.685 51.2656 115.175C51.0237 115.666 50.6491 116.057 50.142 116.349C49.6349 116.637 48.9853 116.781 48.1932 116.781H45.7273V115.688H48.1534C48.7003 115.688 49.1394 115.593 49.4709 115.404C49.8023 115.215 50.0426 114.96 50.1918 114.638C50.3442 114.314 50.4205 113.947 50.4205 113.54C50.4205 113.132 50.3442 112.768 50.1918 112.446C50.0426 112.125 49.8007 111.873 49.4659 111.69C49.1312 111.505 48.687 111.412 48.1335 111.412H45.9659V120.5H44.733ZM53.4606 120.5V112.864H54.5941V114.017H54.6737C54.8129 113.639 55.0647 113.333 55.4293 113.097C55.7939 112.862 56.2049 112.744 56.6623 112.744C56.7485 112.744 56.8562 112.746 56.9854 112.749C57.1147 112.753 57.2125 112.758 57.2788 112.764V113.957C57.239 113.947 57.1478 113.933 57.0053 113.913C56.8661 113.889 56.7186 113.878 56.5629 113.878C56.1916 113.878 55.8602 113.956 55.5685 114.112C55.2802 114.264 55.0515 114.476 54.8825 114.748C54.7167 115.016 54.6339 115.323 54.6339 115.668V120.5H53.4606ZM61.5394 120.659C60.85 120.659 60.2451 120.495 59.7248 120.167C59.2077 119.839 58.8034 119.38 58.5117 118.79C58.2234 118.2 58.0792 117.51 58.0792 116.722C58.0792 115.926 58.2234 115.232 58.5117 114.638C58.8034 114.045 59.2077 113.585 59.7248 113.256C60.2451 112.928 60.85 112.764 61.5394 112.764C62.2288 112.764 62.832 112.928 63.3491 113.256C63.8694 113.585 64.2738 114.045 64.5621 114.638C64.8538 115.232 64.9996 115.926 64.9996 116.722C64.9996 117.51 64.8538 118.2 64.5621 118.79C64.2738 119.38 63.8694 119.839 63.3491 120.167C62.832 120.495 62.2288 120.659 61.5394 120.659ZM61.5394 119.605C62.0631 119.605 62.494 119.471 62.832 119.202C63.1701 118.934 63.4203 118.581 63.5827 118.143C63.7451 117.706 63.8263 117.232 63.8263 116.722C63.8263 116.211 63.7451 115.736 63.5827 115.295C63.4203 114.854 63.1701 114.498 62.832 114.226C62.494 113.954 62.0631 113.818 61.5394 113.818C61.0157 113.818 60.5849 113.954 60.2468 114.226C59.9087 114.498 59.6585 114.854 59.4961 115.295C59.3337 115.736 59.2525 116.211 59.2525 116.722C59.2525 117.232 59.3337 117.706 59.4961 118.143C59.6585 118.581 59.9087 118.934 60.2468 119.202C60.5849 119.471 61.0157 119.605 61.5394 119.605ZM69.6742 120.659C69.0378 120.659 68.476 120.498 67.9888 120.177C67.5016 119.852 67.1204 119.395 66.8453 118.805C66.5703 118.211 66.4327 117.51 66.4327 116.702C66.4327 115.9 66.5703 115.204 66.8453 114.614C67.1204 114.024 67.5033 113.568 67.9938 113.246C68.4843 112.925 69.0511 112.764 69.6941 112.764C70.1912 112.764 70.584 112.847 70.8723 113.013C71.164 113.175 71.3861 113.361 71.5385 113.57C71.6943 113.775 71.8153 113.944 71.9015 114.077H72.0009V110.318H73.1742V120.5H72.0407V119.327H71.9015C71.8153 119.466 71.6926 119.642 71.5336 119.854C71.3745 120.062 71.1474 120.25 70.8525 120.415C70.5575 120.578 70.1647 120.659 69.6742 120.659ZM69.8333 119.605C70.3039 119.605 70.7016 119.482 71.0265 119.237C71.3513 118.989 71.5982 118.646 71.7672 118.208C71.9363 117.767 72.0208 117.259 72.0208 116.682C72.0208 116.112 71.9379 115.613 71.7722 115.185C71.6065 114.754 71.3612 114.42 71.0364 114.181C70.7116 113.939 70.3105 113.818 69.8333 113.818C69.3361 113.818 68.9218 113.946 68.5904 114.201C68.2623 114.453 68.0153 114.796 67.8496 115.23C67.6872 115.661 67.606 116.145 67.606 116.682C67.606 117.225 67.6889 117.719 67.8546 118.163C68.0236 118.604 68.2722 118.955 68.6003 119.217C68.9318 119.476 69.3427 119.605 69.8333 119.605ZM80.2985 117.378V112.864H81.4718V120.5H80.2985V119.207H80.2189C80.04 119.595 79.7615 119.925 79.3837 120.197C79.0059 120.465 78.5286 120.599 77.9519 120.599C77.4746 120.599 77.0504 120.495 76.6792 120.286C76.3079 120.074 76.0163 119.756 75.8042 119.332C75.592 118.904 75.486 118.366 75.486 117.716V112.864H76.6593V117.636C76.6593 118.193 76.815 118.637 77.1266 118.969C77.4415 119.3 77.8425 119.466 78.3297 119.466C78.6214 119.466 78.918 119.391 79.2196 119.242C79.5246 119.093 79.7798 118.864 79.9853 118.556C80.1941 118.248 80.2985 117.855 80.2985 117.378ZM86.723 120.659C86.0071 120.659 85.3906 120.49 84.8736 120.152C84.3565 119.814 83.9588 119.348 83.6804 118.755C83.402 118.162 83.2628 117.484 83.2628 116.722C83.2628 115.946 83.4053 115.262 83.6903 114.668C83.9787 114.072 84.3797 113.606 84.8935 113.271C85.4105 112.933 86.0137 112.764 86.7031 112.764C87.2401 112.764 87.724 112.864 88.1548 113.062C88.5857 113.261 88.9387 113.54 89.2138 113.898C89.4889 114.256 89.6596 114.673 89.7259 115.151H88.5526C88.4631 114.803 88.2642 114.494 87.956 114.226C87.651 113.954 87.2401 113.818 86.723 113.818C86.2656 113.818 85.8646 113.937 85.5199 114.176C85.1785 114.411 84.9117 114.745 84.7195 115.175C84.5305 115.603 84.4361 116.105 84.4361 116.682C84.4361 117.272 84.5289 117.786 84.7145 118.223C84.9034 118.661 85.1686 119 85.5099 119.242C85.8546 119.484 86.259 119.605 86.723 119.605C87.0279 119.605 87.3047 119.552 87.5533 119.446C87.8018 119.34 88.0123 119.188 88.1847 118.989C88.357 118.79 88.4796 118.551 88.5526 118.273H89.7259C89.6596 118.723 89.4955 119.129 89.2337 119.491C88.9751 119.849 88.6321 120.134 88.2045 120.346C87.7803 120.555 87.2865 120.659 86.723 120.659ZM94.7621 112.864V113.858H90.8047V112.864H94.7621ZM91.9581 111.034H93.1314V118.312C93.1314 118.644 93.1795 118.893 93.2756 119.058C93.375 119.221 93.5009 119.33 93.6534 119.386C93.8092 119.439 93.9732 119.466 94.1456 119.466C94.2749 119.466 94.3809 119.459 94.4638 119.446C94.5466 119.429 94.6129 119.416 94.6626 119.406L94.9013 120.46C94.8217 120.49 94.7107 120.52 94.5682 120.55C94.4257 120.583 94.245 120.599 94.0263 120.599C93.6948 120.599 93.37 120.528 93.0518 120.386C92.737 120.243 92.4751 120.026 92.2663 119.734C92.0608 119.443 91.9581 119.075 91.9581 118.631V111.034ZM101.857 110.318V120.5H100.624V110.318H101.857ZM104.17 120.5V112.864H105.303V114.057H105.403C105.562 113.649 105.818 113.333 106.173 113.107C106.528 112.879 106.954 112.764 107.451 112.764C107.955 112.764 108.374 112.879 108.709 113.107C109.047 113.333 109.31 113.649 109.499 114.057H109.579C109.774 113.662 110.068 113.349 110.459 113.117C110.85 112.882 111.319 112.764 111.866 112.764C112.548 112.764 113.107 112.978 113.541 113.406C113.975 113.83 114.192 114.491 114.192 115.389V120.5H113.019V115.389C113.019 114.826 112.865 114.423 112.557 114.181C112.248 113.939 111.885 113.818 111.468 113.818C110.931 113.818 110.515 113.981 110.22 114.305C109.925 114.627 109.778 115.035 109.778 115.528V120.5H108.584V115.27C108.584 114.836 108.443 114.486 108.162 114.221C107.88 113.952 107.517 113.818 107.073 113.818C106.768 113.818 106.483 113.899 106.218 114.062C105.956 114.224 105.744 114.45 105.581 114.738C105.422 115.023 105.343 115.353 105.343 115.727V120.5H104.17ZM118.585 120.679C118.101 120.679 117.662 120.588 117.267 120.406C116.873 120.22 116.56 119.953 116.328 119.605C116.096 119.254 115.98 118.83 115.98 118.332C115.98 117.895 116.066 117.54 116.238 117.268C116.41 116.993 116.641 116.778 116.929 116.622C117.218 116.466 117.536 116.35 117.884 116.274C118.235 116.195 118.588 116.132 118.943 116.085C119.407 116.026 119.783 115.981 120.071 115.951C120.363 115.918 120.575 115.863 120.708 115.787C120.843 115.711 120.911 115.578 120.911 115.389V115.349C120.911 114.859 120.777 114.478 120.509 114.206C120.244 113.934 119.841 113.798 119.301 113.798C118.74 113.798 118.301 113.921 117.983 114.166C117.665 114.411 117.441 114.673 117.312 114.952L116.198 114.554C116.397 114.09 116.662 113.729 116.994 113.47C117.329 113.208 117.693 113.026 118.088 112.923C118.485 112.817 118.876 112.764 119.261 112.764C119.506 112.764 119.788 112.794 120.106 112.854C120.427 112.91 120.737 113.028 121.036 113.207C121.337 113.386 121.588 113.656 121.786 114.017C121.985 114.378 122.085 114.862 122.085 115.469V120.5H120.911V119.466H120.852C120.772 119.632 120.64 119.809 120.454 119.998C120.268 120.187 120.021 120.348 119.713 120.48C119.405 120.613 119.029 120.679 118.585 120.679ZM118.764 119.625C119.228 119.625 119.619 119.534 119.937 119.352C120.258 119.169 120.5 118.934 120.663 118.646C120.829 118.357 120.911 118.054 120.911 117.736V116.662C120.862 116.722 120.752 116.776 120.583 116.826C120.418 116.872 120.225 116.914 120.007 116.95C119.791 116.983 119.581 117.013 119.375 117.04C119.173 117.063 119.009 117.083 118.883 117.099C118.578 117.139 118.293 117.204 118.028 117.293C117.766 117.379 117.554 117.51 117.392 117.686C117.232 117.858 117.153 118.094 117.153 118.392C117.153 118.8 117.304 119.108 117.605 119.317C117.91 119.522 118.296 119.625 118.764 119.625ZM127.309 123.523C126.742 123.523 126.255 123.45 125.847 123.304C125.439 123.161 125.1 122.973 124.828 122.737C124.559 122.505 124.346 122.257 124.186 121.991L125.121 121.335C125.227 121.474 125.361 121.634 125.524 121.812C125.686 121.995 125.908 122.152 126.19 122.285C126.475 122.421 126.848 122.489 127.309 122.489C127.925 122.489 128.434 122.339 128.835 122.041C129.236 121.743 129.436 121.276 129.436 120.639V119.088H129.337C129.251 119.227 129.128 119.4 128.969 119.605C128.813 119.807 128.588 119.988 128.293 120.147C128.001 120.303 127.607 120.381 127.11 120.381C126.493 120.381 125.94 120.235 125.449 119.943C124.962 119.652 124.576 119.227 124.291 118.67C124.009 118.114 123.868 117.437 123.868 116.642C123.868 115.86 124.006 115.179 124.281 114.599C124.556 114.015 124.939 113.565 125.429 113.246C125.92 112.925 126.487 112.764 127.13 112.764C127.627 112.764 128.021 112.847 128.313 113.013C128.608 113.175 128.833 113.361 128.989 113.57C129.148 113.775 129.271 113.944 129.357 114.077H129.476V112.864H130.61V120.719C130.61 121.375 130.461 121.909 130.162 122.32C129.867 122.734 129.47 123.037 128.969 123.229C128.472 123.425 127.918 123.523 127.309 123.523ZM127.269 119.327C127.739 119.327 128.137 119.219 128.462 119.004C128.787 118.788 129.034 118.478 129.203 118.074C129.372 117.67 129.456 117.186 129.456 116.622C129.456 116.072 129.373 115.586 129.208 115.165C129.042 114.745 128.797 114.415 128.472 114.176C128.147 113.937 127.746 113.818 127.269 113.818C126.772 113.818 126.357 113.944 126.026 114.196C125.698 114.448 125.451 114.786 125.285 115.21C125.123 115.634 125.042 116.105 125.042 116.622C125.042 117.152 125.124 117.621 125.29 118.029C125.459 118.433 125.708 118.752 126.036 118.984C126.367 119.212 126.778 119.327 127.269 119.327ZM135.959 120.659C135.223 120.659 134.589 120.497 134.055 120.172C133.525 119.844 133.115 119.386 132.827 118.8C132.542 118.21 132.4 117.524 132.4 116.741C132.4 115.959 132.542 115.27 132.827 114.673C133.115 114.073 133.516 113.606 134.03 113.271C134.547 112.933 135.15 112.764 135.84 112.764C136.238 112.764 136.63 112.83 137.018 112.963C137.406 113.096 137.759 113.311 138.077 113.609C138.395 113.904 138.649 114.295 138.838 114.783C139.027 115.27 139.121 115.87 139.121 116.582V117.08H133.235V116.065H137.928C137.928 115.634 137.842 115.25 137.669 114.912C137.5 114.574 137.258 114.307 136.944 114.112C136.632 113.916 136.264 113.818 135.84 113.818C135.373 113.818 134.968 113.934 134.627 114.166C134.289 114.395 134.029 114.693 133.846 115.061C133.664 115.429 133.573 115.823 133.573 116.244V116.92C133.573 117.497 133.672 117.986 133.871 118.387C134.073 118.785 134.353 119.088 134.711 119.297C135.069 119.502 135.485 119.605 135.959 119.605C136.267 119.605 136.546 119.562 136.794 119.476C137.046 119.386 137.263 119.254 137.446 119.078C137.628 118.899 137.769 118.677 137.868 118.412L139.002 118.73C138.882 119.115 138.682 119.453 138.4 119.744C138.118 120.033 137.77 120.258 137.356 120.42C136.942 120.58 136.476 120.659 135.959 120.659Z" fill="#242424"/>
</g>
<rect x="1" y="1" width="182" height="182" rx="16" stroke="#E0E0E0" stroke-linecap="round" stroke-dasharray="11 11"/>
</svg>
