<svg width="24" height="24" viewBox="0 0 24 24" fill="none" xmlns="http://www.w3.org/2000/svg">
<g opacity="0.5">
<path d="M10.4779 11.633L5.96794 4.56097L7.89894 4.04297L14.8499 10.463L20.1119 9.05297C20.4962 8.95007 20.9057 9.00404 21.2502 9.20301C21.5947 9.40199 21.846 9.72967 21.9489 10.114C22.0518 10.4983 21.9979 10.9077 21.7989 11.2522C21.5999 11.5967 21.2722 11.8481 20.8879 11.951L5.91594 15.961L5.13994 13.063L5.38094 12.998L7.84794 15.443L5.22194 16.147C5.00661 16.2047 4.77815 16.1888 4.57288 16.1019C4.3676 16.0149 4.19727 15.8618 4.08894 15.667L1.46594 10.941L2.91494 10.553L5.38094 12.998L10.4779 11.632V11.633ZM3.99994 19.001H19.9999V21.001H3.99994V19.001Z" fill="#242424"/>
</g>
</svg>
