<svg width="54" height="54" viewBox="0 0 54 54" fill="none" xmlns="http://www.w3.org/2000/svg">
<g filter="url(#filter0_d_471_16437)">
<rect x="42" y="38" width="30" height="30" rx="15" transform="rotate(-180 42 38)" fill="white" shape-rendering="crispEdges"/>
<path d="M29.5442 24.6667L25.3334 31.3333L23.6667 31.3333L25.7717 24.6667L21.305 24.6667L19.9167 27.1667L18.6667 27.1667L19.5 23.4167L18.6667 19.6667L19.9167 19.6667L21.3059 22.1667L25.7725 22.1667L23.6667 15.5L25.3334 15.5L29.5442 22.1667L34.0834 22.1667C34.4149 22.1667 34.7328 22.2984 34.9673 22.5328C35.2017 22.7672 35.3334 23.0851 35.3334 23.4167C35.3334 23.7482 35.2017 24.0661 34.9673 24.3006C34.7328 24.535 34.4149 24.6667 34.0834 24.6667L29.5442 24.6667Z" fill="#469DDD"/>
<rect x="42" y="38" width="30" height="30" rx="15" transform="rotate(-180 42 38)" stroke="#469DDD" stroke-width="2" shape-rendering="crispEdges"/>
</g>
<defs>
<filter id="filter0_d_471_16437" x="0" y="0" width="54" height="54" filterUnits="userSpaceOnUse" color-interpolation-filters="sRGB">
<feFlood flood-opacity="0" result="BackgroundImageFix"/>
<feColorMatrix in="SourceAlpha" type="matrix" values="0 0 0 0 0 0 0 0 0 0 0 0 0 0 0 0 0 0 127 0" result="hardAlpha"/>
<feOffset dy="4"/>
<feGaussianBlur stdDeviation="5.5"/>
<feComposite in2="hardAlpha" operator="out"/>
<feColorMatrix type="matrix" values="0 0 0 0 0 0 0 0 0 0 0 0 0 0 0 0 0 0 0.06 0"/>
<feBlend mode="normal" in2="BackgroundImageFix" result="effect1_dropShadow_471_16437"/>
<feBlend mode="normal" in="SourceGraphic" in2="effect1_dropShadow_471_16437" result="shape"/>
</filter>
</defs>
</svg>
