<svg width="36" height="36" viewBox="0 0 36 36" fill="none" xmlns="http://www.w3.org/2000/svg">
<rect width="36" height="36" rx="8" fill="#E8F3FA"/>
<path d="M24.6667 25.5V23.8333C24.6667 22.9493 24.3155 22.1014 23.6904 21.4763C23.0653 20.8512 22.2174 20.5 21.3334 20.5H14.6667C13.7827 20.5 12.9348 20.8512 12.3097 21.4763C11.6846 22.1014 11.3334 22.9493 11.3334 23.8333V25.5" stroke="#469DDD" stroke-width="2" stroke-linecap="round" stroke-linejoin="round"/>
<path d="M18 17.1667C19.8409 17.1667 21.3333 15.6743 21.3333 13.8333C21.3333 11.9924 19.8409 10.5 18 10.5C16.159 10.5 14.6666 11.9924 14.6666 13.8333C14.6666 15.6743 16.159 17.1667 18 17.1667Z" stroke="#469DDD" stroke-width="2" stroke-linecap="round" stroke-linejoin="round"/>
</svg>
