<svg width="20" height="20" viewBox="0 0 20 20" fill="none" xmlns="http://www.w3.org/2000/svg">
<g opacity="0.7">
<path d="M9.99996 18.3327C14.6023 18.3327 18.3333 14.6017 18.3333 9.99935C18.3333 5.39698 14.6023 1.66602 9.99996 1.66602C5.39759 1.66602 1.66663 5.39698 1.66663 9.99935C1.66663 14.6017 5.39759 18.3327 9.99996 18.3327Z" stroke="white" stroke-linecap="round" stroke-linejoin="round"/>
<path d="M10 14.166H10.0083" stroke="white" stroke-linecap="round" stroke-linejoin="round"/>
<path d="M7.57495 7.50047C7.77087 6.94353 8.15758 6.4739 8.66658 6.17475C9.17558 5.87561 9.77403 5.76626 10.3559 5.86607C10.9378 5.96588 11.4656 6.26841 11.8458 6.72008C12.2261 7.17175 12.4342 7.74341 12.4333 8.33381C12.4333 10.0005 9.93328 10.8338 9.93328 10.8338" stroke="white" stroke-linecap="round" stroke-linejoin="round"/>
</g>
</svg>
