<svg width="21" height="28" viewBox="0 0 21 28" fill="none" xmlns="http://www.w3.org/2000/svg">
<path d="M10.2529 12.6025C11.9244 12.6025 13.5273 11.9386 14.709 10.7564C15.8907 9.57447 16.5544 7.97149 16.5541 6.30004C16.5539 4.62883 15.8896 3.02586 14.7074 1.8444C13.5252 0.662891 11.922 -0.000479834 10.2506 2.60409e-07C8.57935 0.000703539 6.97662 0.665291 5.7954 1.8477C4.61389 3.02988 3.95076 4.63333 3.95166 6.30454C3.95424 7.97479 4.61905 9.57567 5.80032 10.7562C6.9816 11.9368 8.58289 12.6009 10.2529 12.6025V12.6025Z" fill="#978284"/>
<path d="M2.68847 27.3294H17.8114C18.5243 27.3294 19.2083 27.046 19.7124 26.5417C20.2166 26.0377 20.4998 25.3537 20.4998 24.6408V24.0257C20.4313 21.3528 19.3216 18.8121 17.4066 16.9455C15.4919 15.0792 12.9238 14.0347 10.2502 14.0347C7.57613 14.0347 5.00805 15.0792 3.09319 16.9455C1.17845 18.812 0.0684735 21.3526 0 24.0257V24.6408C0 25.3537 0.283184 26.0377 0.787415 26.5417C1.29165 27.046 1.97547 27.3294 2.68859 27.3294H2.68847Z" fill="#978284"/>
</svg>
