<svg width="25" height="25" viewBox="0 0 25 25" fill="none" xmlns="http://www.w3.org/2000/svg">
<path d="M3.5 11.3926V3.39258H11.5V11.3926H3.5ZM5.5 9.39258H9.5V5.39258H5.5V9.39258ZM3.5 21.3926V13.3926H11.5V21.3926H3.5ZM5.5 19.3926H9.5V15.3926H5.5V19.3926ZM13.5 11.3926V3.39258H21.5V11.3926H13.5ZM15.5 9.39258H19.5V5.39258H15.5V9.39258ZM19.5 21.3926V19.3926H21.5V21.3926H19.5ZM13.5 15.3926V13.3926H15.5V15.3926H13.5ZM15.5 17.3926V15.3926H17.5V17.3926H15.5ZM13.5 19.3926V17.3926H15.5V19.3926H13.5ZM15.5 21.3926V19.3926H17.5V21.3926H15.5ZM17.5 19.3926V17.3926H19.5V19.3926H17.5ZM17.5 15.3926V13.3926H19.5V15.3926H17.5ZM19.5 17.3926V15.3926H21.5V17.3926H19.5Z" fill="black"/>
</svg>
