<svg width="82" height="70" viewBox="0 0 82 70" fill="none" xmlns="http://www.w3.org/2000/svg">
<path d="M19.1519 16.5711C19.4753 17.268 19.9601 17.8778 20.5662 18.3501C21.1722 18.8223 21.882 19.1434 22.6368 19.2867C22.7934 19.3197 22.9551 19.3211 23.1122 19.2909C23.2694 19.2607 23.419 19.1994 23.5522 19.1106C23.6854 19.0219 23.7995 18.9074 23.8879 18.774C23.9763 18.6406 24.0372 18.4909 24.067 18.3336C24.0968 18.1764 24.095 18.0147 24.0616 17.8582C24.0281 17.7017 23.9638 17.5534 23.8724 17.4221C23.7809 17.2907 23.6642 17.1789 23.529 17.0932C23.3938 17.0075 23.2429 16.9497 23.0851 16.9231C22.7063 16.8503 22.3503 16.6885 22.0464 16.4509C21.7426 16.2134 21.4996 15.907 21.3375 15.557L18.8769 10.2935C19.2317 10.2883 19.5832 10.3615 19.9064 10.5078C20.2297 10.6541 20.5166 10.8699 20.7469 11.1398L22.5481 13.2236C22.6787 13.3749 22.8448 13.4912 23.0316 13.562C23.2184 13.6328 23.4199 13.6559 23.6179 13.6293L54.9748 9.44101C55.2158 9.40733 55.4588 9.39056 55.7022 9.39083C56.5773 9.39147 57.4401 9.5979 58.2208 9.99344C59.0014 10.389 59.6782 10.9625 60.1963 11.6678C60.3347 11.8577 60.526 12.0026 60.7463 12.0845L63.0687 12.9548C63.2659 13.0278 63.432 13.1664 63.5391 13.3473C63.6462 13.5283 63.6878 13.7406 63.6568 13.9486C63.6258 14.1566 63.5242 14.3475 63.3691 14.4895C63.2139 14.6314 63.0146 14.7156 62.8047 14.7279L50.7618 15.4154L51.7202 13.643C51.8243 13.4505 51.8739 13.2332 51.8636 13.0145C51.8534 12.7958 51.7837 12.5841 51.662 12.4021C51.5404 12.2202 51.3714 12.0748 51.1733 11.9818C50.9751 11.8887 50.7554 11.8515 50.5377 11.8741L40.8893 12.8758C40.6217 12.9036 40.3711 13.0203 40.1776 13.2072C39.984 13.3942 39.8587 13.6405 39.8216 13.907L39.5191 16.0582L35.2607 16.3016C34.9416 16.3107 34.6392 16.4462 34.42 16.6783C34.2009 16.9103 34.0828 17.22 34.092 17.5391C34.1011 17.8582 34.2366 18.1606 34.4687 18.3797C34.7007 18.5989 35.0104 18.7169 35.3295 18.7078C35.3528 18.7078 35.3758 18.7078 35.3982 18.7078L39.1795 18.4919L38.0685 26.3748C38.0448 26.5443 38.0575 26.7168 38.1058 26.8809C38.154 27.045 38.2367 27.197 38.3482 27.3267C38.4598 27.4564 38.5977 27.5608 38.7527 27.6331C38.9078 27.7053 39.0765 27.7437 39.2475 27.7457L43.3402 27.789H43.3533C43.5701 27.7889 43.783 27.7303 43.9692 27.6192C44.1555 27.5081 44.3082 27.3487 44.4113 27.1579L49.4136 17.9028L62.9408 17.13C63.7008 17.0856 64.4224 16.7815 64.9849 16.2686C65.5474 15.7558 65.9168 15.0653 66.0311 14.3127C66.1455 13.5601 65.9979 12.7911 65.6131 12.1343C65.2282 11.4775 64.6295 10.9728 63.9171 10.7046L61.9082 9.94839C61.1589 9.02348 60.2127 8.27746 59.1384 7.76472C58.0642 7.25198 56.889 6.98546 55.6987 6.98458C55.3468 6.98448 54.9954 7.0086 54.6468 7.05676L40.6906 8.92126L38.0293 3.29408L39.9268 2.68083L42.9195 5.60201C43.0306 5.7203 43.1645 5.81488 43.3131 5.88006C43.4617 5.94525 43.622 5.9797 43.7843 5.98133C43.9465 5.98296 44.1075 5.95175 44.2574 5.88957C44.4073 5.82738 44.543 5.73552 44.6565 5.61949C44.77 5.50347 44.8588 5.36569 44.9176 5.21444C44.9765 5.06319 45.0041 4.90161 44.9989 4.73941C44.9936 4.57721 44.9556 4.41774 44.8871 4.27061C44.8187 4.12348 44.7211 3.99172 44.6004 3.88326L41.088 0.455389C40.9311 0.302413 40.7354 0.195132 40.5221 0.1451C40.3088 0.0950671 40.0858 0.104178 39.8773 0.171452L35.986 1.42958C35.8232 1.48226 35.6735 1.56905 35.5469 1.68414C35.4203 1.79924 35.3197 1.94001 35.2518 2.09705C35.1839 2.2541 35.1502 2.42382 35.153 2.5949C35.1559 2.76599 35.1952 2.9345 35.2683 3.0892L38.1812 9.25539L23.9403 11.1577L22.5653 9.5682C21.9811 8.88731 21.2187 8.38276 20.3636 8.11121C19.5085 7.83966 18.5947 7.81187 17.7246 8.03095L16.8446 8.25095C16.6724 8.29399 16.5119 8.37459 16.3745 8.48699C16.2371 8.59939 16.1263 8.7408 16.05 8.90107C15.9737 9.06135 15.9338 9.23652 15.9332 9.41402C15.9326 9.59153 15.9713 9.76697 16.0465 9.92776L19.1519 16.5711ZM42.6403 25.3752L40.6418 25.3539L42.0738 15.172L48.5164 14.5031L42.6403 25.3752ZM30.7019 16.5608C31.0195 16.5464 31.3301 16.6567 31.5674 16.8683C31.8047 17.0799 31.9498 17.3759 31.9717 17.6931C31.9808 17.8508 31.9587 18.0088 31.9068 18.158C31.8548 18.3072 31.7739 18.4447 31.6687 18.5627C31.5636 18.6806 31.4362 18.7766 31.2939 18.8453C31.1516 18.914 30.9972 18.9539 30.8394 18.9629L27.1503 19.174C27.1276 19.174 27.1042 19.174 27.0815 19.174C26.7624 19.1831 26.4528 19.0651 26.2207 18.8459C25.9886 18.6267 25.8531 18.3243 25.844 18.0052C25.8349 17.6861 25.9529 17.3765 26.1721 17.1444C26.3913 16.9123 26.6937 16.7768 27.0128 16.7677L30.7019 16.5608ZM65.9493 51.0045C65.873 50.8443 65.7622 50.7029 65.6248 50.5906C65.4874 50.4783 65.3268 50.3978 65.1546 50.3548L64.2773 50.1355C63.4076 49.9116 62.4924 49.9369 61.6363 50.2083C60.7803 50.4798 60.0178 50.9865 59.436 51.6707L58.061 53.2616L43.8187 51.3579L46.7378 45.1876C46.8109 45.0328 46.8501 44.8643 46.8529 44.6932C46.8556 44.5221 46.8218 44.3523 46.7538 44.1953C46.6857 44.0383 46.5849 43.8976 46.4582 43.7827C46.3314 43.6677 46.1816 43.5811 46.0187 43.5286L42.1275 42.2705C41.9191 42.203 41.6963 42.1937 41.483 42.2436C41.2698 42.2935 41.0742 42.4008 40.9175 42.5538L33.3247 49.9568L27.3579 49.1627C26.001 48.983 24.6208 49.154 23.3488 49.6595C22.0769 50.165 20.9557 50.9881 20.0924 52.0502L18.0835 52.8064C17.371 53.0748 16.7722 53.5797 16.3875 54.2367C16.0027 54.8938 15.8554 55.663 15.9701 56.4157C16.0847 57.1684 16.4545 57.8589 17.0175 58.3716C17.5804 58.8842 18.3024 59.1879 19.0625 59.2318L32.5877 60.0046L33.4244 61.5528C33.4987 61.6932 33.6002 61.8175 33.7228 61.9184C33.8454 62.0194 33.9868 62.0951 34.1388 62.1412C34.2908 62.1872 34.4505 62.2027 34.6085 62.1867C34.7666 62.1708 34.9199 62.1237 35.0596 62.0481C35.1994 61.9726 35.3228 61.8702 35.4227 61.7467C35.5227 61.6233 35.5972 61.4812 35.642 61.3288C35.6867 61.1764 35.7009 61.0166 35.6836 60.8587C35.6663 60.7008 35.6179 60.5479 35.5412 60.4088L33.4835 56.6021L39.9261 57.2711L41.3582 67.4536L39.3596 67.4743L38.5621 65.9975C38.4104 65.7167 38.1533 65.5077 37.8475 65.4164C37.5417 65.3251 37.2121 65.3591 36.9313 65.5108C36.6505 65.6625 36.4415 65.9195 36.3502 66.2253C36.2589 66.5312 36.2929 66.8607 36.4446 67.1415L37.5879 69.2576C37.6912 69.4484 37.8441 69.6078 38.0304 69.7189C38.2168 69.83 38.4297 69.8887 38.6466 69.8888H38.6625L42.7551 69.8448C42.9262 69.8428 43.0949 69.8044 43.25 69.7322C43.405 69.6599 43.5429 69.5555 43.6545 69.4258C43.766 69.2961 43.8487 69.1441 43.8969 68.98C43.9451 68.8158 43.9579 68.6433 43.9342 68.4739L42.8253 60.5876L58.1826 61.4689C58.2748 61.4738 58.3669 61.4758 58.4576 61.4758C59.3799 61.4791 60.2837 61.2173 61.0615 60.7216C61.8392 60.2259 62.4582 59.5172 62.8446 58.6798L65.9521 52.0316C66.0278 51.8707 66.0668 51.6949 66.0663 51.5171C66.0658 51.3392 66.0259 51.1637 65.9493 51.0031V51.0045ZM42.0759 44.7833L43.9741 45.3966L41.3121 51.0238L36.3559 50.3617L42.0759 44.7833ZM60.6625 57.6623C60.4561 58.1031 60.1224 58.4721 59.7045 58.7217C59.2865 58.9713 58.8034 59.0901 58.3174 59.0627L42.4808 58.1586L42.1783 56.0047C42.1412 55.7382 42.0159 55.4918 41.8224 55.3049C41.6288 55.118 41.3783 55.0013 41.1106 54.9734L31.4664 53.9752C31.2487 53.9526 31.0289 53.9898 30.8308 54.0829C30.6326 54.1759 30.4637 54.3213 30.342 54.5033C30.2204 54.6852 30.1507 54.897 30.1404 55.1156C30.1302 55.3343 30.1798 55.5516 30.2839 55.7441L31.2464 57.5193L19.2055 56.8318C18.9957 56.8205 18.7961 56.7375 18.6403 56.5966C18.4844 56.4557 18.3818 56.2655 18.3495 56.0578C18.3173 55.8502 18.3574 55.6378 18.4632 55.4563C18.569 55.2747 18.734 55.1351 18.9305 55.0608L21.2612 54.1808C21.4784 54.0985 21.6672 53.9553 21.805 53.7683C22.3953 52.9603 23.1932 52.3272 24.1142 51.936C25.0352 51.5448 26.0448 51.4102 27.0361 51.5463L58.3862 55.7324C58.584 55.7591 58.7854 55.7359 58.9721 55.6651C59.1588 55.5943 59.3248 55.478 59.4552 55.3268L61.2613 53.2396C61.4897 52.9683 61.7758 52.7516 62.0988 52.6053C62.4217 52.459 62.7733 52.3868 63.1278 52.394L60.6625 57.6623ZM81.7254 34.4062C81.7291 34.5642 81.7015 34.7214 81.6444 34.8688C81.5873 35.0161 81.5017 35.1508 81.3926 35.2651C81.2834 35.3794 81.1528 35.471 81.0081 35.5348C80.8635 35.5986 80.7078 35.6333 80.5498 35.6368H80.5216C80.2074 35.6366 79.9057 35.5134 79.6811 35.2938C79.4564 35.0741 79.3265 34.7753 79.3192 34.4612C79.2856 32.9361 79.1014 31.418 78.7691 29.9292C78.7345 29.775 78.7306 29.6156 78.7576 29.4599C78.7846 29.3042 78.842 29.1554 78.9265 29.0219C79.0111 28.8884 79.1211 28.7729 79.2502 28.6819C79.3794 28.5909 79.5252 28.5263 79.6794 28.4916C79.8336 28.457 79.993 28.4531 80.1487 28.4801C80.3044 28.5071 80.4532 28.5645 80.5867 28.649C80.7202 28.7336 80.8357 28.8435 80.9267 28.9727C81.0177 29.1019 81.0823 29.2477 81.117 29.4019C81.4854 31.0457 81.6901 32.722 81.7281 34.4062H81.7254ZM75.0415 21.6551C74.863 21.3963 74.7929 21.0779 74.8462 20.7681C74.8995 20.4582 75.0719 20.1815 75.3267 19.9972C75.5814 19.8129 75.8982 19.7357 76.2092 19.782C76.5201 19.8283 76.8006 19.9945 76.9906 20.2451C77.9792 21.6119 78.8258 23.0761 79.5172 24.6148C79.5819 24.7589 79.6177 24.9143 79.6224 25.0721C79.6271 25.23 79.6007 25.3873 79.5447 25.5349C79.4886 25.6826 79.404 25.8178 79.2957 25.9327C79.1875 26.0477 79.0576 26.1402 78.9135 26.205C78.7695 26.2698 78.6141 26.3056 78.4562 26.3103C78.2983 26.315 78.1411 26.2886 77.9934 26.2325C77.8458 26.1765 77.7106 26.0919 77.5956 25.9836C77.4806 25.8753 77.3881 25.7454 77.3233 25.6014C76.6992 24.2122 75.9356 22.89 75.0443 21.6551H75.0415ZM81.3473 39.4325C81.0559 41.0932 80.5985 42.7204 79.9819 44.2897C79.8651 44.5867 79.6351 44.8252 79.3425 44.9526C79.0499 45.0801 78.7187 45.0861 78.4216 44.9693C78.1246 44.8525 77.8861 44.6225 77.7587 44.3299C77.6312 44.0373 77.6252 43.706 77.742 43.409C78.3007 41.9898 78.7153 40.518 78.9795 39.0159C79.0057 38.8592 79.0626 38.7092 79.147 38.5745C79.2314 38.4399 79.3416 38.3234 79.4713 38.2316C79.6011 38.1398 79.7477 38.0746 79.9027 38.0398C80.0577 38.005 80.2181 38.0013 80.3746 38.0288C80.5311 38.0563 80.6806 38.1145 80.8144 38.2001C80.9483 38.2857 81.0639 38.397 81.1545 38.5275C81.2451 38.658 81.309 38.8052 81.3424 38.9605C81.3759 39.1158 81.3782 39.2763 81.3493 39.4325H81.3473ZM70.9172 54.2234C71.0033 54.356 71.0623 54.5043 71.0911 54.6597C71.1198 54.8152 71.1177 54.9748 71.0847 55.1294C71.0518 55.284 70.9887 55.4307 70.8991 55.5609C70.8095 55.6912 70.6951 55.8025 70.5625 55.8885C69.6245 56.4989 68.6444 57.042 67.6296 57.5138C67.4859 57.5833 67.3299 57.6235 67.1705 57.6321C67.0111 57.6407 66.8517 57.6175 66.7013 57.5638C66.551 57.5102 66.4129 57.4272 66.295 57.3197C66.1771 57.2121 66.0817 57.0822 66.0145 56.9374C65.9473 56.7927 65.9095 56.636 65.9034 56.4765C65.8974 56.3171 65.9231 56.158 65.9791 56.0085C66.0351 55.8591 66.1202 55.7223 66.2296 55.6061C66.339 55.4898 66.4704 55.3966 66.6162 55.3316C67.5277 54.9077 68.4081 54.4197 69.2507 53.8714C69.3832 53.785 69.5315 53.7256 69.687 53.6965C69.8425 53.6674 70.0021 53.6693 70.1569 53.702C70.3117 53.7347 70.4585 53.7976 70.589 53.887C70.7194 53.9765 70.831 54.0908 70.9172 54.2234ZM72.8195 18.5689C72.5203 18.5691 72.2319 18.4573 72.011 18.2555C70.8862 17.232 69.6566 16.33 68.3425 15.5646C68.2025 15.487 68.0793 15.3822 67.9803 15.2564C67.8812 15.1307 67.8083 14.9864 67.7657 14.832C67.7232 14.6777 67.7118 14.5164 67.7324 14.3576C67.753 14.1989 67.805 14.0458 67.8855 13.9074C67.966 13.769 68.0733 13.648 68.2011 13.5516C68.3289 13.4552 68.4747 13.3853 68.6299 13.3459C68.7851 13.3066 68.9466 13.2986 69.1049 13.3225C69.2632 13.3463 69.4151 13.4015 69.5518 13.4849C71.0126 14.3353 72.3794 15.3378 73.6294 16.4755C73.8091 16.6389 73.9352 16.8528 73.9911 17.0892C74.0469 17.3256 74.0299 17.5734 73.9423 17.7999C73.8546 18.0265 73.7005 18.2212 73.5001 18.3584C73.2997 18.4957 73.0624 18.5691 72.8195 18.5689ZM77.6685 48.7743C76.7457 50.1877 75.6804 51.5029 74.4895 52.6992C74.2642 52.9252 73.9584 53.0525 73.6393 53.053C73.3201 53.0535 73.0139 52.9272 72.7879 52.702C72.5619 52.4767 72.4346 52.1708 72.4341 51.8517C72.4336 51.5326 72.5599 51.2264 72.7852 51.0004C73.8595 49.921 74.8204 48.7344 75.6527 47.4591C75.8271 47.1918 76.1006 47.0047 76.4129 46.939C76.7252 46.8733 77.0509 46.9344 77.3182 47.1088C77.5855 47.2832 77.7726 47.5566 77.8383 47.869C77.9039 48.1813 77.8429 48.507 77.6685 48.7743ZM0.654024 30.5431C0.948032 28.8826 1.40751 27.2557 2.02559 25.6866C2.08101 25.5362 2.16592 25.3984 2.27535 25.2813C2.38478 25.1641 2.51651 25.07 2.66281 25.0045C2.80911 24.939 2.96702 24.9034 3.12727 24.8998C3.28753 24.8961 3.4469 24.9246 3.59601 24.9834C3.74512 25.0422 3.88098 25.1302 3.9956 25.2423C4.11022 25.3544 4.20129 25.4882 4.26346 25.6359C4.32563 25.7837 4.35766 25.9424 4.35765 26.1027C4.35763 26.263 4.32559 26.4216 4.2634 26.5694C3.70499 27.9882 3.29041 29.4595 3.0259 30.9611C2.97654 31.2394 2.83091 31.4914 2.61449 31.6732C2.39806 31.8549 2.12463 31.9548 1.84202 31.9553C1.77125 31.9555 1.70061 31.9493 1.63096 31.9367C1.4753 31.9094 1.32654 31.8517 1.19318 31.7668C1.05983 31.682 0.944501 31.5717 0.853778 31.4423C0.763055 31.3129 0.698718 31.1669 0.664444 31.0126C0.630169 30.8583 0.626629 30.6988 0.654024 30.5431ZM4.34659 21.2028C5.27034 19.7909 6.33676 18.4778 7.52902 17.284C7.75697 17.0725 8.05798 16.9574 8.36892 16.9629C8.67986 16.9685 8.97658 17.0942 9.19684 17.3137C9.4171 17.5333 9.54379 17.8296 9.55033 18.1405C9.55688 18.4514 9.44278 18.7528 9.23196 18.9815C8.1557 20.0595 7.19297 21.2453 6.3589 22.52C6.18413 22.7869 5.91051 22.9734 5.59824 23.0385C5.28597 23.1036 4.96062 23.042 4.69377 22.8672C4.42693 22.6924 4.24043 22.4188 4.17532 22.1065C4.11021 21.7943 4.17182 21.4689 4.34659 21.2021V21.2028ZM14.072 56.0659C13.9113 56.3416 13.6477 56.5422 13.3392 56.6235C13.0307 56.7049 12.7025 56.6603 12.4268 56.4997C10.9669 55.6476 9.60111 54.6438 8.35196 53.5049C8.23286 53.3992 8.13595 53.2708 8.06685 53.1273C7.99775 52.9838 7.95784 52.828 7.94942 52.6689C7.94101 52.5099 7.96426 52.3507 8.01784 52.2007C8.07141 52.0507 8.15424 51.9128 8.26152 51.7951C8.36879 51.6773 8.49838 51.5821 8.64276 51.5148C8.78714 51.4475 8.94345 51.4096 9.1026 51.4032C9.26176 51.3968 9.4206 51.4221 9.56991 51.4776C9.71922 51.5331 9.85603 51.6176 9.9724 51.7264C11.0961 52.7507 12.3246 53.6537 13.6375 54.4207C13.7741 54.5001 13.8937 54.6057 13.9895 54.7314C14.0853 54.8571 14.1554 55.0004 14.1958 55.1532C14.2361 55.306 14.2459 55.4653 14.2247 55.6219C14.2035 55.7785 14.1516 55.9294 14.072 56.0659ZM15.6773 13.1941C15.8155 13.4815 15.8339 13.8121 15.7284 14.1132C15.623 14.4142 15.4023 14.661 15.1149 14.7994C14.3054 15.1888 13.5214 15.6292 12.7678 16.118C12.5002 16.2785 12.1807 16.3288 11.8768 16.2583C11.5728 16.1877 11.3082 16.0018 11.1387 15.7398C10.9692 15.4778 10.9081 15.1602 10.9683 14.854C11.0286 14.5479 11.2054 14.2771 11.4615 14.0988C12.3005 13.5549 13.1731 13.0646 14.074 12.631C14.3614 12.4935 14.6915 12.4756 14.992 12.5811C15.2926 12.6867 15.539 12.9071 15.6773 13.1941ZM2.31434 41.4854C2.22786 41.5045 2.13958 41.5141 2.05102 41.5143C1.77772 41.5138 1.5127 41.4204 1.29954 41.2493C1.08638 41.0783 0.937773 40.8398 0.878149 40.5731C0.511126 38.9289 0.308008 37.2523 0.271774 35.5681C0.268306 35.4101 0.296003 35.2529 0.353282 35.1056C0.410562 34.9583 0.496302 34.8238 0.605603 34.7096C0.714905 34.5954 0.845627 34.5039 0.990301 34.4403C1.13498 34.3767 1.29077 34.3422 1.44877 34.3388C1.6072 34.3337 1.76507 34.3602 1.9131 34.4169C2.06114 34.4736 2.19636 34.5593 2.31086 34.6689C2.42535 34.7785 2.5168 34.9099 2.57985 35.0553C2.6429 35.2008 2.67628 35.3573 2.67802 35.5158C2.71104 37.0412 2.89527 38.5595 3.22802 40.0485C3.2625 40.2029 3.26621 40.3625 3.23894 40.5183C3.21167 40.674 3.15395 40.8229 3.06909 40.9564C2.98423 41.0898 2.87389 41.2052 2.74438 41.296C2.61487 41.3868 2.46874 41.4511 2.31434 41.4854ZM6.9419 48.326C7.1287 48.5847 7.20507 48.9071 7.15421 49.2221C7.10335 49.5372 6.92942 49.8191 6.67068 50.0059C6.41194 50.1927 6.0896 50.2691 5.77456 50.2182C5.45951 50.1674 5.17758 49.9934 4.99077 49.7347C4.0037 48.3664 3.15852 46.9011 2.46834 45.3615C2.34676 45.0719 2.34327 44.7462 2.45861 44.454C2.57396 44.1619 2.799 43.9264 3.08564 43.7979C3.37228 43.6695 3.69779 43.6582 3.99263 43.7665C4.28747 43.8749 4.52825 44.0942 4.66352 44.3777C5.28741 45.7675 6.05078 47.0904 6.9419 48.326Z" fill="url(#paint0_linear_914_2903)"/>
<defs>
<linearGradient id="paint0_linear_914_2903" x1="66.5949" y1="60.5951" x2="15.405" y2="9.40595" gradientUnits="userSpaceOnUse">
<stop stop-color="#3EA7FB"/>
<stop offset="1" stop-color="#BDE14A"/>
</linearGradient>
</defs>
</svg>
