<svg width="19" height="22" viewBox="0 0 19 22" fill="none" xmlns="http://www.w3.org/2000/svg">
<path fill-rule="evenodd" clip-rule="evenodd" d="M8.52534 21.6631L5.41289 18.6067C4.16033 17.3497 6.03927 15.4643 7.29159 16.7212L7.30414 16.7338C7.68966 17.1253 8.00426 16.9968 8.00426 16.4436V6.66382C8.00426 5.92953 8.60278 5.33316 9.34076 5.33316H9.32518C10.0653 5.33316 10.6614 5.92888 10.6614 6.66382V16.4436C10.6614 16.9995 10.9751 17.1265 11.362 16.7338L11.3746 16.7212C12.6269 15.4643 14.5058 17.3497 13.2533 18.6067L10.1834 21.6585C9.72719 22.1119 8.98476 22.1142 8.52535 21.6631L8.52534 21.6631ZM15.9331 15.933C15.4123 16.4536 14.5682 16.4536 14.0474 15.933C13.5268 15.4122 13.5268 14.5681 14.0474 14.0473C16.6508 11.4438 16.6508 7.22287 14.0474 4.61929C11.4439 2.01584 7.22296 2.01584 4.61938 4.61929C2.01593 7.22275 2.01593 11.4437 4.61938 14.0473C5.13998 14.5681 5.13998 15.4122 4.61938 15.933C4.09855 16.4536 3.2545 16.4536 2.73367 15.933C-0.911222 12.2881 -0.911222 6.37822 2.73367 2.73358C6.37855 -0.911073 12.2884 -0.911311 15.9331 2.73358C19.5777 6.37846 19.578 12.2884 15.9331 15.933Z" fill="white"/>
</svg>
