<svg width="76" height="76" viewBox="0 0 76 76" fill="none" xmlns="http://www.w3.org/2000/svg">
<circle cx="38" cy="38" r="34" fill="white"/>
<path opacity="0.4" fill-rule="evenodd" clip-rule="evenodd" d="M34.2516 26.9963C34.2516 26.4458 33.7969 26 33.2369 26H33.2356L31.0636 26.0013C28.1422 26.0039 25.7649 28.3378 25.7649 31.2037V33.6827C25.7649 34.2318 26.2196 34.679 26.7796 34.679C27.3396 34.679 27.7956 34.2318 27.7956 33.6827V31.2037C27.7956 29.4347 29.2622 27.9952 31.0649 27.9926L33.2369 27.9913C33.7982 27.9913 34.2516 27.5454 34.2516 26.9963ZM44.925 26.0003H42.801C42.241 26.0003 41.7864 26.4462 41.7864 26.9966C41.7864 27.5458 42.241 27.9903 42.801 27.9903H44.925C46.7344 27.9903 48.2064 29.4337 48.2064 31.208V33.683C48.2064 34.2321 48.661 34.6793 49.221 34.6793C49.7824 34.6793 50.2357 34.2321 50.2357 33.683V31.208C50.2357 28.3355 47.8544 26.0003 44.925 26.0003ZM34.3177 30.9902H41.683C42.4897 30.9902 43.2644 31.3079 43.8284 31.8741C44.3964 32.4454 44.711 33.2129 44.7097 34.0118V35.6723C44.703 35.8671 44.5444 36.0253 44.3457 36.0305H31.6524C31.455 36.024 31.2964 35.8658 31.2924 35.6723V34.0118C31.2777 32.3578 32.6324 31.0072 34.3177 30.9902Z" fill="#469DDD"/>
<path d="M51.652 38.0547H24.3493C23.7893 38.0547 23.3333 38.5005 23.3333 39.051C23.3333 39.6001 23.7893 40.0447 24.3493 40.0447H25.764V44.796C25.764 47.662 28.1426 49.9958 31.064 49.9984L33.236 49.9997C33.7973 49.9997 34.2506 49.5539 34.252 49.0034C34.252 48.4543 33.7973 48.0084 33.2373 48.0084L31.0666 48.0071C29.2626 48.0045 27.7946 46.565 27.7946 44.796V40.0447H31.292V41.3665C31.2786 43.0204 32.632 44.3724 34.3173 44.3881H41.6826C43.3693 44.3724 44.7226 43.0204 44.7093 41.3665V40.0447H48.2066V44.7908C48.2066 46.5663 46.7346 48.0084 44.9253 48.0084H42.8013C42.24 48.0084 41.7853 48.4543 41.7853 49.0034C41.7853 49.5539 42.24 49.9997 42.8013 49.9997H44.9253C47.8533 49.9997 50.236 47.6646 50.236 44.7908V40.0447H51.652C52.212 40.0447 52.6666 39.6001 52.6666 39.051C52.6666 38.5005 52.212 38.0547 51.652 38.0547Z" fill="#469DDD"/>
<circle cx="38" cy="38" r="37" stroke="white" stroke-width="2"/>
</svg>
