<svg width="50" height="46" viewBox="0 0 50 46" fill="none" xmlns="http://www.w3.org/2000/svg">
<rect width="50" height="46" rx="23" fill="#469DDD"/>
<path d="M36.4299 23.4181C36.4373 22.74 36.0678 22.1169 35.4708 21.7883L21.5609 14.1146C20.9371 13.7618 20.2041 13.8028 19.6199 14.2005C19.0243 14.6056 18.7211 15.5741 18.8901 16.2743L20.2041 21.7091C20.3382 22.2672 20.8379 22.6609 21.4113 22.6602L29.1393 22.6602C29.5357 22.6528 29.8576 22.9748 29.8503 23.3711C29.8509 23.7595 29.535 24.0754 29.1393 24.0821L21.4046 24.0754C20.8305 24.0754 20.3315 24.4671 20.196 25.0251L18.8707 30.474C18.7104 31.1172 18.8975 31.7618 19.3536 32.2179C19.4073 32.2715 19.4676 32.3319 19.5287 32.3782C20.1182 32.8349 20.8902 32.8946 21.5475 32.5458L35.4574 25.0345C36.0544 24.7193 36.4232 24.0955 36.4299 23.4181Z" fill="#FBFBFB"/>
</svg>
