<svg width="40" height="40" viewBox="0 0 40 40" fill="none" xmlns="http://www.w3.org/2000/svg">
<rect width="40" height="40" rx="10" fill="#978284"/>
<path d="M9 27.3536C9.00103 28.5475 9.47554 29.692 10.3196 30.536C11.1637 31.3798 12.3082 31.8546 13.5018 31.8557H13.6052C13.9781 31.8562 14.3495 31.8104 14.7111 31.7191C16.1269 31.3503 23.4934 29.293 29.5881 23.8658C30.5633 22.9891 31.1204 21.7394 31.1204 20.4277C31.1204 19.1163 30.5634 17.8664 29.5881 16.9896C23.4936 11.5772 16.1266 9.49382 14.7111 9.13631C14.3495 9.04527 13.9781 8.99949 13.6052 9H13.5018C12.0163 9.00026 10.6262 9.73326 9.78725 10.9595C8.94832 12.1855 8.76825 13.7466 9.30605 15.1316L11.3672 20.426L9.30605 25.7204C9.10314 26.2412 8.99923 26.7951 9 27.3538V27.3536ZM11.9497 27.3538C11.9499 27.1609 11.9862 26.9696 12.0567 26.7898L13.9555 21.9007H19.6923C20.2192 21.9007 20.706 21.6196 20.9697 21.1633C21.233 20.7071 21.233 20.1449 20.9697 19.6887C20.7061 19.2324 20.2192 18.9513 19.6923 18.9513H13.9555L12.0567 14.0622C11.8702 13.5846 11.9317 13.0461 12.2207 12.6228C12.5098 12.1995 12.9892 11.9462 13.5018 11.9459H13.6052C13.7294 11.9469 13.8534 11.9631 13.9737 11.994C15.2015 12.3036 22.0114 14.2063 27.6156 19.1909V19.1906C27.9623 19.5077 28.1598 19.956 28.1598 20.4259C28.1598 20.8958 27.9623 21.344 27.6156 21.6612C22.0262 26.6496 15.2128 28.5375 13.9889 28.8581C13.8682 28.889 13.7445 28.9052 13.6201 28.9062H13.5169C13.1026 28.91 12.7039 28.7483 12.4098 28.4566C12.1153 28.1652 11.9499 27.7682 11.9499 27.3538" fill="white"/>
</svg>
