<svg width="25" height="25" viewBox="0 0 25 25" fill="none" xmlns="http://www.w3.org/2000/svg">
<path fill-rule="evenodd" clip-rule="evenodd" d="M12.3465 2.66622C12.4373 2.66622 12.5273 2.66784 12.6174 2.67018C12.9891 2.68101 13.3128 2.53287 13.5479 2.24562L15.0325 0.427364C15.3941 -0.0157919 16.012 -0.12911 16.5071 0.157248L18.52 1.31888L20.5323 2.48052C21.0274 2.76687 21.2385 3.35816 21.0358 3.89297L20.2038 6.08603C20.0719 6.43373 20.106 6.78828 20.3016 7.10497C20.3971 7.25943 20.4878 7.41623 20.5748 7.57609C20.7509 7.90196 21.0405 8.10836 21.4068 8.16827L23.7216 8.54466C24.2859 8.63704 24.6933 9.11503 24.6933 9.68698V14.3348C24.6933 14.9068 24.2866 15.3848 23.7216 15.4771L21.4068 15.8535C21.0405 15.9133 20.7511 16.1197 20.5741 16.4457C20.488 16.6056 20.3971 16.7624 20.3017 16.9168C20.1061 17.2326 20.072 17.588 20.2039 17.9358L21.0359 20.1295C21.2385 20.6641 21.0274 21.2564 20.5323 21.542L18.5201 22.7036L16.5071 23.8662C16.012 24.1518 15.3944 24.0385 15.0326 23.596L13.5479 21.7785C13.3135 21.4914 12.9891 21.3431 12.6183 21.3539C12.5276 21.3563 12.4375 21.3579 12.3468 21.3579C12.256 21.3579 12.166 21.3563 12.0759 21.3539C11.7042 21.3431 11.3805 21.4905 11.1454 21.7785L9.66073 23.596C9.29914 24.0392 8.68132 24.1525 8.18619 23.8662L6.17324 22.7036L4.16103 21.542C3.6659 21.2556 3.4548 20.6643 3.65744 20.1295L4.48945 17.9365C4.62135 17.5888 4.58725 17.2333 4.39165 16.9175C4.2962 16.7638 4.20545 16.6063 4.11847 16.4464C3.94236 16.1196 3.65276 15.9132 3.28646 15.8542L0.971647 15.4778C0.407412 15.3854 0 14.9075 0 14.3355V9.68767C0 9.11568 0.406706 8.63699 0.971647 8.54535L3.28646 8.16896C3.65275 8.10923 3.94216 7.90281 4.11916 7.57678C4.20523 7.41691 4.29617 7.26011 4.39162 7.10567C4.58722 6.7899 4.62132 6.43445 4.48942 6.08672L3.65741 3.89297C3.45478 3.35835 3.66589 2.76612 4.161 2.48052L6.17321 1.31888L8.18616 0.157248C8.68129 -0.129105 9.29892 -0.0157919 9.6607 0.427364L11.1454 2.24492C11.3797 2.532 11.7042 2.68032 12.075 2.67021C12.1657 2.66715 12.2558 2.66624 12.3465 2.66624V2.66622ZM12.3465 6.58911C15.3412 6.58911 17.7695 9.01723 17.7695 12.012C17.7695 15.0068 15.3413 17.435 12.3465 17.435C9.35181 17.435 6.92359 15.0068 6.92359 12.012C6.92359 9.01733 9.35172 6.58911 12.3465 6.58911Z" fill="white"/>
</svg>
