<svg width="18" height="21" viewBox="0 0 18 21" fill="none" xmlns="http://www.w3.org/2000/svg">
<path d="M14.9835 0C15.1458 0.0381445 15.3094 0.0717773 15.4701 0.114844C17.0005 0.52582 18.0762 1.98967 17.9955 3.55031C17.9079 5.24713 16.7191 6.60803 15.0937 6.8373C14.0253 6.98783 13.0856 6.67529 12.2889 5.93209C12.2344 5.88123 12.1815 5.82914 12.1278 5.77828C12.1234 5.77377 12.1157 5.77295 12.0902 5.76187C10.2509 6.91934 8.40108 8.08295 6.54196 9.25272C6.84482 10.0857 6.84441 10.9147 6.54196 11.7473C8.39704 12.9146 10.2428 14.0757 12.0991 15.2439C12.2134 15.1393 12.324 15.0318 12.4407 14.9321C13.5451 13.99 15.1018 13.8612 16.3407 14.6085C17.5804 15.3563 18.2139 16.816 17.9272 18.2647C17.6506 19.6625 16.5042 20.7547 15.0954 20.9635C15.057 20.9692 15.0211 20.9877 14.9835 21.0004C14.7412 21.0004 14.4989 21.0004 14.2567 21.0004C13.9045 20.8946 13.5351 20.8273 13.2027 20.676C11.6493 19.9689 10.876 18.1908 11.3892 16.5396C11.4425 16.3681 11.4228 16.2865 11.262 16.186C9.51437 15.097 7.77357 13.9974 6.03115 12.9006C5.99158 12.8756 5.95079 12.8535 5.89466 12.8207C5.05838 13.6812 4.0513 14.0741 2.8633 13.8945C2.01127 13.7657 1.30623 13.3461 0.763113 12.6652C-0.356234 11.2608 -0.230247 9.27691 1.04941 8.01814C2.28505 6.80244 4.43127 6.63838 5.90153 8.18098C6.12483 8.0407 6.35217 7.89756 6.57952 7.75441C8.15678 6.76225 9.73323 5.76885 11.3125 4.78037C11.4256 4.70982 11.4462 4.6524 11.405 4.52074C10.7524 2.43879 12.024 0.375293 14.163 0.0336328C14.1953 0.0283008 14.2256 0.0118945 14.2571 0.000410156C14.4989 0 14.7412 0 14.9835 0ZM14.608 19.7421C15.7907 19.7453 16.7546 18.7765 16.761 17.5777C16.7675 16.3689 15.8069 15.3837 14.6189 15.3804C13.4357 15.3776 12.4783 16.3419 12.4678 17.5461C12.4569 18.756 13.4147 19.7388 14.608 19.7421ZM14.6172 1.25795C13.4333 1.25385 12.4779 2.21607 12.4678 3.42357C12.4573 4.62205 13.4131 5.61094 14.5898 5.61955C15.7814 5.62816 16.7566 4.65486 16.7615 3.45188C16.7659 2.23904 15.8109 1.26205 14.6172 1.25795ZM1.24041 10.5041C1.24364 11.7083 2.19702 12.6775 3.38098 12.6796C4.57301 12.6816 5.53689 11.7046 5.53487 10.4959C5.53326 9.28758 4.56615 8.31469 3.3725 8.32084C2.18895 8.32658 1.23718 9.30111 1.24041 10.5041Z" fill="#B9B9B9"/>
</svg>
