<svg width="18" height="18" viewBox="0 0 18 18" fill="none" xmlns="http://www.w3.org/2000/svg">
<path fill-rule="evenodd" clip-rule="evenodd" d="M14.1487 3.8424C14.4765 3.95715 14.6955 4.26615 14.6955 4.6134V9.69315C14.6955 11.1129 14.1795 12.4681 13.2682 13.5181C12.81 14.0469 12.2302 14.4586 11.6145 14.7916L8.946 16.2331L6.273 14.7909C5.6565 14.4579 5.076 14.0469 4.617 13.5174C3.705 12.4674 3.1875 11.1114 3.1875 9.69015V4.6134C3.1875 4.26615 3.4065 3.95715 3.73425 3.8424L8.67075 2.10765C8.84625 2.04615 9.0375 2.04615 9.21225 2.10765L14.1487 3.8424Z" stroke="#469DDD" stroke-width="1.5" stroke-linecap="round" stroke-linejoin="round"/>
<path d="M6.99188 8.93734L8.41088 10.3571L11.3344 7.43359" stroke="#469DDD" stroke-width="1.5" stroke-linecap="round" stroke-linejoin="round"/>
</svg>
