<svg width="18" height="21" viewBox="0 0 18 21" fill="none" xmlns="http://www.w3.org/2000/svg">
<path fill-rule="evenodd" clip-rule="evenodd" d="M15.865 3.1245C16.302 3.2775 16.594 3.6895 16.594 4.1525V10.9255C16.594 12.8185 15.906 14.6255 14.691 16.0255C14.08 16.7305 13.307 17.2795 12.486 17.7235L8.928 19.6455L5.364 17.7225C4.542 17.2785 3.768 16.7305 3.156 16.0245C1.94 14.6245 1.25 12.8165 1.25 10.9215V4.1525C1.25 3.6895 1.542 3.2775 1.979 3.1245L8.561 0.8115C8.795 0.7295 9.05 0.7295 9.283 0.8115L15.865 3.1245Z" stroke="#34C27E" stroke-width="1.5" stroke-linecap="round" stroke-linejoin="round"/>
<path d="M6.32251 9.91906L8.21451 11.8121L12.1125 7.91406" stroke="#34C27E" stroke-width="1.5" stroke-linecap="round" stroke-linejoin="round"/>
</svg>
