<svg width="35" height="35" viewBox="0 0 35 35" fill="none" xmlns="http://www.w3.org/2000/svg">
<path d="M17.5 35C22.1411 35 26.592 33.1563 29.8746 29.8746C33.1563 26.5925 35 22.1416 35 17.5C35 12.8584 33.1563 8.40797 29.8746 5.12543C26.5925 1.84366 22.1416 0 17.5 0C12.8584 0 8.40797 1.84366 5.12543 5.12543C1.84366 8.40748 0 12.8584 0 17.5C0.00517804 22.1398 1.85043 26.5878 5.13115 29.869C8.4118 33.1496 12.8599 34.995 17.5001 35.0001L17.5 35ZM17.5 2.44184V2.44212C21.4936 2.44212 25.3237 4.02848 28.1478 6.85244C30.9718 9.67639 32.5582 13.5065 32.5582 17.5003C32.5582 21.4941 30.9718 25.3239 28.1478 28.1481C25.3239 30.9721 21.4938 32.5584 17.5 32.5584C13.5062 32.5584 9.67633 30.9721 6.85216 28.1481C4.02821 25.3241 2.44184 21.4941 2.44184 17.5003C2.44593 13.508 4.03393 9.68009 6.85677 6.85732C9.67989 4.03448 13.5075 2.44644 17.4997 2.4424L17.5 2.44184Z" fill="#978284"/>
<path d="M12.3832 22.0826C12.2756 21.6597 11.9507 21.3264 11.5305 21.2084C11.1105 21.0901 10.6595 21.2048 10.3471 21.5095C10.0348 21.8139 9.90864 22.2622 10.0163 22.685C10.5886 24.9156 12.1262 26.7742 14.2099 27.7548C16.2934 28.7354 18.7058 28.7354 20.7893 27.7548C22.873 26.7742 24.4106 24.9156 24.9829 22.685C25.0737 22.3677 25.032 22.0274 24.8676 21.7412C24.7033 21.4551 24.4302 21.2477 24.1103 21.1665C23.7906 21.085 23.4516 21.1365 23.1703 21.309C22.8891 21.4815 22.6899 21.7608 22.6177 22.0827C22.2236 23.6056 21.1719 24.8739 19.7479 25.543C18.3243 26.2118 16.6766 26.2118 15.2528 25.543C13.8289 24.874 12.7772 23.6056 12.3831 22.0827L12.3832 22.0826Z" fill="#978284"/>
<path d="M7.73264 15.4652C8.0564 15.4652 8.36709 15.3366 8.59601 15.1077C8.82493 14.8788 8.95356 14.5684 8.95356 14.2443C8.95356 13.5175 9.34137 12.8457 9.97091 12.4821C10.6007 12.1186 11.3764 12.1186 12.0059 12.4821C12.6354 12.8457 13.0232 13.5175 13.0232 14.2443C13.0232 14.6806 13.2559 15.0837 13.6337 15.3017C14.0114 15.5197 14.4769 15.5197 14.8546 15.3017C15.2323 15.0837 15.4651 14.6806 15.4651 14.2443C15.4651 12.6451 14.6118 11.1672 13.2268 10.3674C11.8418 9.56777 10.1353 9.56777 8.74998 10.3674C7.36497 11.1672 6.51172 12.6451 6.51172 14.2443C6.51172 14.5684 6.64036 14.8788 6.86927 15.1077C7.09819 15.3366 7.40888 15.4652 7.73264 15.4652Z" fill="#978284"/>
<path d="M20.7561 15.4652C21.0798 15.4652 21.3902 15.3366 21.6194 15.1077C21.8484 14.8788 21.977 14.5684 21.977 14.2443C21.977 13.5175 22.3648 12.8457 22.9943 12.4821C23.6239 12.1186 24.3995 12.1186 25.0293 12.4821C25.6588 12.8457 26.0466 13.5175 26.0466 14.2443C26.0466 14.6806 26.2794 15.0837 26.6571 15.3017C27.0348 15.5197 27.5003 15.5197 27.878 15.3017C28.2557 15.0837 28.4885 14.6806 28.4885 14.2443C28.4885 12.6451 27.6352 11.1672 26.2502 10.3674C24.865 9.56777 23.1584 9.56777 21.7734 10.3674C20.3884 11.1672 19.5352 12.6451 19.5352 14.2443C19.5352 14.5684 19.6638 14.8788 19.8927 15.1077C20.1216 15.3366 20.432 15.4652 20.7561 15.4652Z" fill="#978284"/>
</svg>
