<svg width="42" height="18" viewBox="0 0 42 18" fill="none" xmlns="http://www.w3.org/2000/svg">
<path fill-rule="evenodd" clip-rule="evenodd" d="M41.7692 9.25152C41.7692 6.26006 40.3384 3.89961 37.6038 3.89961C34.8577 3.89961 33.1961 6.26006 33.1961 9.22815C33.1961 12.7454 35.1577 14.5216 37.9731 14.5216C39.3461 14.5216 40.3846 14.2061 41.1692 13.7621V11.425C40.3846 11.8223 39.4846 12.0677 38.3423 12.0677C37.2231 12.0677 36.2308 11.6704 36.1038 10.2915H41.7461C41.7461 10.1396 41.7692 9.53197 41.7692 9.25152ZM36.0692 8.14141C36.0692 6.82096 36.8654 6.27175 37.5923 6.27175C38.2961 6.27175 39.0461 6.82096 39.0461 8.14141H36.0692ZM28.7423 3.89961C27.6115 3.89961 26.8846 4.43714 26.4808 4.81107L26.3308 4.08658H23.7923V17.7117L26.6769 17.0924L26.6885 13.7854C27.1038 14.0893 27.7154 14.5216 28.7308 14.5216C30.7961 14.5216 32.6769 12.8389 32.6769 9.13467C32.6654 5.7459 30.7615 3.89961 28.7423 3.89961ZM28.05 11.9508C27.3692 11.9508 26.9654 11.7055 26.6885 11.4016L26.6769 7.06635C26.9769 6.72748 27.3923 6.49377 28.05 6.49377C29.1 6.49377 29.8269 7.68568 29.8269 9.21646C29.8269 10.7823 29.1115 11.9508 28.05 11.9508ZM19.8231 3.21018L22.7192 2.57916V0.207031L19.8231 0.826357V3.21018ZM19.8231 4.09826H22.7192V14.323H19.8231V4.09826ZM16.7192 4.96298L16.5346 4.09826H14.0423V14.323H16.9269V7.39354C17.6077 6.49377 18.7615 6.65736 19.1192 6.7859V4.09826C18.75 3.95804 17.4 3.70096 16.7192 4.96298ZM10.95 1.56254L8.13462 2.17018L8.12308 11.5302C8.12308 13.2596 9.40385 14.5333 11.1115 14.5333C12.0577 14.5333 12.75 14.358 13.1308 14.1477V11.7756C12.7615 11.9275 10.9385 12.465 10.9385 10.7356V6.58725H13.1308V4.09826H10.9385L10.95 1.56254ZM3.15 7.06635C3.15 6.61062 3.51923 6.43534 4.13077 6.43534C5.00769 6.43534 6.11539 6.7041 6.99231 7.18321V4.43714C6.03462 4.05152 5.08846 3.89961 4.13077 3.89961C1.78847 3.89961 0.230774 5.13826 0.230774 7.20658C0.230774 10.4317 4.61539 9.91759 4.61539 11.3081C4.61539 11.8457 4.15385 12.021 3.5077 12.021C2.55 12.021 1.32693 11.6237 0.357697 11.0861V13.8672C1.43077 14.3347 2.51539 14.5333 3.5077 14.5333C5.90769 14.5333 7.55769 13.3297 7.55769 11.238C7.54615 7.75579 3.15 8.37511 3.15 7.06635Z" fill="#A3A3A3"/>
</svg>
