<svg width="59" height="35" viewBox="0 0 59 35" fill="none" xmlns="http://www.w3.org/2000/svg">
<path d="M55.5435 1.42002C54.1239 0.617416 52.3955 0.67941 51.0374 1.60518L42.6423 6.97547C42.0249 3.02483 38.5681 7.62939e-06 34.4939 7.62939e-06H12.2715C7.70351 7.62939e-06 4 3.70395 4 8.27155V21.3646C7 21.3646 16.5 30.3646 17 35H34.4939C38.6297 35 42.0248 32.0371 42.6423 28.0245L50.9759 33.3948C51.7165 33.8887 52.5191 34.1355 53.4449 34.1355C54.2475 34.1355 54.9881 33.9503 55.6056 33.58C57.0872 32.7774 58.013 31.2342 58.013 29.5678V5.49361C57.8894 3.76565 56.9636 2.22261 55.5435 1.42002ZM52.7042 6.54351V28.3955L42.7038 21.9759V13.0869L52.7042 6.54351ZM9.06198 8.27192C9.06198 6.54351 10.4816 5.12386 12.21 5.12386H34.4324C36.1608 5.12386 37.5805 6.54351 37.5805 8.27192V26.7288C37.5805 28.4572 36.1608 29.8769 34.4324 29.8769H17.5C17.5 28.3955 11.438 21.3642 8.99998 21.3646C9.06198 21.3646 9.12398 8.27192 9.06198 8.27192Z" fill="#978284"/>
<path d="M10.347 27.2447C10.2901 27.2397 10.2329 27.2397 10.1757 27.2447H7.32635V24.3749V24.2039C7.28421 23.8338 7.10652 23.4921 6.82769 23.2449C6.54922 22.9977 6.18857 22.8625 5.81598 22.8646C5.4434 22.8625 5.08311 22.9977 4.80427 23.2449C4.5258 23.4921 4.34811 23.8338 4.30597 24.2039V24.3749V27.2243H1.44641H1.28031C0.800973 27.2983 0.386248 27.5979 0.165396 28.0295C-0.0551321 28.4614 -0.0551321 28.9727 0.165396 29.4046C0.386275 29.8362 0.801 30.1358 1.28031 30.2098H1.44641H4.30102V33.0645V33.2306L4.30067 33.2302C4.37477 33.7095 4.67431 34.1243 5.10589 34.3451C5.53782 34.5657 6.0491 34.5657 6.48106 34.3451C6.91264 34.1242 7.21218 33.7095 7.28627 33.2302V33.0641V30.245H10.3067C10.786 30.1713 11.2007 29.8717 11.4212 29.4398C11.6421 29.0082 11.6421 28.4966 11.4212 28.065C11.2007 27.6331 10.786 27.3335 10.3067 27.2598L10.347 27.2447Z" fill="#978284"/>
</svg>
