<svg width="28" height="10" viewBox="0 0 28 10" fill="none" xmlns="http://www.w3.org/2000/svg">
<path d="M20.0521 1.248C19.4322 1.02215 18.7771 0.908817 18.1174 0.913338C15.9841 0.913338 14.4774 1.988 14.4667 3.53067C14.4534 4.664 15.5374 5.30267 16.3574 5.68134C17.1987 6.07067 17.4801 6.316 17.4774 6.664C17.4721 7.19334 16.8054 7.43334 16.1854 7.43334C15.3334 7.43334 14.8681 7.31467 14.1521 7.01734L13.8867 6.89334L13.5841 8.66934C14.1027 8.88534 15.0374 9.07067 16.0027 9.08667C18.2707 9.08667 19.7534 8.01867 19.7707 6.37734C19.7894 5.472 19.2027 4.788 17.9681 4.22267C17.2174 3.856 16.7521 3.61067 16.7521 3.23867C16.7521 2.90934 17.1507 2.55734 17.9841 2.55734C18.5387 2.54392 19.0899 2.64797 19.6014 2.86267L19.8014 2.952L20.1041 1.236L20.0521 1.248ZM25.5881 1.05734H23.9214C23.4027 1.05734 23.0121 1.2 22.7854 1.71467L19.5801 8.976H21.8481L22.3014 7.78534L25.0694 7.788C25.1347 8.06667 25.3347 8.976 25.3347 8.976H27.3347L25.5881 1.05734ZM11.3987 0.990671H13.5601L12.2081 8.91334H10.0494L11.3987 0.988004V0.990671ZM5.91206 5.35734L6.13606 6.45734L8.24806 1.05734H10.5374L7.13606 8.96534H4.85206L2.9854 2.26934C2.95516 2.15893 2.88416 2.0641 2.78673 2.004C2.11393 1.65645 1.40106 1.39271 0.664062 1.21867L0.693396 1.052H4.17206C4.64406 1.07067 5.02406 1.21867 5.15073 1.72267L5.91073 5.36134V5.35734H5.91206ZM22.9214 6.16534L23.7827 3.94934C23.7721 3.97334 23.9601 3.492 24.0694 3.19467L24.2174 3.87867L24.7174 6.164H22.9201V6.16534H22.9214Z" fill="black"/>
</svg>
