<svg width="25" height="25" viewBox="0 0 25 25" fill="none" xmlns="http://www.w3.org/2000/svg">
<g clip-path="url(#clip0_670_22453)">
<path d="M6.9089 21.0566L7.2967 21.2506C8.91276 22.2201 10.7226 22.6726 12.5325 22.6726C18.2207 22.6726 22.8746 18.0186 22.8746 12.3304C22.8746 9.61565 21.7757 6.96545 19.8367 5.02627C17.8975 3.08709 15.3119 1.98828 12.5325 1.98828C6.84431 1.98828 2.19026 6.64224 2.25494 12.3951C2.25494 14.3342 2.83668 16.2088 3.80623 17.8247L4.06476 18.2126L3.03063 22.0262L6.9089 21.0566Z" fill="#00E676"/>
<path d="M20.9355 3.99047C18.7378 1.72817 15.6998 0.5 12.5972 0.5C6.0041 0.5 0.703718 5.86497 0.768304 12.3934C0.768304 14.4619 1.35005 16.4657 2.31969 18.2756L0.639038 24.4162L6.90897 22.8003C8.6542 23.7699 10.5933 24.2224 12.5326 24.2224C19.061 24.2224 24.3614 18.8573 24.3614 12.3289C24.3614 9.16159 23.1332 6.18819 20.9356 3.99047H20.9355ZM12.5972 22.2186C10.8519 22.2186 9.10668 21.7662 7.61998 20.8613L7.23218 20.6673L3.48318 21.6369L4.45272 17.9525L4.19419 17.5646C1.35005 12.9754 2.70749 6.8992 7.36145 4.05506C12.0154 1.21101 18.0268 2.56845 20.8709 7.22241C23.715 11.8764 22.3576 17.8878 17.7037 20.7319C16.2169 21.7015 14.4071 22.2185 12.5972 22.2185V22.2186ZM18.2853 15.0438L17.5743 14.7206C17.5743 14.7206 16.5402 14.2681 15.8938 13.9449C15.8291 13.9449 15.7645 13.8802 15.6998 13.8802C15.5059 13.8802 15.3766 13.9449 15.2473 14.0096C15.2473 14.0096 15.1828 14.0742 14.2778 15.1084C14.2131 15.2377 14.0839 15.3023 13.9546 15.3023H13.8899C13.8253 15.3023 13.6961 15.2377 13.6314 15.1731L13.3082 15.0438C12.5972 14.7206 11.9508 14.3327 11.4337 13.8156C11.3044 13.6864 11.1105 13.5571 10.9812 13.4278C10.5287 12.9754 10.0762 12.4582 9.75311 11.8765L9.68843 11.7472C9.62384 11.6825 9.62384 11.6179 9.55916 11.4887C9.55916 11.3594 9.55916 11.2301 9.62384 11.1655C9.62384 11.1655 9.88237 10.8422 10.0762 10.6484C10.2056 10.519 10.2702 10.3252 10.3994 10.1959C10.5287 10.002 10.5934 9.74343 10.5287 9.54948C10.4641 9.22627 9.68843 7.48103 9.49457 7.09324C9.36522 6.89929 9.23604 6.8347 9.0421 6.77002H8.33108C8.20173 6.77002 8.07255 6.8347 7.94319 6.8347L7.87851 6.89929C7.74925 6.96397 7.61998 7.09324 7.49071 7.15782C7.36145 7.28718 7.29677 7.41636 7.1675 7.54571C6.71502 8.12746 6.45649 8.83847 6.45649 9.54948C6.45649 10.0665 6.58576 10.5837 6.7797 11.0362L6.84438 11.2301C7.42613 12.4582 8.20173 13.5571 9.23604 14.5267L9.49457 14.7852C9.68843 14.9791 9.88237 15.1084 10.0116 15.3023C11.3691 16.4658 12.9204 17.3061 14.6656 17.7586C14.8595 17.8232 15.1181 17.8232 15.312 17.8879H15.9584C16.2816 17.8879 16.6694 17.7586 16.928 17.6293C17.1218 17.5001 17.2511 17.5001 17.3804 17.3708L17.5097 17.2414C17.639 17.1122 17.7683 17.0476 17.8975 16.9183C18.0268 16.7891 18.1561 16.6598 18.2208 16.5304C18.35 16.2719 18.4146 15.9487 18.4793 15.6256V15.1731C18.4793 15.1731 18.4146 15.1084 18.2853 15.0438Z" fill="white"/>
</g>
<defs>
<clipPath id="clip0_670_22453">
<rect width="23.73" height="24" fill="white" transform="translate(0.63501 0.5)"/>
</clipPath>
</defs>
</svg>
