<svg width="16" height="15" viewBox="0 0 16 15" fill="none" xmlns="http://www.w3.org/2000/svg">
<path d="M2.65768 14.1C2.35274 14.1018 2.05256 14.0247 1.78702 13.8762C1.52134 13.7277 1.29956 13.5128 1.14389 13.253C0.988223 12.9931 0.904151 12.6974 0.90015 12.3953C0.896151 12.0934 0.972269 11.7957 1.12083 11.5321C1.12092 11.5319 1.12101 11.5317 1.1211 11.5316L6.47311 1.80118L6.47314 1.80113C6.62343 1.52827 6.84532 1.30066 7.1153 1.14213C7.38527 0.983614 7.69341 0.9 8.00728 0.9C8.32115 0.9 8.62929 0.983614 8.89926 1.14213C9.16924 1.30066 9.39113 1.52827 9.54142 1.80113L9.54147 1.80122L14.8885 11.5325L14.9009 11.555V11.5717C15.0371 11.8292 15.1056 12.1168 15.0996 12.4077C15.0935 12.7073 15.0086 13.0001 14.8535 13.2574C14.6983 13.5146 14.4782 13.7275 14.2149 13.8751C13.9516 14.0228 13.6541 14.1002 13.3515 14.1M2.65768 14.1H2.65751V14L2.65814 14.1C2.65799 14.1 2.65784 14.1 2.65768 14.1ZM2.65768 14.1H13.3515M13.3515 14.1H13.3516V14L13.3515 14.1ZM13.7381 12.5813L13.7379 12.5816C13.6983 12.6476 13.6419 12.7024 13.5742 12.7405C13.5064 12.7787 13.4297 12.7988 13.3516 12.7988C13.3516 12.7988 13.3516 12.7988 13.3515 12.7988H2.65751L2.65724 12.7988C2.57897 12.799 2.50206 12.7791 2.43411 12.741C2.36616 12.7029 2.30958 12.6481 2.26982 12.5821C2.23008 12.516 2.20849 12.4409 2.2071 12.3643C2.20571 12.2876 2.22457 12.2119 2.26189 12.1445L2.26205 12.1442L7.60908 2.41285L7.6092 2.41263C7.64753 2.34246 7.70444 2.28368 7.77404 2.24265C7.84366 2.20162 7.9233 2.1799 8.00454 2.1799C8.08577 2.1799 8.16541 2.20162 8.23502 2.24265C8.30463 2.28368 8.36154 2.34246 8.39987 2.41263L8.39999 2.41285L13.747 12.1442L13.747 12.1442C13.7841 12.2116 13.8027 12.2873 13.8012 12.3639C13.7996 12.4405 13.7779 12.5154 13.7381 12.5813ZM8.03198 9.39161C8.2474 9.39161 8.45423 9.30707 8.60691 9.15621C8.75963 9.0053 8.84565 8.80038 8.84565 8.58644V5.32097C8.84565 5.10704 8.75963 4.90212 8.60691 4.75121C8.45423 4.60035 8.2474 4.51581 8.03198 4.51581C7.81657 4.51581 7.60974 4.60035 7.45706 4.75121C7.30433 4.90212 7.21832 5.10704 7.21832 5.32097V8.57483C7.21676 8.68151 7.23664 8.7874 7.27679 8.88637C7.31703 8.98559 7.37681 9.07582 7.4526 9.15185C7.52837 9.22788 7.61863 9.28818 7.71809 9.32932C7.81755 9.37046 7.92425 9.39163 8.03198 9.39161ZM8.00453 11.8055C8.51342 11.8055 8.928 11.3975 8.928 10.8918C8.928 10.3861 8.51342 9.97815 8.00453 9.97815C7.49565 9.97815 7.08107 10.3861 7.08107 10.8918C7.08107 11.3975 7.49565 11.8055 8.00453 11.8055Z" fill="#FF5440" stroke="#FF5440" stroke-width="0.2"/>
</svg>
