<svg width="212" height="41" viewBox="0 0 212 41" fill="none" xmlns="http://www.w3.org/2000/svg">
<path d="M193.354 29.0694H202.295C203.689 29.0694 204.682 29.2335 205.275 29.5618C205.902 29.89 206.32 30.366 206.529 30.9897C206.739 31.6133 206.843 32.434 206.843 33.4515C206.843 34.4691 206.739 35.2897 206.529 35.9134C206.32 36.5371 205.954 36.9802 205.432 37.2428C204.909 37.4726 204.438 37.6203 204.02 37.6859C203.636 37.7188 203.044 37.7352 202.242 37.7352H183.368C182.148 37.7352 181.085 37.3084 180.179 36.455C179.272 35.6016 178.819 34.584 178.819 33.4023C178.819 32.2206 179.272 31.2194 180.179 30.3988C181.085 29.5454 182.479 28.3309 184.361 26.7553C186.244 25.1797 187.951 23.7682 189.485 22.5209C191.019 21.2407 191.855 20.535 191.995 20.4037H184.623C182.636 20.4037 181.381 20.0918 180.858 19.4682C180.266 18.746 179.97 17.7941 179.97 16.6124C179.97 15.4307 180.057 14.5609 180.231 14.0028C180.405 13.412 180.614 12.9853 180.858 12.7227C181.102 12.4272 181.451 12.1975 181.904 12.0334C182.497 11.8692 183.403 11.7872 184.623 11.7872H201.615C202.835 11.7872 203.898 12.1975 204.804 13.0181C205.71 13.8387 206.163 14.8727 206.163 16.12C206.163 17.3346 205.641 18.4178 204.595 19.3697C203.549 20.3216 199.802 23.5549 193.354 29.0694Z" fill="#40C700"/>
<path d="M211.107 34.01C211.201 33.9416 211.279 33.8502 211.332 33.7434C211.385 33.6367 211.413 33.5179 211.413 33.3974C211.413 33.2768 211.385 33.158 211.332 33.0513C211.279 32.9446 211.201 32.8531 211.107 32.7847L201.88 26.0768C201.774 25.9992 201.649 25.9536 201.52 25.9452C201.39 25.9367 201.261 25.9656 201.147 26.0287C201.032 26.0919 200.936 26.1869 200.869 26.3034C200.802 26.4198 200.766 26.5534 200.767 26.6895V40.1053C200.767 40.241 200.803 40.3741 200.87 40.4901C200.937 40.6061 201.033 40.7007 201.148 40.7637C201.262 40.8267 201.391 40.8557 201.52 40.8477C201.649 40.8396 201.774 40.7947 201.88 40.7179L211.107 34.01Z" fill="#40C700"/>
<path d="M174.974 15.5123C174.88 15.5807 174.802 15.6722 174.749 15.7789C174.695 15.8856 174.667 16.0044 174.667 16.125C174.667 16.2455 174.695 16.3643 174.749 16.471C174.802 16.5778 174.88 16.6692 174.974 16.7376L184.201 23.4455C184.307 23.5232 184.432 23.5687 184.561 23.5772C184.69 23.5856 184.819 23.5567 184.934 23.4936C185.049 23.4304 185.145 23.3355 185.212 23.219C185.279 23.1025 185.314 22.969 185.314 22.8329V9.41707C185.314 9.2813 185.278 9.14826 185.211 9.03224C185.144 8.91623 185.048 8.82163 184.933 8.75863C184.818 8.69562 184.69 8.66659 184.561 8.67466C184.432 8.68273 184.307 8.72759 184.201 8.80441L174.974 15.5123Z" fill="#40C700"/>
<path d="M19.8237 16.136H28.352C30.0965 16.2006 31.1625 16.6529 31.5501 17.4928C31.8732 18.1066 32.0347 19.0111 32.0347 20.2064V30.8668C32.0347 31.9006 31.5825 32.8858 30.6779 33.8227C27.9644 36.6331 23.894 38.0384 18.4669 38.0384C13.6535 38.0384 9.47012 36.2293 5.91664 32.6112C2.36317 28.9609 0.586426 24.5675 0.586426 19.4311C0.586426 14.2947 2.39547 10.0143 6.01356 6.59009C9.63165 3.13352 13.8958 1.40524 18.8061 1.40524C22.618 1.40524 26.2199 2.66511 29.6119 5.18485C30.4841 5.83094 30.9202 6.55779 30.9202 7.36539C30.9202 8.1407 30.5487 9.04522 29.8057 10.079C28.5458 11.7911 27.399 12.6472 26.3653 12.6472C25.7515 12.6472 24.7662 12.211 23.4095 11.3388C22.0527 10.4343 20.4375 9.98205 18.5638 9.98205C16.1087 9.98205 13.9281 10.8543 12.0222 12.5987C10.1162 14.3108 9.16323 16.5721 9.16323 19.3826C9.16323 22.1608 10.1324 24.5352 12.0706 26.5057C14.0089 28.444 16.2056 29.4131 18.6607 29.4131C20.4375 29.4131 22.0365 29.1224 23.4579 28.5409V23.2591H19.6298C18.6284 23.2591 17.9177 23.1299 17.4978 22.8715C17.0778 22.613 16.8032 22.2415 16.674 21.757C16.5448 21.2401 16.4802 20.5617 16.4802 19.7218C16.4802 18.8496 16.5448 18.155 16.674 17.6382C16.8355 17.1213 17.1101 16.766 17.4978 16.5721C18.0792 16.2814 18.8545 16.136 19.8237 16.136Z" fill="#001F47"/>
<path d="M35.178 24.8097C35.178 20.9332 36.5347 17.7351 39.2483 15.2154C41.9619 12.6956 45.0631 11.4357 48.552 11.4357C52.0408 11.4357 55.1259 12.6956 57.8072 15.2154C60.4884 17.7028 61.829 20.8848 61.829 24.7613C61.829 27.4425 61.1345 29.8331 59.7454 31.9329C58.3563 34.0003 56.6604 35.5348 54.6575 36.5362C52.6869 37.5054 50.6356 37.9899 48.5035 37.9899C46.3714 37.9899 44.3039 37.4731 42.3011 36.4393C40.2982 35.3733 38.6022 33.8227 37.2131 31.7875C35.8563 29.72 35.178 27.3941 35.178 24.8097ZM45.3054 28.2986C46.3391 29.0739 47.389 29.4616 48.455 29.4616C49.5211 29.4616 50.5871 29.0578 51.6532 28.2502C52.7192 27.4426 53.2522 26.2473 53.2522 24.6644C53.2522 23.0815 52.7515 21.9024 51.7501 21.127C50.7487 20.3517 49.6665 19.9641 48.5035 19.9641C47.3405 19.9641 46.2583 20.3679 45.2569 21.1755C44.2555 21.9831 43.7548 23.1784 43.7548 24.7613C43.7548 26.3119 44.2716 27.491 45.3054 28.2986Z" fill="#001F47"/>
<path d="M90.2541 18.5104C92.1601 20.7717 93.113 23.3076 93.113 26.1181C93.0484 29.3485 91.9339 32.0621 89.7695 34.2588C87.6375 36.4232 85.0369 37.5054 81.968 37.5054H69.224C66.9627 37.5054 65.6382 36.8916 65.2505 35.664C65.0567 35.1148 64.9598 34.2749 64.9598 33.1443V6.25089C64.9598 5.47559 64.9759 4.91026 65.0082 4.55491C65.0729 4.19957 65.2344 3.77961 65.4928 3.29504C65.9451 2.42283 67.2049 1.98672 69.2724 1.98672H81.4835C84.4555 1.98672 86.9429 3.02046 88.9458 5.08794C91.0456 7.18772 92.0955 9.70746 92.0955 12.6472C92.0955 14.7792 91.4817 16.7337 90.2541 18.5104ZM84.5362 25.6335C84.5362 24.8582 84.4393 24.2444 84.2455 23.7922C84.084 23.3399 83.7932 23.0169 83.3733 22.823C82.7272 22.5646 81.8227 22.4354 80.6597 22.4354C79.4967 22.4354 78.6245 22.2092 78.0431 21.757C77.4616 21.3047 77.1708 20.384 77.1708 18.995C77.1708 17.5736 77.4616 16.6367 78.0431 16.1845C78.6568 15.7322 79.6583 15.5061 81.0474 15.5061C82.3395 15.5061 83.1148 15.1669 83.3733 14.4885C83.4702 14.1332 83.5186 13.5517 83.5186 12.7441C83.5186 11.9365 83.2441 11.3711 82.6949 11.0481C82.178 10.725 81.3866 10.5635 80.3205 10.5635H73.5366V28.9286H81.4835C83.5186 28.9286 84.5362 27.8302 84.5362 25.6335Z" fill="#001F47"/>
<path d="M112.858 14.7308C113.052 12.9217 114.328 12.0172 116.686 12.0172C117.946 12.0172 118.883 12.1141 119.497 12.308C120.111 12.5018 120.531 12.841 120.757 13.3255C121.015 13.8101 121.161 14.2462 121.193 14.6339C121.257 14.9892 121.29 15.5384 121.29 16.2814V33.2412C121.29 33.9842 121.257 34.5495 121.193 34.9372C121.161 35.2925 121.031 35.7125 120.805 36.197C120.353 37.0369 119.238 37.4569 117.462 37.4569C115.717 37.4569 114.538 37.2469 113.924 36.827C113.343 36.3747 113.004 35.7286 112.907 34.8887C111.712 36.6008 109.709 37.4569 106.898 37.4569C104.12 37.4569 101.536 36.1809 99.1451 33.6288C96.7546 31.0768 95.5593 28.1209 95.5593 24.7613C95.5593 21.3693 96.7546 18.4135 99.1451 15.8937C101.568 13.3417 104.217 12.0657 107.092 12.0657C108.19 12.0657 109.192 12.2595 110.096 12.6472C111.001 13.0348 111.631 13.4063 111.986 13.7617C112.341 14.0847 112.632 14.4077 112.858 14.7308ZM104.039 24.8097C104.039 25.8758 104.459 26.8449 105.299 27.7171C106.139 28.557 107.157 28.977 108.352 28.977C109.547 28.977 110.532 28.5409 111.308 27.6687C112.115 26.7965 112.519 25.8435 112.519 24.8097C112.519 23.7437 112.131 22.7584 111.356 21.8539C110.613 20.9494 109.596 20.4971 108.303 20.4971C107.044 20.4971 106.01 20.9494 105.202 21.8539C104.427 22.7584 104.039 23.7437 104.039 24.8097Z" fill="#001F47"/>
<path d="M133.147 24.8097C133.147 26.1665 133.599 27.2326 134.504 28.0079C135.409 28.7509 136.361 29.1224 137.363 29.1224C138.397 29.1224 139.35 28.8316 140.222 28.2502C141.126 27.6364 141.853 27.3295 142.402 27.3295C143.372 27.3295 144.551 28.1855 145.94 29.8977C146.683 30.8345 147.054 31.6744 147.054 32.4174C147.054 33.645 146.166 34.7918 144.389 35.8578C142.548 37.15 140.286 37.7961 137.605 37.7961C134.601 37.7961 131.71 36.7139 128.932 34.5495C127.607 33.5158 126.525 32.1428 125.685 30.4307C124.845 28.6863 124.425 26.7803 124.425 24.7128C124.425 22.613 124.845 20.7232 125.685 19.0434C126.525 17.3313 127.607 15.9584 128.932 14.9246C131.613 12.7925 134.472 11.7265 137.508 11.7265C138.736 11.7265 139.931 11.9042 141.094 12.2595C142.257 12.5825 143.113 12.9056 143.662 13.2286L144.438 13.7132C145.019 14.1009 145.471 14.4077 145.794 14.6339C146.634 15.28 147.054 16.023 147.054 16.8629C147.054 17.6705 146.715 18.5912 146.037 19.6249C144.874 21.4016 143.759 22.29 142.693 22.29C142.079 22.29 141.207 21.9347 140.077 21.224C139.495 20.6748 138.655 20.4002 137.557 20.4002C136.491 20.4002 135.489 20.7879 134.552 21.5632C133.616 22.3385 133.147 23.4207 133.147 24.8097Z" fill="#001F47"/>
<path d="M165.206 24.7613L171.651 30.0915C172.458 30.7699 172.959 31.2868 173.153 31.6421C173.379 31.9975 173.492 32.3367 173.492 32.6597C173.492 33.435 172.991 34.4849 171.99 35.8094C170.892 37.1662 169.923 37.8446 169.083 37.8446C168.372 37.8446 167.387 37.3761 166.127 36.4393L165.642 36.1001C164.899 35.4863 163.752 34.4203 162.202 32.902C160.651 31.3514 159.472 30.253 158.664 29.6069V33.3381C158.664 34.0811 158.632 34.6464 158.568 35.0341C158.535 35.3894 158.39 35.8094 158.131 36.2939C157.712 37.1339 156.468 37.5538 154.4 37.5538C152.365 37.5538 151.121 37.1177 150.669 36.2455C150.443 35.7609 150.298 35.341 150.233 34.9856C150.201 34.598 150.185 34.0326 150.185 33.2896V4.26417C150.185 3.52117 150.201 2.972 150.233 2.61665C150.298 2.229 150.443 1.79289 150.669 1.30833C151.121 0.436109 152.381 0 154.449 0C155.999 0 157.098 0.274587 157.744 0.823762C158.293 1.27602 158.584 1.98672 158.616 2.95585C158.648 3.24659 158.664 3.69885 158.664 4.31263V19.6734C159.246 19.1888 160.118 18.365 161.281 17.2021C162.476 16.0391 163.365 15.2154 163.946 14.7308L164.528 14.3431C165.658 13.4709 166.628 13.0348 167.435 13.0348C168.243 13.0348 169.163 13.697 170.197 15.0215C171.263 16.3137 171.796 17.3313 171.796 18.0743C171.796 18.8173 171.199 19.6895 170.003 20.6909L165.206 24.7613Z" fill="#001F47"/>
</svg>
